<svg xmlns="http://www.w3.org/2000/svg" viewBox="0 0 600 171"><defs><style>.cls-1{fill:#03263c;}.cls-2,.cls-4{fill:none;}.cls-2{stroke:#000;stroke-miterlimit:10;}.cls-3{fill:#fff;}.cls-5{fill:#fbbf31;}</style></defs><title>Appco</title><g id="Layer_2" data-name="Layer 2"><polygon class="cls-1" points="0 0 600 1 600 169 0 171 0 0"/></g><g id="Layer_1" data-name="Layer 1"><path class="cls-2" d="M204.5,284.5" transform="translate(1.45 -167.79)"/><path class="cls-3" d="M234.19,303.5l15-78c0-1.54,71,1,71,1h3a17.54,17.54,0,0,1,9,4c8,7,5.6,19.79,5,23-2.57,13.72-13.26,20.88-15,22-5,3.25-9.91,3.48-13,4h-40l-5,24Z" transform="translate(1.45 -167.79)"/><path class="cls-4" d="M381.62,249.08a48.88,48.88,0,0,0-12,16c-3.36,7.16-4,13.17-5,22-.7,6.37-1,9.62,0,13,2.4,7.85,9,12.1,12,14,5.87,3.77,11.07,4.69,19,6,8.7,1.45,17.46,2.9,29,1,6.72-1.1,16.42-2.7,26-10a50.44,50.44,0,0,0,13-15c2.58-4.3,7.91-13.43,8-26,0-5.49.1-13.25-5-20-4.35-5.75-10.17-7.75-17-10-4.33-1.42-20-6.12-41-2C399.36,239.9,390.3,241.68,381.62,249.08Z" transform="translate(1.45 -167.79)"/><path class="cls-4" d="M444,262.58" transform="translate(1.45 -167.79)"/><path class="cls-3" d="M482,256a18.76,18.76,0,0,1,5-8c3.69-3.44,7.77-4.31,11-5a26,26,0,0,1,12,0c3.07.76,6,1.47,8,4,2.23,2.76,2.12,6,2,10a34.14,34.14,0,0,1-4,15c-1.91,3.46-4.48,8.12-10,11-5.25,2.73-10.28,2.35-15,2-3.63-.27-5.82-.46-8-2-4.63-3.26-5-9.55-5-11l-32.52.08c-.71,6.37-.08,9.63,1,13,2.52,7.92,7.56,10.86,12,14,5.52,3.92,9.52,5.92,18,8a73.53,73.53,0,0,0,30,1c6.71-1.1,16.41-4.7,26-12a50.59,50.59,0,0,0,13-15c2.58-4.3,7.91-13.43,8-26,0-5.49.09-13.25-5-20-4.35-5.75-10.17-7.75-17-10-4.34-1.42-20-6.12-41-2-9.26,1.82-18.32,3.6-27,11-1.3,1.11-12,11.42-15,22Z" transform="translate(1.45 -167.79)"/><polygon class="cls-5" points="446.95 99.71 479.95 99.71 480.95 92.71 447.95 92.71 446.95 99.71"/><polygon class="cls-4" points="555.45 56.21 570.45 56.21 569.45 60.21 565.45 60.21 563.45 71.21 556.45 71.21 558.45 60.21 554.45 60.21 555.45 56.21"/><polygon class="cls-3" points="77.45 58.21 114.45 58.21 131.45 135.21 99.45 135.21 97.45 126.21 66.45 126.21 61.45 135.21 29.45 135.21 77.45 58.21"/><polygon class="cls-1" points="90.95 81.71 76.95 106.71 95.95 106.71 90.95 81.71"/><path class="cls-2" d="M200.5,244.5" transform="translate(1.45 -167.79)"/><path class="cls-2" d="M197.5,263.5" transform="translate(1.45 -167.79)"/><path class="cls-1" d="M275.1,259.49l3-16h18a25.44,25.44,0,0,1,7,2,4.44,4.44,0,0,1,2,3,7.73,7.73,0,0,1-1,7c-2.18,2.94-6.62,4-7,4Z" transform="translate(1.45 -167.79)"/><path class="cls-3" d="M409.5,256.5l35.45.31c0-.6.05-1.2.05-1.81,0-5.5.1-13.26-5-20-4.35-5.75-10.17-7.75-17-10-4.33-1.42-20-6.12-41-2-9.26,1.82-18.32,3.6-27,11a48.88,48.88,0,0,0-12,16c-3.36,7.15-4,13.16-5,22-.7,6.36-1.39,9.75,0,13a34.17,34.17,0,0,0,12,14c5.87,3.76,11.07,4.68,19,6,8.7,1.44,17.46,2.9,29,1,6.72-1.1,16.42-2.7,26-10a50.68,50.68,0,0,0,13-15,61.17,61.17,0,0,0,4.64-9.14l-36.14.64a23.91,23.91,0,0,1-11,10c-3.83,1.58-7.26,1.3-11,1s-6.9-.6-9-3c-1.2-1.37-1.53-2.81-2-5a30.6,30.6,0,0,1,5-23,23,23,0,0,1,10-8c1.54-.61,11-4.12,17,1,2.7,2.29,3.82,6.41,4,7a19.32,19.32,0,0,1,.71,4.15" transform="translate(1.45 -167.79)"/><path class="cls-2" d="M409.5,256.5" transform="translate(1.45 -167.79)"/><polygon class="cls-3" points="553.95 58.71 554.95 53.71 570.95 53.71 569.95 58.71 564.95 58.71 562.95 68.71 556.95 68.71 558.95 58.71 553.95 58.71"/><polygon class="cls-3" points="573.45 54.21 570.45 68.21 574.45 68.21 576.45 59.21 578.45 68.21 582.45 68.21 586.45 59.21 585.45 68.21 589.45 68.21 591.45 54.21 584.45 54.21 581.45 62.21 579.45 54.21 573.45 54.21"/><polyline class="cls-4" points="584.93 85.14 578.93 85.14 575.93 99.14"/><path class="cls-3" d="M135.79,303.3l15-78c0-1.54,71,1,71,1h3a17.58,17.58,0,0,1,9,4c8,7,5.6,19.79,5,23-2.57,13.72-13.26,20.88-15,22-5,3.25-9.92,3.48-13,4h-40l-5,24Z" transform="translate(1.45 -167.79)"/><path class="cls-1" d="M175.69,258.3l3-16h18a25.44,25.44,0,0,1,7,2,4.37,4.37,0,0,1,2,3,7.7,7.7,0,0,1-1,7c-2.17,2.93-6.62,4-7,4Z" transform="translate(1.45 -167.79)"/></g></svg>