<svg id="BNT" xmlns="http://www.w3.org/2000/svg" viewBox="0 0 575.83 235.71"><defs><style>.cls-1{fill:#ec3d3c;}.cls-2{fill:#1051a0;}</style></defs><title>BNT</title><polyline class="cls-1" points="498.83 234 382.83 234 460.83 0 575.83 0"/><path class="cls-1" d="M449,155" transform="translate(-11.17 -156)"/><path class="cls-2" d="M160.17,334.71l43.48-123.37,33.27-.09,32.25,57.46,16.56-57.59,147.44-.41,17-53h-362l-18,54,72.21-.22,10.07.22a23.72,23.72,0,0,1,15.79,6c7,6.46,6.06,15.22,5.64,19-1.06,9.76-7.44,16-14.66,23a37.32,37.32,0,0,1-10.55,7.5,35.17,35.17,0,0,1-7.5,2.5l-.17.35c2.4.12,11.06.76,16.79,6.28,7,6.76,6.06,15.93,5.64,19.88-1.35,13.06-11.23,21.24-14.66,24.07a48.7,48.7,0,0,1-18.05,9.42,106.31,106.31,0,0,1-17,4.5c-2.42.43-4.76.76-7,1l-75.5.5-20,56,363-1,17-54,32-98h-37l-33,96h-39l30-96h-33l-33,96h-24l-39-65-20,65h-35" transform="translate(-11.17 -156)"/><path class="cls-2" d="M104.54,277c.75.12,7.38,1.32,10,7,1.85,4,.63,7.94,0,10-1.19,3.85-3.35,6.17-6,9-3.43,3.66-6.36,6.8-11,8-2.43.63-3.18.17-11,0-3.87-.09-7,0-9,0l12-34Z" transform="translate(-11.17 -156)"/><path class="cls-2" d="M118.05,233.53c.68.11,6.72,1.24,9.1,6.59,1.68,3.77.58,7.48,0,9.42-1.08,3.63-3.05,5.81-5.46,8.47-3.12,3.46-4.79,4.41-9,5.54-2.21.59-3.89,2.16-11,2-3.53-.08-6.39-.05-8.19,0l10.91-32Z" transform="translate(-11.17 -156)"/></svg>