<svg xmlns="http://www.w3.org/2000/svg" viewBox="0 0 446.93 171.03"><defs><style>.cls-1{font-size:12px;font-family:Avenir-Light, Avenir;font-weight:300;}.cls-2{font-size:14px;letter-spacing:0em;}.cls-3{fill:#fff;stroke:#000;stroke-miterlimit:10;stroke-width:4px;}.cls-4{fill:#bf1e27;}.cls-5{fill:#86a75b;}.cls-6{fill:#d3d0d1;}.cls-7{fill:#fdfdfd;}</style></defs><g id="dunedin"><path d="M221.12,83.72c-1.86-1-3.78-1.8-5.64-2.64s-3.84-1.62-5.88-2.4V67.94l24.06-17.76L217.52,31.76q-6,3.15-12.06,5.94c-4.08,1.86-8.22,3.6-12.36,5.16a5.36,5.36,0,0,0-.78.3,3.67,3.67,0,0,0-.72.3l.66,1.26h.48c1.68,0,2.76.36,3.18,1.08s.66,2.58.66,5.52V72.14a28.61,28.61,0,0,1-.48,6.06,6.87,6.87,0,0,1-3.84,4.44v1.14c6.24.9,13,3.36,20.34,7.44L232,79.82l-1.32-1.68ZM209.6,38.9l13.14,14.46L209.6,63Z" transform="translate(-18.98 -7.94)"/><path d="M126.8,80.36a6.18,6.18,0,0,1-2.88,1.14c-2.4,0-3.54-2.22-3.54-6.6v-31l4.32-3.54-11-8.58L102.8,40.34l4.68,3.54V72.56L96.86,80.78l-4.62-3.3V43.88l4.5-3.54-11-8.58L74,40.94l2.4,1.5h0l2.82,1.74V72.62q0,4.77-.54,6.12c-.36.78-1.38,1.44-3.12,2.1V82.4A59.22,59.22,0,0,1,90.2,91.28l17.34-14v1.26a14.7,14.7,0,0,0,1.32,6.9,8.57,8.57,0,0,0,2,2.34,34.27,34.27,0,0,0,3.24,2.52,7.68,7.68,0,0,0,1.62,1l13.2-8.88Z" transform="translate(-18.98 -7.94)"/><path d="M185.24,79.4a2.61,2.61,0,0,0-.42.36,7,7,0,0,1-3.12,1.32q-2.52,0-3.06-3.78a9.39,9.39,0,0,1-.12-1.74V48.86c0-7.38-1.56-9.48-4.32-11.82s-6.72-5.34-6.72-5.34L151.1,43.76a7.76,7.76,0,0,1-.12-1.5,8.92,8.92,0,0,0-1.5-5.46,23.47,23.47,0,0,0-4.68-4.14c-.54-.36-1-.72-1.38-1l-13.14,8.76,1.5,1.8a10.16,10.16,0,0,1,3.3-1.26,3.5,3.5,0,0,1,1.5.3,2.08,2.08,0,0,1,.9,1.08,6.7,6.7,0,0,1,.42,2.28c.06,1,.12,2.28.12,3.78V78.5l-5.16,4.32,11.34,8.34,11.4-8.1-4.5-4.32V48.14l10.08-7.62s.06,0,2,1.86,2.22,2.28,2.28,5.76v25.8c0,5,.36,8.28,1,10s2.58,3.72,5.64,6.12c.12.12.3.24.6.48a10.18,10.18,0,0,0,.84.6l14-9.84L185.9,79c-.3.18-.54.36-.66.42" transform="translate(-18.98 -7.94)"/><path d="M274.4,34.82,238.58,11.36v13.5L255.08,36c-2.76,1.92-7,3.54-12.72,4.8V67c0,5.22-.24,8.58-.66,10.08a8.57,8.57,0,0,1-3.12,4.32v1.26a41.66,41.66,0,0,1,6.48.78A40.36,40.36,0,0,1,250.82,85a46,46,0,0,1,5.94,2.52c2.16,1.08,4.44,2.34,6.78,3.78a84.6,84.6,0,0,1,19.38-9.36V45.26a29,29,0,0,1,.24-4.56ZM270,81.56l-14-5.94V40.94c.84-.54,1.56-1,2.1-1.32a9.08,9.08,0,0,0,1.26-.84l10.68,7Z" transform="translate(-18.98 -7.94)"/><path d="M54.8,34.82,19,11.36v13.5L35.48,36c-2.76,1.92-7,3.54-12.72,4.8V67c0,5.22-.24,8.58-.66,10.08A8.57,8.57,0,0,1,19,81.38v1.26a42.58,42.58,0,0,1,6.48.78A40.36,40.36,0,0,1,31.22,85a46,46,0,0,1,5.94,2.52c2.16,1.08,4.44,2.34,6.78,3.78a84.6,84.6,0,0,1,19.38-9.36V45.26a29,29,0,0,1,.24-4.56ZM50.48,81.56l-14.1-5.94V40.94c.84-.54,1.56-1,2.1-1.32a9.08,9.08,0,0,0,1.26-.84l10.68,7V81.56Z" transform="translate(-18.98 -7.94)"/><path d="M376.76,79.4a2.61,2.61,0,0,0-.42.36,7,7,0,0,1-3.12,1.32q-2.52,0-3.06-3.78a9.39,9.39,0,0,1-.12-1.74V48.86c0-7.38-1.56-9.48-4.32-11.82S359,31.7,359,31.7L342.62,43.76a7.76,7.76,0,0,1-.12-1.5A8.92,8.92,0,0,0,341,36.8a23.47,23.47,0,0,0-4.68-4.14c-.54-.36-1-.72-1.38-1l-13.08,8.76,1.5,1.8a10.16,10.16,0,0,1,3.3-1.26,3.5,3.5,0,0,1,1.5.3,2.08,2.08,0,0,1,.9,1.08,6.7,6.7,0,0,1,.42,2.28c.06,1,.12,2.28.12,3.78V78.5l-5.16,4.32,11.34,8.34,11.4-8.1-4.5-4.32V48.14l10.08-7.62s.06,0,2,1.86S357,44.66,357,48.14v25.8c0,5,.36,8.28,1,10s2.58,3.72,5.64,6.12c.12.12.3.24.6.48a10.18,10.18,0,0,0,.84.6l14-9.84L377.42,79a5.41,5.41,0,0,1-.66.42" transform="translate(-18.98 -7.94)"/><path d="M315.26,82.58h0l-3.72-2.82V43.46L316,39.8l-11.16-8.1-11,7.8L298.52,43v28.8a28.18,28.18,0,0,1-.3,5.22,5.26,5.26,0,0,1-3.9,3.66v1.08A73.93,73.93,0,0,1,307,91.22l10.26-7.08Z" transform="translate(-18.98 -7.94)"/><polygon points="301.8 0.42 290.82 0 287.52 13.5 290.82 13.74 301.8 0.42"/><text x="-18.98" y="-7.94"/><text class="cls-1" transform="translate(249.24 111.12)">~<tspan class="cls-2" x="7.99" y="0">Support local</tspan><tspan x="90.98" y="0">~</tspan></text><text x="-18.98" y="-7.94"/></g><g id="saucer"><path d="M67,131c5.28.16,9.13-1,13.43-2.33a91,91,0,0,0,20.16-9.3h0c-16,3.55-20.77,4.07-20.77,4.07a108.32,108.32,0,0,1-13.43.58,82,82,0,0,1-14-1.16C41,120.76,34.31,116,34,116.47s7.46,6.16,17.71,10.47C60.75,130.74,65.61,131,67,131Z" transform="translate(-18.98 -7.94)"/></g><g id="rim"><path class="cls-3" d="M68.19,124.61c-15.85-.09-33.69-5-33.59-9.3s18-7.81,31.76-8.15c16.66-.41,36.54,3.61,36.64,8.15S84.57,124.71,68.19,124.61Z" transform="translate(-18.98 -7.94)"/></g><g id="cup1"><path d="M67.18,94.55c4.72.06,8.21.2,11.7.53a58.69,58.69,0,0,1,7.7,1.19,17.44,17.44,0,0,1,3.59,1.21A4.82,4.82,0,0,1,92,98.81a1.81,1.81,0,0,1,.42,1.12c0,.76,0,1.51,0,2.27,0,.26.06.34.36.33,1.13,0,2.26,0,3.39,0a6.14,6.14,0,0,1,2.68.7,8.28,8.28,0,0,1,2.09,1.64,4.32,4.32,0,0,1,.29,5.24,12.52,12.52,0,0,1-1.74,2,17.06,17.06,0,0,1-4.58,3,48.93,48.93,0,0,1-6.8,2.5l-2.19.61a1.1,1.1,0,0,0-.42.24c-.9.79-1.75,1.64-2.7,2.38s-2.15,1.52-3.23,2.29c-.56.4-1.11.83-1.66,1.26a8.57,8.57,0,0,1-3.24,1.53,24.28,24.28,0,0,1-5.76.64,27.36,27.36,0,0,1-5.57-.42,9.44,9.44,0,0,1-4.11-1.66,25.94,25.94,0,0,0-2.15-1.59,35.31,35.31,0,0,1-3.7-2.69,15.83,15.83,0,0,1-1.31-1.28c-.65-.69-1.3-1.4-1.9-2.14s-1-1.29-1.44-1.94a23.07,23.07,0,0,1-1.94-3.59A26,26,0,0,1,45,105.4a29.24,29.24,0,0,1-.52-4.92,2,2,0,0,1,.32-1.4,5.23,5.23,0,0,1,1.79-1.5,22,22,0,0,1,5-1.55,58.77,58.77,0,0,1,8.05-1.09C62.6,94.75,65.5,94.64,67.18,94.55Zm1.19,9.89c2.73-.06,4.92,0,7.11-.16a69.38,69.38,0,0,0,8.26-1,28,28,0,0,0,5-1.25A5.82,5.82,0,0,0,91,100.7a.81.81,0,0,0,0-1.06,4.89,4.89,0,0,0-1.71-1.23,24.3,24.3,0,0,0-4.89-1.36A64.56,64.56,0,0,0,77,96.13c-2.16-.13-4.33-.27-6.5-.32A97.39,97.39,0,0,0,59,96.2a59.33,59.33,0,0,0-7.75,1.14A15.27,15.27,0,0,0,46.69,99c-.94.57-1.09,1.34-.28,2.08a.81.81,0,0,0,.14.12,14.62,14.62,0,0,0,1.67.86,24,24,0,0,0,5.36,1.32c2.4.33,4.81.69,7.22.85C63.49,104.4,66.2,104.38,68.37,104.44Zm20.36,10,.1.07a1.54,1.54,0,0,0,.3,0c1.16-.31,2.33-.58,3.48-.94a13.5,13.5,0,0,0,4.7-2.39,5.36,5.36,0,0,0,1.91-2.54,2.8,2.8,0,0,0-1.41-3.52,4,4,0,0,0-4.55.6,6.13,6.13,0,0,1-.57.57,3.71,3.71,0,0,0-1.16,1.59c-.22.64-.44,1.28-.69,1.9-.33.84-.67,1.68-1,2.51-.17.4-.43.78-.63,1.17S88.87,114.1,88.73,114.44Z" transform="translate(-18.98 -7.94)"/></g><g id="steam"><path d="M68.89,96.19c.13-.41.28-.81.39-1.22a5.8,5.8,0,0,0,.17-.89,5.72,5.72,0,0,0-.31-3.1c-.35-.73-1.44-1.38-1.94-2-.66-.89-.76-1.79-1.47-2.64a5.46,5.46,0,0,1-.79-5.85,21.73,21.73,0,0,1,1.51-2.86,11.3,11.3,0,0,1,.82-1.13l0,.32c-.18.75-.34,1.5-.54,2.25a7.65,7.65,0,0,0,.06,4,6.29,6.29,0,0,0,.86,1.79c.63.92,1.36,1.77,2,2.65.38.5.78,1,1.12,1.53a3.68,3.68,0,0,1,.44,2.71,10.38,10.38,0,0,1-1.51,3.44c-.22.37-.48.7-.73,1Z" transform="translate(-18.98 -7.94)"/><path d="M74.35,69c-.38.83-.8,1.64-1.14,2.48-.28.66-.45,1.36-.69,2A7.65,7.65,0,0,0,72.36,78a14.75,14.75,0,0,0,1.13,2.84c.46,1,1.05,1.84,1.56,2.76a5.84,5.84,0,0,1,.89,4.15A9.76,9.76,0,0,1,75,90a17,17,0,0,1-2.45,3.11c-.21.26-.47.48-.7.72l-.09-.06a10.19,10.19,0,0,1,.62-1.29,6.42,6.42,0,0,0,.8-2.09,7.76,7.76,0,0,0-1.09-4.89c-.58-1.17-.6-2.33-1.29-3.44a9.41,9.41,0,0,1-1.53-4.4A7.3,7.3,0,0,1,70.79,73c.4-.57.76-1.15,1.2-1.68.59-.72,1.25-1.39,1.89-2.08.07-.08.14-.17.22-.25Z" transform="translate(-18.98 -7.94)"/></g><g id="stawberry"><path class="cls-4" d="M95.38,117.1A10.67,10.67,0,0,1,97,115.81c.38,0,.55-.36.88-.48a7.25,7.25,0,0,1,2.07-.17c.12.1.33.07.38.26a10.22,10.22,0,0,0,1.42,2.67c.18.28.1.41-.19.46-.46.08-.73.48-1.11.7s-.33.45,0,.62a10.8,10.8,0,0,0,2.24,1.09c.21.05.34.19.24.39a10.38,10.38,0,0,0-.41,2.65c-.07.35.18.51.48.33s.8-.3,1-.69.37-.22.47.06c.38,1.11.94,2.14,1.39,3.22-.09.18-.32.32-.22.57a5.91,5.91,0,0,1-4.65,2.55l-1.63-.23,0,0v0c-.06,0-.12-.12-.18-.12a24.44,24.44,0,0,0-3.83-.33,3.41,3.41,0,0,1-1.61-.22A3.85,3.85,0,0,1,92,124.05c.47-.85,1-1.68,1.44-2.55a6.94,6.94,0,0,0,.87-2.32l.1-.18c.27-.17.27-.43.29-.69v0a.25.25,0,0,0,.19-.28h0c.21-.06.14-.25.17-.4S95.4,117.35,95.38,117.1Zm5.4,5.17c.25-.11.5-.22.4-.55s-.21-.22-.39-.16a.6.6,0,0,0-.46.63C100.37,122.45,100.61,122.3,100.78,122.27Zm-1.71,5.89a.3.3,0,0,0,.16-.42.69.69,0,0,0-.71-.32.19.19,0,0,0-.19.29C98.48,128,98.81,128,99.07,128.16Zm-1.4-10.84c.14-.08.28-.19.2-.37s-.35-.21-.56-.13-.39.16-.26.38S97.45,117.31,97.67,117.32Zm-2.54,8.27c0,.19.18.22.33.17s.47-.14.43-.46a.21.21,0,0,0-.3-.18C95.37,125.21,95.14,125.32,95.13,125.59Zm2.31-6.39c.11.23.29.13.46.08a.4.4,0,0,0,.32-.5c0-.2-.25-.2-.4-.12S97.35,118.87,97.44,119.2Zm.08,4.73a.24.24,0,0,0-.34-.08c-.18.11-.45.19-.38.47s.2.16.35.13A.46.46,0,0,0,97.52,123.93Zm1.42-2.07c-.1-.13-.19-.3-.38-.21a.65.65,0,0,0-.38.56c0,.21.23.17.39.12S99,122.13,98.94,121.86Zm-5.31,3.48c.09.2.23.14.37.08s.36-.27.28-.51a.2.2,0,0,0-.31-.07C93.8,125,93.58,125.08,93.63,125.34Zm6.15-5c-.14-.21-.33-.19-.53-.12s-.4.12-.32.34.39.14.59.18S99.75,120.47,99.78,120.29Zm1.6,4c.06.1.09.22.26.16a.71.71,0,0,0,.39-.56c0-.12-.12-.2-.25-.14A.58.58,0,0,0,101.38,124.33Zm-4.13-3.12c0-.16-.15-.27-.3-.15a.6.6,0,0,0-.27.66c0,.15.16.16.28.11A.47.47,0,0,0,97.25,121.21Zm2.43,3.13a.4.4,0,0,0,.19-.47c0-.2-.2-.22-.37-.15s-.43.18-.37.4S99.52,124.22,99.68,124.34Zm-6-.71a.63.63,0,0,0,.35-.57c0-.14-.09-.24-.24-.19s-.33.31-.32.56S93.54,123.67,93.72,123.63Zm1.08,3.17c-.09.08-.37.07-.24.35s.3.15.47.12.29-.15.24-.35S95,126.73,94.8,126.8Zm5.44-8.65c.17-.06.27-.2.18-.32a.54.54,0,0,0-.62-.22c-.16,0-.25.15-.18.31S100,118.11,100.24,118.15Zm2.91,7.88c.12-.18.4-.29.38-.56s-.22-.29-.29-.22a1,1,0,0,0-.33.66A.17.17,0,0,0,103.15,126Zm-3.9,0c.23-.05.35-.14.26-.34s-.33-.16-.52-.12-.32.14-.22.34S99.1,126,99.25,126Zm2,.47c-.06-.18-.2-.24-.41-.18s-.37.09-.32.27a.41.41,0,0,0,.48.25C101.22,126.8,101.36,126.72,101.3,126.48Zm-5.88-5a.48.48,0,0,0,.26-.55.18.18,0,0,0-.28-.12.45.45,0,0,0-.26.55C95.18,121.45,95.28,121.49,95.42,121.43Zm6.77,8c.17,0,.22-.12.16-.26s-.24-.17-.4-.12-.23.12-.19.25S102.06,129.38,102.19,129.42Zm-6.26-9.67a.64.64,0,0,0,.28-.52c0-.12-.13-.17-.22-.13a.52.52,0,0,0-.32.46C95.66,119.68,95.73,119.79,95.93,119.75Zm5.06,8.7c.2,0,.26-.14.2-.31a.27.27,0,0,0-.38-.17c-.15,0-.3.1-.24.27A.35.35,0,0,0,101,128.45Zm-2.76.5c0-.08.1-.19.07-.26s-.31-.15-.47-.2-.14.14-.11.21S98,128.83,98.23,129Zm-2.63-5.5c0-.14.26-.24.2-.47a.12.12,0,0,0-.2,0c-.16.11-.36.2-.3.44C95.32,123.44,95.43,123.52,95.6,123.45Zm.56-6a.2.2,0,0,0-.3-.11.38.38,0,0,0-.19.45c0,.13.15.11.24.07A.38.38,0,0,0,96.16,117.49Zm6.46,10.37a.2.2,0,0,0,.31.09c.14-.07.32-.14.26-.35a.23.23,0,0,0-.29-.15C102.71,127.52,102.69,127.72,102.62,127.86ZM95,119.46a.31.31,0,0,0,.21-.38c0-.12-.1-.23-.25-.16a.36.36,0,0,0-.22.39C94.71,119.46,94.81,119.51,95,119.46Zm9.43,7.28c.19-.11.31-.25.21-.48s-.1-.18-.22-.11a.52.52,0,0,0-.21.52C104.18,126.8,104.29,126.79,104.39,126.74Zm-11.8-1.59a.43.43,0,0,0,.28-.49c0-.14-.13-.22-.25-.13a.39.39,0,0,0-.17.47C92.48,125.1,92.53,125.17,92.59,125.15Zm1,2.43c-.09-.16-.26-.14-.41-.1s-.24.13-.18.26.25.16.41.11S93.59,127.76,93.54,127.58ZM96,128c.27.11.33.37.6.25a.14.14,0,0,0,.07-.2C96.54,127.73,96.34,127.82,96,128Zm1.4-1.1c.08,0,.24-.07.19-.22s-.2-.12-.32-.08-.28,0-.24.2S97.22,126.86,97.38,126.85Zm-2.74,1.73c.1,0,.22-.08.16-.2s-.23-.13-.37-.09-.24.05-.2.18S94.49,128.59,94.64,128.58Zm-2.18-2.68c-.2.26-.14.45,0,.74A.83.83,0,0,0,92.46,125.9Z" transform="translate(-18.98 -7.94)"/><path class="cls-5" d="M106,126.92c-.45-1.08-1-2.11-1.39-3.22-.1-.28-.29-.35-.47-.06s-.7.47-1,.69-.55,0-.48-.33a10.38,10.38,0,0,1,.41-2.65c.1-.2,0-.34-.24-.39a10.8,10.8,0,0,1-2.24-1.09c-.38-.17-.36-.44,0-.62s.65-.62,1.11-.7c.29,0,.37-.18.19-.46a10.22,10.22,0,0,1-1.42-2.67c0-.19-.26-.16-.38-.26.22-.32,0-.56-.13-.83s-.21-.4,0-.56.43,0,.62.08a6.26,6.26,0,0,1,2.44,2.12.82.82,0,0,0,.22.19c.24-.21,0-.45.06-.68.17-.34,0-.76.22-1.09.59.37.74,1,1.13,1.49l.21.55a1.71,1.71,0,0,0,.25.83l.17.69c-.12.19,0,.34.07.49l0,.23c-.08.38-.09.66.45.38.35-.19.73-.34,1.1-.5.16-.08.37-.1.34-.35l1.17-.37c.07.18.23.2.4.18a.18.18,0,0,0,.07,0,.26.26,0,0,0,.18.2l.15.46a.25.25,0,0,0,0,.26.85.85,0,0,1-.9.48,5.11,5.11,0,0,0-2,.52c-.45.19-.12.35,0,.51a7.19,7.19,0,0,1,2.2,3.47c0,.13.07.27.1.4s0,.22-.09.25a.37.37,0,0,1-.2-.08l-1.34-.91a8.35,8.35,0,0,1,.27,3.81.35.35,0,0,0-.07.43c0,.09-.1.19-.23.19l-.12-.1-.28-.41C106.34,127.28,106.26,127,106,126.92Z" transform="translate(-18.98 -7.94)"/><path class="cls-6" d="M107.11,118.2c0,.25-.18.27-.34.35-.37.16-.75.31-1.1.5-.54.28-.53,0-.45-.38a1.47,1.47,0,0,0,1-.25A1,1,0,0,1,107.11,118.2Z" transform="translate(-18.98 -7.94)"/><path class="cls-6" d="M104.49,115.88c-.39-.47-.54-1.12-1.13-1.49-.23.33,0,.75-.22,1.09-.21-.33-.07-.69-.06-1a.28.28,0,0,1,.5-.21C103.92,114.76,104.56,115.14,104.49,115.88Z" transform="translate(-18.98 -7.94)"/><path class="cls-6" d="M106,126.92c.3.1.38.36.46.62l-.68-.05C105.64,127.24,105.87,127.1,106,126.92Z" transform="translate(-18.98 -7.94)"/><path class="cls-6" d="M105,117.26a1.71,1.71,0,0,1-.25-.83A.56.56,0,0,1,105,117.26Z" transform="translate(-18.98 -7.94)"/><path class="cls-6" d="M105.19,118.44c-.09-.15-.19-.3-.07-.49C105.33,118.09,105.39,118.24,105.19,118.44Z" transform="translate(-18.98 -7.94)"/><path class="cls-6" d="M108.68,118c-.17,0-.33,0-.4-.18C108.57,117.57,108.61,117.82,108.68,118Z" transform="translate(-18.98 -7.94)"/><path class="cls-6" d="M107.05,127.86a.35.35,0,0,1,.07-.43C107.21,127.59,107.27,127.75,107.05,127.86Z" transform="translate(-18.98 -7.94)"/><path class="cls-6" d="M109,119a.25.25,0,0,1,0-.26C109.28,118.83,109.19,118.91,109,119Z" transform="translate(-18.98 -7.94)"/><path class="cls-6" d="M108.93,118.26a.26.26,0,0,1-.18-.2C108.91,118,109,118.05,108.93,118.26Z" transform="translate(-18.98 -7.94)"/><path class="cls-6" d="M106.7,128l.12.1Z" transform="translate(-18.98 -7.94)"/><path class="cls-6" d="M100.78,122.27c-.17,0-.41.18-.45-.08a.6.6,0,0,1,.46-.63c.18-.06.34,0,.39.16S101,122.16,100.78,122.27Z" transform="translate(-18.98 -7.94)"/><path class="cls-5" d="M99.07,128.16c-.26-.13-.59-.15-.74-.45a.19.19,0,0,1,.19-.29.69.69,0,0,1,.71.32A.3.3,0,0,1,99.07,128.16Z" transform="translate(-18.98 -7.94)"/><path class="cls-6" d="M97.67,117.32c-.22,0-.49.11-.62-.12s.09-.32.26-.38.45-.15.56.13S97.81,117.24,97.67,117.32Z" transform="translate(-18.98 -7.94)"/><path class="cls-6" d="M95.13,125.59c0-.27.24-.38.46-.47a.21.21,0,0,1,.3.18c0,.32-.21.39-.43.46S95.17,125.78,95.13,125.59Z" transform="translate(-18.98 -7.94)"/><path class="cls-5" d="M97.44,119.2c-.09-.33.18-.42.38-.54s.36-.08.4.12a.4.4,0,0,1-.32.5C97.73,119.33,97.55,119.43,97.44,119.2Z" transform="translate(-18.98 -7.94)"/><path class="cls-6" d="M97.52,123.93a.46.46,0,0,1-.37.52c-.15,0-.31,0-.35-.13s.2-.36.38-.47A.24.24,0,0,1,97.52,123.93Z" transform="translate(-18.98 -7.94)"/><path class="cls-5" d="M98.94,121.86c0,.27-.14.4-.37.47s-.38.09-.39-.12a.65.65,0,0,1,.38-.56C98.75,121.56,98.84,121.73,98.94,121.86Z" transform="translate(-18.98 -7.94)"/><path class="cls-6" d="M93.63,125.34c0-.26.17-.37.34-.5a.2.2,0,0,1,.31.07c.08.24,0,.41-.28.51S93.72,125.54,93.63,125.34Z" transform="translate(-18.98 -7.94)"/><path class="cls-5" d="M99.78,120.29c0,.18-.12.43-.26.4s-.5.06-.59-.18.15-.29.32-.34S99.64,120.08,99.78,120.29Z" transform="translate(-18.98 -7.94)"/><path class="cls-6" d="M101.38,124.33a.58.58,0,0,1,.4-.54c.13-.06.28,0,.25.14a.71.71,0,0,1-.39.56C101.47,124.55,101.44,124.43,101.38,124.33Z" transform="translate(-18.98 -7.94)"/><path class="cls-5" d="M97.25,121.21a.47.47,0,0,1-.29.62c-.12,0-.24,0-.28-.11a.6.6,0,0,1,.27-.66C97.1,120.94,97.2,121.05,97.25,121.21Z" transform="translate(-18.98 -7.94)"/><path class="cls-5" d="M99.68,124.34c-.16-.12-.48,0-.55-.22s.18-.32.37-.4.33,0,.37.15A.4.4,0,0,1,99.68,124.34Z" transform="translate(-18.98 -7.94)"/><path class="cls-6" d="M93.72,123.63c-.18,0-.2-.08-.21-.2s0-.48.32-.56.23,0,.24.19A.63.63,0,0,1,93.72,123.63Z" transform="translate(-18.98 -7.94)"/><path class="cls-6" d="M94.8,126.8c.21-.07.4-.14.47.12s-.06.31-.24.35-.37.11-.47-.12S94.71,126.88,94.8,126.8Z" transform="translate(-18.98 -7.94)"/><path class="cls-5" d="M100.24,118.15c-.22,0-.5,0-.62-.23s0-.26.18-.31a.54.54,0,0,1,.62.22C100.51,118,100.41,118.09,100.24,118.15Z" transform="translate(-18.98 -7.94)"/><path class="cls-6" d="M103.15,126a.17.17,0,0,1-.24-.12,1,1,0,0,1,.33-.66c.07-.07.28.1.29.22S103.27,125.85,103.15,126Z" transform="translate(-18.98 -7.94)"/><path class="cls-6" d="M99.25,126c-.15,0-.37.1-.48-.12s.06-.3.22-.34.41-.12.52.12S99.48,126,99.25,126Z" transform="translate(-18.98 -7.94)"/><path class="cls-5" d="M101.3,126.48c.06.24-.08.32-.25.34a.41.41,0,0,1-.48-.25c0-.18.17-.23.32-.27S101.24,126.3,101.3,126.48Z" transform="translate(-18.98 -7.94)"/><path class="cls-5" d="M95.42,121.43c-.14.06-.24,0-.28-.12a.45.45,0,0,1,.26-.55.18.18,0,0,1,.28.12A.48.48,0,0,1,95.42,121.43Z" transform="translate(-18.98 -7.94)"/><path class="cls-6" d="M102.19,129.42c-.13,0-.35.12-.43-.13s.06-.22.19-.25.32-.07.4.12S102.36,129.38,102.19,129.42Z" transform="translate(-18.98 -7.94)"/><path class="cls-5" d="M95.93,119.75c-.2,0-.27-.07-.26-.19a.52.52,0,0,1,.32-.46c.09,0,.23,0,.22.13A.64.64,0,0,1,95.93,119.75Z" transform="translate(-18.98 -7.94)"/><path class="cls-5" d="M101,128.45a.35.35,0,0,1-.42-.21c-.06-.17.09-.24.24-.27a.27.27,0,0,1,.38.17C101.25,128.31,101.19,128.41,101,128.45Z" transform="translate(-18.98 -7.94)"/><path class="cls-6" d="M98.23,129c-.21-.12-.43-.08-.51-.25s0-.26.11-.21.39,0,.47.2S98.25,128.87,98.23,129Z" transform="translate(-18.98 -7.94)"/><path class="cls-6" d="M95.6,123.45c-.17.07-.28,0-.3-.08-.06-.24.14-.33.3-.44a.12.12,0,0,1,.2,0C95.86,123.21,95.62,123.31,95.6,123.45Z" transform="translate(-18.98 -7.94)"/><path class="cls-5" d="M96.16,117.49a.38.38,0,0,1-.25.41c-.09,0-.23.06-.24-.07a.38.38,0,0,1,.19-.45A.2.2,0,0,1,96.16,117.49Z" transform="translate(-18.98 -7.94)"/><path class="cls-5" d="M102.62,127.86c.07-.14.09-.34.28-.41a.23.23,0,0,1,.29.15c.06.21-.12.28-.26.35A.2.2,0,0,1,102.62,127.86Z" transform="translate(-18.98 -7.94)"/><path class="cls-5" d="M95,119.46c-.15.05-.25,0-.26-.15a.36.36,0,0,1,.22-.39c.15-.07.22,0,.25.16A.31.31,0,0,1,95,119.46Z" transform="translate(-18.98 -7.94)"/><path class="cls-5" d="M104.39,126.74c-.1.05-.21.06-.22-.07a.52.52,0,0,1,.21-.52c.12-.07.18,0,.22.11S104.58,126.63,104.39,126.74Z" transform="translate(-18.98 -7.94)"/><path class="cls-5" d="M92.59,125.15c-.06,0-.11-.05-.14-.15a.39.39,0,0,1,.17-.47c.12-.09.24,0,.25.13A.43.43,0,0,1,92.59,125.15Z" transform="translate(-18.98 -7.94)"/><path class="cls-5" d="M93.54,127.58c0,.18-.05.24-.18.27s-.33.08-.41-.11,0-.22.18-.26S93.45,127.42,93.54,127.58Z" transform="translate(-18.98 -7.94)"/><path class="cls-6" d="M96,128c.36-.13.56-.22.67,0a.14.14,0,0,1-.07.2C96.31,128.32,96.25,128.06,96,128Z" transform="translate(-18.98 -7.94)"/><path class="cls-6" d="M97.38,126.85c-.16,0-.33.07-.37-.1s.14-.16.24-.2.27,0,.32.08S97.46,126.8,97.38,126.85Z" transform="translate(-18.98 -7.94)"/><path class="cls-6" d="M92.46,125.9a.83.83,0,0,1,0,.74C92.32,126.35,92.26,126.16,92.46,125.9Z" transform="translate(-18.98 -7.94)"/><path class="cls-6" d="M94.39,119c-.1-.31-.13-.59.29-.69C94.66,118.57,94.66,118.83,94.39,119Z" transform="translate(-18.98 -7.94)"/><path class="cls-6" d="M94.88,118a.26.26,0,0,1,.17-.4C95,117.76,95.09,118,94.88,118Z" transform="translate(-18.98 -7.94)"/><path class="cls-6" d="M94.69,118.29c0-.15,0-.25.19-.28A.25.25,0,0,1,94.69,118.29Z" transform="translate(-18.98 -7.94)"/><path class="cls-7" d="M99.46,129.81a.75.75,0,0,1-1.22.68c-.2-.23-.73-.29-.59-.62s.51.07.8,0,.68.09,1-.11v0Z" transform="translate(-18.98 -7.94)"/></g></svg>