<svg xmlns="http://www.w3.org/2000/svg" viewBox="0 0 841 553"><defs><style>.cls-1{fill:#f4ac30;stroke-miterlimit:10;stroke:#000;stroke-width:4px;}.cls-2{fill:none;stroke:#000;stroke-width:4px;stroke-linecap:round; stroke-linejoin:round;stroke-dasharray: 3300; stroke-dashoffset: 3300;}</style></defs><g id="light"><path class="cls-1" d="M485.49,291.44h139.2c11.08,0-2.51,57.09,8.62,56.38,18.48-1.17,37,0,56.66,0,28.26,0,13.55,105.72,39.42,105.72H791c28.55,0,6.78-102.16,32-103.37,24.63-1.17,31.8-2.35,62.82-2.35,27.1,0,49.27,391.15,4.93,394.67-19.68,1.56-33.26,1.17-56.67,1.17-28.14,0-22.17-101-41.88-102.19-15.21-.9-32-2.34-61.59,0-29.13,2.32-13.92,104.33-43.11,105.72-73.91,3.52-245.13,3.52-327.66,1.17-36.89-1.05-80.07-106.89-96.08-106.89H173.85V505.22H109.79V625H79V363.09h30.79V474.68h64.06V343.13h89.92c8.62,0-2.72-50.95,11.09-51.69,22.17-1.17,167.52,0,167.52,0v-64.6H278.55V201H614.83v25.84H485.49Z" transform="translate(-77 -199)"/></g><g id="circuit"><path id="circPath" class="cls-2" d="M400.51,675.12a180.37,180.37,0,0,1-51.3-42,174.44,174.44,0,0,1-21.41-31.91c-11.48-22.17-17.67-46.27-19.44-71.9a151.52,151.52,0,0,1,6.48-55.31c10-32.32,27.08-60.49,53.06-83.6A207.58,207.58,0,0,1,394,371.29l-.52,46.91A12,12,0,0,0,393,442v48l-30.6.16L362,559h70V527h41V651h33V631h23v27h33V642.24q0-13,0-25.94c0-8.41.26-16.83-.07-25.23-.2-5.12.1-10.21.3-15.32L619,576V547l7.18-.12c9.66,0,14-4,15.18-13.3a94.13,94.13,0,0,0,0-24.53c-1-7.56-5.91-12.27-13.7-12.56s-15.39-.3-23.07,0c-8.11.31-12.59,4.69-13.71,12.55a95.48,95.48,0,0,0,0,25.94c1.07,8.18,2.59,12,11.15,12h9v22H562V498H529V624H506l.47-58.87L506,497c-8.42,0-25.22,0-33,0v23H433l-.08-29.34S412,490,398,490V442a12,12,0,0,0,0-24l.59-49.61c22-12.53,46.3-20.05,72.56-23.27,23.42-2.86,46.6-.06,69.2,6.26,37.35,10.45,67.61,31.43,92.19,60.33,2.83,3.61,2.83,3.16,5.14,8.11l-114.24-.45c-2.83-10.31-4.87-13.15-13.19-21.25-15.46-15-48.22-13.07-60.94,9.17C436,432,449.65,459.73,477,465.22c19.1,3.83,40.85-7.85,46-31.9a18.84,18.84,0,0,1,2.24-6.29h.72c33.9,0,68.25,0,102.15,0,0,0,9.27,0,12.37,0,5.08,0,5.72,5,8,9.15,20.75,37.54,27.47,77.15,18.84,119.16-8.91,43.42-31.07,78.85-67.15,105.79A184,184,0,0,1,542,690.72a181.81,181.81,0,0,1-21.43,4.9,183.92,183.92,0,0,1-48.72,1.52,207.33,207.33,0,0,1-71.33-22Z" transform="translate(-77 -199)"/></g></svg>
