<svg id="e6ffbb02-68a2-41d9-b044-ff02b44ef4e7" xmlns="http://www.w3.org/2000/svg" xmlns:xlink="http://www.w3.org/1999/xlink" viewBox="0 0 1900 335.63"><defs><style>.cls-1{fill:url(#radial-gradient);}</style><radialGradient id="radial-gradient" cx="950" cy="217.65" r="694.62" gradientTransform="matrix(1, 0, 0, -0.67, 0, 313.92)" gradientUnits="userSpaceOnUse"><stop offset="0" stop-color="#fff"/><stop offset="0.21" stop-color="#fdfdfd"/><stop offset="0.32" stop-color="#f5f5f5"/><stop offset="0.41" stop-color="#e8e7e7"/><stop offset="0.48" stop-color="#d5d4d4"/><stop offset="0.55" stop-color="#bdbbbc"/><stop offset="0.61" stop-color="#9f9d9d"/><stop offset="0.67" stop-color="#7b7879"/><stop offset="0.72" stop-color="#534f50"/><stop offset="0.76" stop-color="#2a2627"/><stop offset="0.86"/></radialGradient></defs><title>final-banner1</title><rect class="cls-1" width="1900" height="335.63"/><g id="adeed555-b29e-4c76-b60e-a38e26065e09"><path d="M884.14,122.8a53.81,53.81,0,0,0,15.45-16.86c1.14-2,1.17-3.58-.17-5.22-3.9-4.75-7.86-9.46-12-14.41a46.14,46.14,0,0,1-16.17,16,.61.61,0,0,1,.19-.54,30.16,30.16,0,0,1,2.68-2.23,43,43,0,0,0,12-12.7c.24-.36.43-1,.25-1.33a36.29,36.29,0,0,0-2.35-2.9c-4.7,6.67-9.46,12.48-16.27,16.19a3.58,3.58,0,0,1,1.18-1.38c5.78-3.87,10-9.18,14.05-14.72a1.13,1.13,0,0,0,0-1.6l-.11-.1c-3.1-3.4-6.22-6.78-9.26-10.24-1.87-2.14-3-2.79-6.27-1.08-7.81,4.12-15.31,8.68-21.32,15.37-3.69,4.11-7.35,8.18-9.36,13.45a2.17,2.17,0,0,0,.4,2.59c3.53,3.77,7.08,7.5,10.56,11.31,5,5.49,10,11,14.92,16.58,2.19,2.52,4.57,3.51,7.75,2.37a12.83,12.83,0,0,0,2.67-1C876.72,127.85,880.49,125.41,884.14,122.8Zm-42-26.89c.51-6.88,20.19-22.68,27.25-21.84a11.94,11.94,0,0,1-.82,1.38c-4,5.2-9.17,9.1-14.16,13.23a40.52,40.52,0,0,1-11.28,7,7.29,7.29,0,0,1-1,.23Zm24.3,25.82a6.08,6.08,0,0,1-1.85.89c-.47-.26-1-.37-1.19-.69-3.41-5.17-8.3-9-12.45-13.43a37.89,37.89,0,0,1-3.07-3.74c-.36-.5-.7-1.53-.45-1.85.65-.81,2.32-.44,3,.37,2.6,2.94,5.21,5.89,7.87,8.78,2.09,2.27,4.25,4.46,6.37,6.7a8.63,8.63,0,0,1,1.11,1.44c.28.45.77,1.39.62,1.53Z"/><path d="M1058.59,93.52a59,59,0,0,0-21.86-20.33,26.56,26.56,0,0,0-9.65-3.35,7.75,7.75,0,0,0-1.42,1.13c-4.6,5.57-9.16,11.18-13.76,16.75-3.55,4.28-7.07,8.58-10.76,12.73-1.93,2.17-1.74,4.24-.51,6.5a21.1,21.1,0,0,0,1.6,2.56,69.4,69.4,0,0,0,15.65,15.14c4,2.76,8.23,5.07,12.39,7.53a2.72,2.72,0,0,0,3.37-.36,32.06,32.06,0,0,0,2.79-2.55c2.59-2.91,5.07-5.91,7.67-8.8,5.74-6.39,11.53-12.74,17.26-19.13a1.68,1.68,0,0,0,.34-1.45A49.33,49.33,0,0,0,1058.59,93.52Zm-43.48,1.18c-1.15,1.26-2.25,2.58-3.3,3.93-1.18,1.53-1.78,1.67-3.65.67,1.19-3.37,16-19,19.48-20.41a5.15,5.15,0,0,1-.35,1.6,22.67,22.67,0,0,1-2.46,3.6c-3.19,3.56-6.49,7.06-9.72,10.61Zm19.27,10a31.08,31.08,0,0,1-9.27-8.19l.29-.33,9.31,8.18Zm-5.12-13.24,10.38,8.65c-3.06-.4-9.64-5.94-10.38-8.62ZM1055.84,97a93,93,0,0,1-27.18-23.26c7.74-.56,27.84,16.61,27.18,23.29Z"/><path d="M974.05,176.28a26.23,26.23,0,0,1-7.12-8,20,20,0,0,0-2.48-3.24,3.37,3.37,0,0,0-3.85-1,9.42,9.42,0,0,1-6.37.21c-1.81-.62-3.74-.88-5.58-1.41-1-.3-1.23.15-1.32,1a1.55,1.55,0,0,0,1.2,1.82l.15,0c1.52.36,3,.8,4.51,1.31,5.32,2,10,4.88,13.27,9.66,5,7.46,5.57,15.45,2.42,23.79-4,10.45-16.34,17.74-27.32,14.52a25,25,0,0,1-15.26-11.63c-2.56-4.4-3.27-9.27-3.27-14.28,0-1.07.08-2-1.51-2s-1.39,1.08-1.37,2.05c0,1.92.07,3.84.16,5.76.06,1.17-.42,1.68-1.59,1.65s-2.31,0-3.57,0a6,6,0,0,1-.1.87c-.27,4,2,6.77,4.65,9.44s5.14,5.56,7.7,8.35c1.63,1.79,3.31,3.55,4.88,5.4a2.35,2.35,0,0,0,3,.6c.51-.24.85-1.14,1-1.8.7-2.88.62-2.68,3.63-2a34.18,34.18,0,0,0,9,1.14,25.89,25.89,0,0,0,10.94-3.33,26.29,26.29,0,0,0,12.09-12.48c2.08-4.6,2.29-9.36,2-14.23-.16-3.16-.17-3.22,3-3.44,1.23-.08,1.44-.63,1.22-1.65A11.16,11.16,0,0,0,974.05,176.28Z"/><path d="M935.33,204.86c4.54,4.19,9.91,5.7,15.85,4.08,7.81-2.14,13.41-9.69,13.71-18.88a20.34,20.34,0,0,0-5.69-12.79c-3.74-3.78-8.28-6-13.61-5.44-5.82.56-10.33,3.8-13.53,8.55C927.3,187.46,928.24,198.32,935.33,204.86Zm-1.57-21.21c.68-1.78,1.66-2.47,3.49-2.25a22.21,22.21,0,0,0,2.58,0c7.22-.41,12.32,2.82,15.38,9.26a16.66,16.66,0,0,1,.75,11.26c-.52,2.2-2.48,3.24-4.51,3.9-6.14,2-11.08-.22-15.12-4.69C931.64,196,931.29,190,933.76,183.65Z"/><path d="M921.63,176.06c.13-.12.27-.23.41-.34a40.35,40.35,0,0,0-2.8-5.12c-3.5-4.7-7.14-9.3-10.77-13.9a67.18,67.18,0,0,0-34.77-23.46c-2.3-.66-1.65,1.18-2.07,2-.58,1.12.48,1.26,1.27,1.49a62.32,62.32,0,0,1,6.93,2.14A66.66,66.66,0,0,1,907.23,160c3.06,4,6.19,7.85,9.3,11.77A13.69,13.69,0,0,0,921.63,176.06Z"/><path d="M898.73,111c.44,2,.78,4.06,1.31,6.06a45,45,0,0,0,8,16.15c7.38,9.55,15,19,22.45,28.42,1.63,2.06,1.65,2,4.25.58-1.33-1.66-2.58-3.23-3.82-4.8-6.7-8.42-13.49-16.78-20-25.31a39.53,39.53,0,0,1-7.16-13.74c-1-3.6-1.88-7.21-2.83-10.82a8.56,8.56,0,0,0-.55-1.19C899.06,107.89,898.36,109.29,898.73,111Z"/><path d="M970.44,163.24a32.75,32.75,0,0,1,4-4.56c6-5.82,10.66-12.65,15.32-19.47,6-8.8,8-19,9.69-29.25a16.29,16.29,0,0,0,0-2.42c-2,1.25-2.47,1.66-2.94,3.51-.78,3-1.52,6.06-2.13,9.12a52,52,0,0,1-8.06,19.08,168,168,0,0,1-14.78,18.24c-1.81,2-3.33,4.26-5.17,6.65C968.35,164.71,969.45,164.65,970.44,163.24Z"/><path d="M1022.49,132.29a64.9,64.9,0,0,0-23.12,18c-3.69,4.62-7.46,9.18-11.14,13.81-2.17,2.72-4.31,5.47-6.29,8.33a20.76,20.76,0,0,0-1.65,3.88c2.88-1,4.7-3,6.4-5.15,5.87-7.38,11.61-14.88,17.72-22.06a46.75,46.75,0,0,1,17.64-13.26c1.74-.72,3.53-1.34,5.42-2.06C1025.48,131,1025.21,131,1022.49,132.29Z"/><path d="M927.8,161.74c-4.58-5.33-9.3-10.54-13.91-15.83-5-5.76-9.85-11.67-13.37-18.51-1-2-1.88-4-2.81-6-1.91.87-2.13,1.11-1.83,2a42.37,42.37,0,0,0,7.45,14.25q7.88,9.42,15.91,18.69c2.35,2.71,4.81,5.33,7.33,7.88a25.14,25.14,0,0,0,3.53,2.52l.55-.54A36.61,36.61,0,0,0,927.8,161.74Z"/><path d="M995.56,152.58c.34-.45.69-.86,1-1.3A57.45,57.45,0,0,1,1015,133c1.56-1,1.75-2.11,1.32-3.83a5.23,5.23,0,0,0-.84.37c-3.66,2.62-7.39,5.14-10.93,7.91-3.84,3-6.4,7.12-9.29,11C993.83,150.19,993.83,150.65,995.56,152.58Z"/><path d="M868.53,75.45a11.94,11.94,0,0,0,.82-1.38"/><path d="M842.1,95.91a8.56,8.56,0,0,0,1-.24"/></g></svg>