<svg id="Layer_1" data-name="Layer 1" xmlns="http://www.w3.org/2000/svg" viewBox="0 0 616.5 126.9"><defs><style>.cls-1{fill:#fdfefe;}.cls-2{fill:#1dab8f;}.cls-3{fill:#1eab90;}.cls-4{fill:#1caa8f;}.cls-5{fill:#1daa8f;}.cls-6{fill:#1fab90;}.cls-7{fill:#20ac90;}.cls-8{fill:#fdfdfd;}.cls-9{fill:#fcfdfd;}.cls-10{fill:#fdfefd;}.cls-11{fill:#fbfdfd;}</style></defs><title>Genopay</title><path class="cls-1" d="M616.66,9c1.54,0,1.84.3,1.84,1.84q-.07,61.5,0,123c0,1.68-.38,2.06-2.07,2q-307.18-.06-614.39,0,0-62.5,0-125C2,9.26,2.3,9,3.84,9M184.55,81.72c0,3.12.14,5.59,0,8-.43,6.53-3.49,11.4-9.75,13.75-6.73,2.52-13.22,1.4-19.46-1.89-1.47-.77-2.76-2.94-4.24-2.27-1.3.58-1.82,2.77-2.81,4.17-.86,1.23-.73,1.92.58,2.82a33.09,33.09,0,0,0,18.07,6c13.34.38,25.78-6.27,26.43-22.47.6-15.21.13-30.46.18-45.69,0-1.2-.44-1.56-1.58-1.52a48.46,48.46,0,0,1-5.39,0c-1.53-.1-2.14.32-2,2,.14,2.25,0,4.51,0,7.28-7.88-12.43-27.16-12.26-35.28-1-6.24,8.66-6.48,18.24-2.38,27.86,5.28,12.37,21.62,16.58,32.42,8.56A25.57,25.57,0,0,0,184.55,81.72ZM230.49,72h15.06c6.21,0,6.21,0,5.64-6.31-1.1-12.2-9.31-21.21-20.92-23C217.84,40.84,207,47,202.36,58.52c-4.71,11.76-1,25.14,9.15,32.09,6.22,4.27,13.29,5.19,20.63,4.21,4.64-.63,9.07-1.94,12.74-5.07,3.3-2.81,3.3-2.81.56-6-.58-.68-1.18-1.35-1.72-2.06s-1-.75-1.74-.07c-5.28,4.93-11.6,6.2-18.55,5a17,17,0,0,1-13.38-12.68c-.37-1.62.09-1.89,1.56-1.87C217.91,72,224.2,72,230.49,72ZM408.71,88.21c0,1.89.05,3.38,0,4.86-.06,1.14.31,1.6,1.51,1.54q2.93-.14,5.84,0c1.2.06,1.52-.37,1.52-1.53-.06-10.67.08-21.35-.14-32-.17-8.56-4.68-14.55-12.45-17.35a27.85,27.85,0,0,0-12-1.11c-5.1.44-10.07,1.41-14.6,4-4,2.25-4,2.25-1.87,6.17a16,16,0,0,1,.94,1.78c.53,1.34,1.08,1.57,2.39.63a24.87,24.87,0,0,1,17.21-4.46c7,.6,11.19,5.47,11,12.51,0,1.34-.36,1.81-1.76,1.78-4.12-.09-8.24,0-12.36,0a33.46,33.46,0,0,0-11.08,1.36c-5.57,1.93-9.14,5.68-9.89,11.58a13.89,13.89,0,0,0,7.45,14.58C389.57,97.42,400.66,95.86,408.71,88.21ZM341,95.11c15.45-.22,26.5-11.23,26.38-26.28-.13-15.77-11.33-26.47-27.5-26.3-14.8.17-25.89,11.61-25.7,26.52C314.41,84.37,325.68,95.32,341,95.11Zm-73-44.9a.76.76,0,0,1-.54-.85c-.18-2.06.92-4.81-.45-6s-4.16-.17-6.31-.41c-1.78-.19-2.06.57-2.06,2.16q.09,23.73,0,47.48c0,1.77.59,2.15,2.18,2a26.46,26.46,0,0,1,4.71,0c1.82.18,2.41-.34,2.38-2.27-.12-8.51-.22-17,0-25.53.29-13.39,11.59-17.93,21.26-15.26,5.61,1.55,8.76,6.65,8.77,13.15q0,14,0,28c0,1.37.23,2,1.81,1.91,2-.14,4-.07,6.06,0,1,0,1.48-.25,1.46-1.37-.18-10.89.51-21.81-.38-32.68-.61-7.42-4.25-13.06-11.26-16.29-4.47-2.06-9.12-2.15-13.84-1.43C276.23,43.65,271.42,45.84,268,50.21Zm165.25,5.22c0-3.62-.11-6.59,0-9.55.08-1.75-.42-2.29-2.22-2.26s-2.46.27-2.45,2.28q.11,32.7,0,65.41c0,2.07.79,2.22,2.47,2.23s2.52-.19,2.48-2.25c-.12-8.36-.06-16.73,0-25.09,0-.73-.26-1.56.39-2.3.31.42.54.72.74,1,8.38,12.7,26.78,12.83,36.4,3.4,6.31-6.19,8.21-13.8,7.58-22.31A24,24,0,0,0,458.55,43.8C447.92,42.06,439.41,45.59,433.23,55.43Zm89,30.33c0,2.69.17,4.78,0,6.83s.92,2,2.38,2,2.39-.05,2.37-2.06c-.1-10.37.08-20.75,0-31.12-.1-7.83-3.38-13.79-11-16.85-3.66-1.48-7.47-1.41-11.28-1.07a30.75,30.75,0,0,0-16.14,6.1c-1.93,1.45.08,2.23.5,3.26.51,1.27,1.23.84,2.06.21,4.86-3.74,10.46-5.29,16.52-5.54,6.79-.28,12.33,3.58,14,9.86a29.21,29.21,0,0,1,.59,6.67c0,1.55-.42,2.07-2,2q-7.18-.14-14.38,0c-4.11.07-8.25.16-12.08,2A12.74,12.74,0,0,0,486,79.59a13,13,0,0,0,6.18,12.34C499.7,96.91,515.51,96.48,522.24,85.76ZM531.33,44c.41.92.76,1.74,1.12,2.55,6.07,13.62,11.84,27.39,18.36,40.79,2.55,5.25,2.9,9.67-.22,14.45,0,.07-.05.15-.08.21-3.83,8-11.63,9.93-18.76,4.58-.34-.26-.8-.92-1.06-.64a14.22,14.22,0,0,0-2.05,2.88c-.48.91.47,1.33,1,1.74a16.15,16.15,0,0,0,13.57,3c6.09-1.21,9.6-5.49,12-10.8,6.49-14.42,12.9-28.87,19.34-43.3,2.13-4.77,4.28-9.52,6.38-14.3.19-.43.92-1,0-1.46a4.3,4.3,0,0,0-5.16,2q-5.43,12.27-10.86,24.54c-2.73,6.16-5.47,12.32-8.23,18.53a3.28,3.28,0,0,1-1.17-1.82Q546.72,67.19,538,47.46c-1.79-4.05-1.77-4.06-6.23-3.71C531.68,43.75,531.62,43.81,531.33,44ZM27.94,98.67c.4,10.41,8.72,18.55,18.61,18.18,10.75-.4,18.85-8.8,18.41-19.08A18.62,18.62,0,0,0,46,79.89C35.75,80.24,27.57,88.76,27.94,98.67ZM89.73,38C80,37.12,71.11,44.78,70.17,54.9c-.91,9.89,6.77,19,16.83,19.92a18.67,18.67,0,0,0,20.16-17.08C108.06,47.67,100.3,38.86,89.73,38Zm-.29,78.75A18.27,18.27,0,0,0,107,97.77C106.3,87,97.44,79.08,87.36,79.93,76.91,80.81,69.23,89.52,70,99.58S79.72,117.53,89.44,116.71Z" transform="translate(-2 -8.95)"/><path class="cls-2" d="M184.55,81.72a25.57,25.57,0,0,1-5.23,5.59c-10.8,8-27.14,3.81-32.42-8.56-4.1-9.62-3.86-19.2,2.38-27.86,8.12-11.28,27.4-11.45,35.28,1,0-2.77.1-5,0-7.28-.1-1.63.51-2.05,2-2a48.46,48.46,0,0,0,5.39,0c1.14,0,1.58.32,1.58,1.52-.05,15.23.42,30.48-.18,45.69-.65,16.2-13.09,22.85-26.43,22.47a33.09,33.09,0,0,1-18.07-6c-1.31-.9-1.44-1.59-.58-2.82,1-1.4,1.51-3.59,2.81-4.17,1.48-.67,2.77,1.5,4.24,2.27,6.24,3.29,12.73,4.41,19.46,1.89,6.26-2.35,9.32-7.22,9.75-13.75C184.69,87.31,184.55,84.84,184.55,81.72Zm-15.8,2.18c9.36-.13,15.91-7.26,15.81-17.21s-6.89-17-16.18-16.91S152.49,57.4,152.64,67.4C152.78,76.93,159.7,84,168.75,83.9Z" transform="translate(-2 -8.95)"/><path class="cls-3" d="M230.49,72c-6.29,0-12.58,0-18.88,0-1.47,0-1.93.25-1.56,1.87a17,17,0,0,0,13.38,12.68c6.95,1.25,13.27,0,18.55-5,.73-.68,1.16-.71,1.74.07s1.14,1.38,1.72,2.06c2.74,3.23,2.74,3.23-.56,6-3.67,3.13-8.1,4.44-12.74,5.07-7.34,1-14.41.06-20.63-4.21-10.13-7-13.86-20.33-9.15-32.09C207,47,217.84,40.84,230.27,42.73c11.61,1.75,19.82,10.76,20.92,23,.57,6.31.57,6.31-5.64,6.31ZM226,65.08h13.91c2.79,0,2.83-.06,2.1-2.69A16.44,16.44,0,0,0,225.82,50.3a16.19,16.19,0,0,0-15.77,12.77c-.39,1.59-.17,2.08,1.55,2C216.38,65,221.17,65.08,226,65.08Z" transform="translate(-2 -8.95)"/><path class="cls-4" d="M408.71,88.21c-8,7.65-19.14,9.21-28.23,4.25A13.89,13.89,0,0,1,373,77.88c.75-5.9,4.32-9.65,9.89-11.58A33.46,33.46,0,0,1,394,64.94c4.12,0,8.24-.06,12.36,0,1.4,0,1.73-.44,1.76-1.78.15-7-4-11.91-11-12.51a24.87,24.87,0,0,0-17.21,4.46c-1.31.94-1.86.71-2.39-.63a16,16,0,0,0-.94-1.78c-2.12-3.92-2.12-3.92,1.87-6.17,4.53-2.55,9.5-3.52,14.6-4a27.85,27.85,0,0,1,12,1.11c7.77,2.8,12.28,8.79,12.45,17.35.22,10.67.08,21.35.14,32,0,1.16-.32,1.59-1.52,1.53q-2.91-.14-5.84,0c-1.2.06-1.57-.4-1.51-1.54C408.76,91.59,408.71,90.1,408.71,88.21Zm-.35-12.74a7,7,0,0,1,0-1.12c.36-2.09-.35-2.84-2.61-2.74-4.63.2-9.27.08-13.91.12a12.13,12.13,0,0,0-6,1.57,7.37,7.37,0,0,0-.09,12.61c3.23,2,6.77,2.26,10.39,1.93C402.39,87.27,409.36,81.75,408.36,75.47Z" transform="translate(-2 -8.95)"/><path class="cls-5" d="M341,95.11c-15.35.21-26.62-10.74-26.82-26.06-.19-14.91,10.9-26.35,25.7-26.52,16.17-.17,27.37,10.53,27.5,26.3C367.53,83.88,356.48,94.89,341,95.11ZM340.6,87c9.78.25,17.13-7.17,17.46-17.65S351.35,51,341.62,50.69c-10.34-.27-17.73,6.9-18,17.5S330.45,86.71,340.6,87Z" transform="translate(-2 -8.95)"/><path class="cls-4" d="M268,50.21c3.44-4.37,8.25-6.56,13.71-7.38,4.72-.72,9.37-.63,13.84,1.43,7,3.23,10.65,8.87,11.26,16.29.89,10.87.2,21.79.38,32.68,0,1.12-.43,1.4-1.46,1.37-2,0-4-.12-6.06,0-1.58.11-1.82-.54-1.81-1.91q.09-14,0-28c0-6.5-3.16-11.6-8.77-13.15-9.67-2.67-21,1.87-21.26,15.26-.18,8.51-.08,17,0,25.53,0,1.93-.56,2.45-2.38,2.27a26.46,26.46,0,0,0-4.71,0c-1.59.12-2.19-.26-2.18-2q.12-23.75,0-47.48c0-1.59.28-2.35,2.06-2.16,2.15.24,4.88-.84,6.31.41s.27,3.94.45,6A.76.76,0,0,0,268,50.21Z" transform="translate(-2 -8.95)"/><path class="cls-6" d="M433.23,55.43c6.18-9.84,14.69-13.37,25.32-11.63A24,24,0,0,1,478.61,66c.63,8.51-1.27,16.12-7.58,22.31-9.62,9.43-28,9.3-36.4-3.4-.2-.31-.43-.61-.74-1-.65.74-.39,1.57-.39,2.3,0,8.36-.08,16.73,0,25.09,0,2.06-.78,2.25-2.48,2.25s-2.48-.16-2.47-2.23q.14-32.7,0-65.41c0-2,.72-2.26,2.45-2.28s2.3.51,2.22,2.26C433.12,48.84,433.23,51.81,433.23,55.43Zm20.48-7.51c-11.73,0-20.15,8.88-20.19,21.32s8.34,21.3,20.4,21.31c11.57,0,20.12-9,20.17-21.18C474.13,57,465.55,47.93,453.71,47.92Z" transform="translate(-2 -8.95)"/><path class="cls-6" d="M522.24,85.76c-6.73,10.72-22.54,11.15-30,6.17A13,13,0,0,1,486,79.59,12.74,12.74,0,0,1,493.7,68.1c3.83-1.83,8-1.92,12.08-2q7.2-.12,14.38,0c1.6,0,2.06-.49,2-2a29.21,29.21,0,0,0-.59-6.67c-1.68-6.28-7.22-10.14-14-9.86-6.06.25-11.66,1.8-16.52,5.54-.83.63-1.55,1.06-2.06-.21-.42-1-2.43-1.81-.5-3.26a30.75,30.75,0,0,1,16.14-6.1c3.81-.34,7.62-.41,11.28,1.07,7.61,3.06,10.89,9,11,16.85.12,10.37-.06,20.75,0,31.12,0,2-.84,2.1-2.37,2.06s-2.6.06-2.38-2S522.24,88.45,522.24,85.76ZM511,70c-3.4.23-7.45-.42-11.47.4-4.82,1-8.09,3.91-8.67,7.92a10,10,0,0,0,5.35,10.87A18.64,18.64,0,0,0,506.43,91a17.41,17.41,0,0,0,14.34-8.68c2.25-3.6,1.05-7.57,1.27-11.38.06-1.14-1-.88-1.69-.89C517.43,70,514.51,70,511,70Z" transform="translate(-2 -8.95)"/><path class="cls-7" d="M531.33,44c.29-.16.35-.22.42-.22,4.46-.35,4.44-.34,6.23,3.71q8.74,19.74,17.5,39.46a3.28,3.28,0,0,0,1.17,1.82c2.76-6.21,5.5-12.37,8.23-18.53q5.45-12.27,10.86-24.54a4.3,4.3,0,0,1,5.16-2c1,.44.22,1,0,1.46-2.1,4.78-4.25,9.53-6.38,14.3-6.44,14.43-12.85,28.88-19.34,43.3-2.39,5.31-5.9,9.59-12,10.8a16.15,16.15,0,0,1-13.57-3c-.54-.41-1.49-.83-1-1.74a14.22,14.22,0,0,1,2.05-2.88c.26-.28.72.38,1.06.64,7.13,5.35,14.93,3.45,18.76-4.58,0-.06,0-.14.08-.21,3.12-4.78,2.77-9.2.22-14.45-6.52-13.4-12.29-27.17-18.36-40.79C532.09,45.71,531.74,44.89,531.33,44Z" transform="translate(-2 -8.95)"/><path class="cls-6" d="M27.94,98.67c-.37-9.91,7.81-18.43,18-18.78A18.62,18.62,0,0,1,65,97.77c.44,10.28-7.66,18.68-18.41,19.08C36.66,117.22,28.34,109.08,27.94,98.67Zm18.59,13A13.42,13.42,0,0,0,59.92,98.53a13.61,13.61,0,0,0-27.2-.81C32.51,105.44,38.57,111.55,46.53,111.68Z" transform="translate(-2 -8.95)"/><path class="cls-6" d="M89.73,38c10.57.9,18.33,9.71,17.43,19.78A18.67,18.67,0,0,1,87,74.82c-10.06-.94-17.74-10-16.83-19.92C71.11,44.78,80,37.12,89.73,38ZM102.1,56.35A13.57,13.57,0,0,0,75,56.13a13.57,13.57,0,1,0,27.14.22Z" transform="translate(-2 -8.95)"/><path class="cls-6" d="M89.44,116.71c-9.72.82-18.62-7-19.42-17.13s6.89-18.77,17.34-19.65c10.08-.85,18.94,7,19.63,17.84A18.27,18.27,0,0,1,89.44,116.71Zm12.5-18.55a13.53,13.53,0,1,0-13.27,13.51A13.42,13.42,0,0,0,101.94,98.16Z" transform="translate(-2 -8.95)"/><path class="cls-8" d="M168.75,83.9c-9.05.12-16-7-16.11-16.5-.15-10,6.55-17.51,15.74-17.62s16.07,7,16.18,16.91S178.11,83.77,168.75,83.9Z" transform="translate(-2 -8.95)"/><path class="cls-9" d="M226,65.08c-4.78,0-9.57-.07-14.35,0-1.72,0-1.94-.45-1.55-2A16.19,16.19,0,0,1,225.82,50.3,16.44,16.44,0,0,1,242,62.39c.73,2.63.69,2.68-2.1,2.69Z" transform="translate(-2 -8.95)"/><path class="cls-9" d="M408.36,75.47c1,6.28-6,11.8-12.22,12.37-3.62.33-7.16,0-10.39-1.93a7.37,7.37,0,0,1,.09-12.61,12.13,12.13,0,0,1,6-1.57c4.64,0,9.28.08,13.91-.12,2.26-.1,3,.65,2.61,2.74A7,7,0,0,0,408.36,75.47Z" transform="translate(-2 -8.95)"/><path class="cls-8" d="M340.6,87c-10.15-.26-17.34-8.2-17-18.78s7.7-17.77,18-17.5c9.73.26,16.77,8.24,16.44,18.63S350.38,87.22,340.6,87Z" transform="translate(-2 -8.95)"/><path class="cls-10" d="M453.71,47.92c11.84,0,20.42,9,20.38,21.45,0,12.2-8.6,21.19-20.17,21.18-12.06,0-20.44-8.76-20.4-21.31S442,47.91,453.71,47.92Z" transform="translate(-2 -8.95)"/><path class="cls-11" d="M511,70c3.55,0,6.47,0,9.39,0,.7,0,1.75-.25,1.69.89-.22,3.81,1,7.78-1.27,11.38A17.41,17.41,0,0,1,506.43,91a18.64,18.64,0,0,1-10.26-1.77,10,10,0,0,1-5.35-10.87c.58-4,3.85-6.94,8.67-7.92C503.51,69.59,507.56,70.24,511,70Z" transform="translate(-2 -8.95)"/><path class="cls-9" d="M46.53,111.68c-8-.13-14-6.24-13.81-14a13.61,13.61,0,0,1,27.2.81A13.42,13.42,0,0,1,46.53,111.68Z" transform="translate(-2 -8.95)"/><path class="cls-9" d="M102.1,56.35A13.57,13.57,0,1,1,88.42,42.7,13.57,13.57,0,0,1,102.1,56.35Z" transform="translate(-2 -8.95)"/><path class="cls-9" d="M101.94,98.16a13.33,13.33,0,0,1-13.27,13.51,13.47,13.47,0,1,1,13.27-13.51Z" transform="translate(-2 -8.95)"/></svg>