<svg xmlns="http://www.w3.org/2000/svg" xmlns:xlink="http://www.w3.org/1999/xlink" viewBox="0 0 443.84 232.16"><defs><style>.cls-1,.cls-4,.cls-7{fill:none;}.cls-2,.cls-3{stroke:#000;}.cls-2,.cls-3,.cls-7{stroke-linejoin:round;}.cls-3,.cls-5{fill:#fff;}.cls-4{stroke:#303030;stroke-miterlimit:10;}.cls-6{clip-path:url(#clip-path);}.cls-7{stroke:#fff;}</style><clipPath id="clip-path" transform="translate(-33.23 -149.84)"><polygon class="cls-1" points="520 233.62 370.87 339 285 219.38 434.13 114 520 233.62"/></clipPath></defs><title>keys</title><g id="KeyTwo"><path class="cls-2" d="M313.5,229.5c2.22,21.36-9,37.32-11,40a60,60,0,0,1-32,22,63.82,63.82,0,0,1-41-2l-14,20-11-4-8,7-5-2-12,11-2,7-13,12h-7l-8,7,1,6h-7l-14,11-1,7-8,2-5,8-29-4,1-28c59.34-41.54,99.2-77.06,104-90a67,67,0,0,0,3-11c-1-12-2-20-1-26,2.57-15.41,12.68-27.89,17-32,20.62-19.61,48.52-15.41,51-15C288.22,180,310.72,202.85,313.5,229.5Z" transform="translate(-33.23 -149.84)"/><path class="cls-3" d="M261.5,200.5c-7.06,5.74-9.43,15.27-6,23,4,9,15.15,14,24,10,9.67-4.39,13-17.95,7-27C281.4,198.82,270.6,196,261.5,200.5Z" transform="translate(-33.23 -149.84)"/><polyline class="cls-3" points="59.27 204.66 59.27 218.66 164.27 127.66"/><polyline class="cls-3" points="69.27 221.66 160.27 140.66 87.27 214.66"/></g><g id="KeyOne"><path class="cls-4" d="M405.5,181.5" transform="translate(-33.23 -149.84)"/><path class="cls-4" d="M374.5,226.5" transform="translate(-33.23 -149.84)"/><path class="cls-4" d="M413.5,211.5" transform="translate(-33.23 -149.84)"/><path class="cls-4" d="M297.5,242.5" transform="translate(-33.23 -149.84)"/><path class="cls-4" d="M257.5,203.5" transform="translate(-33.23 -149.84)"/><path d="M190.5,248.5l-19,7-7,7-11-2-15,7-2,6-18,6-7-2-8,4-2,4-7-2-9,4-3,7-7-3-15,7v5l-27-16,11-24c72.17-25.28,124-46.15,129-52a31.71,31.71,0,0,0,4-6c2.52-5.18,2.37-9.25,3-13,1-5.8,3.56-9.56,8-16a65.5,65.5,0,0,1,27-22c2.75-1.12,27.07-10.52,51,3,14.53,8.2,24.5,22.18,23,24-.87,1.05-5.37-2.23-12-5a66.52,66.52,0,0,0-32.9-4.82,61.54,61.54,0,0,0-10.1,1.82c-4.48,1.22-28.44,8.33-39,32-7.31,16.38-4.32,31.62-3,37" transform="translate(-33.23 -149.84)"/><path d="M190.52,248.55l-19,7,0,0-7,7a.08.08,0,0,1-.08,0l-11-2h.06l-15,7,.06-.07-2,6a.11.11,0,0,1-.08.08l-18,6h-.09l-7-2h.11l-8,4,.07-.07-2,4a.18.18,0,0,1-.21.09l-7-2h.12l-9,4,.1-.1-3,7a.22.22,0,0,1-.27.11l-7-3h.17l-15,7,.13-.21v5a.24.24,0,0,1-.24.24.24.24,0,0,1-.12,0l-27-16a.27.27,0,0,1-.11-.34l11-24a.33.33,0,0,1,.17-.16Q70.77,254,97,244.21c17.44-6.54,34.83-13.23,52-20.53,4.27-1.84,8.53-3.72,12.73-5.73,2.1-1,4.17-2,6.21-3.14,1-.56,2-1.13,3-1.75a11.51,11.51,0,0,0,2.59-2.13,30.29,30.29,0,0,0,3.75-5.76,24.72,24.72,0,0,0,2.06-6.53c.41-2.26.51-4.59,1-6.92a24.44,24.44,0,0,1,2.35-6.69,57.87,57.87,0,0,1,3.68-6l2-2.89c.7-.94,1.38-1.9,2.1-2.83a63.44,63.44,0,0,1,9.89-10,70.34,70.34,0,0,1,11.74-7.69c1.05-.53,2.1-1,3.2-1.51s2.2-.84,3.32-1.2a64.07,64.07,0,0,1,6.8-1.77,63.25,63.25,0,0,1,27.92.44,60.71,60.71,0,0,1,13.07,5.2,64.81,64.81,0,0,1,11.48,8.1,62.65,62.65,0,0,1,9.54,10.32,26.64,26.64,0,0,1,1.9,3,11.09,11.09,0,0,1,.74,1.68,3.55,3.55,0,0,1,.19,1,1.39,1.39,0,0,1-.09.61,1,1,0,0,1-.54.56,2,2,0,0,1-1.15,0,7.59,7.59,0,0,1-.88-.31c-.56-.22-1.09-.48-1.62-.74l-3.11-1.59a66.61,66.61,0,0,0-40.39-7.13,57.14,57.14,0,0,0-13.44,3.4,63.94,63.94,0,0,0-23.14,15,56.53,56.53,0,0,0-8.19,11.19,53.19,53.19,0,0,0-5.05,12.93,59.09,59.09,0,0,0,.05,27.64l-.1,0a59.38,59.38,0,0,1-.28-27.74,53.5,53.5,0,0,1,5-13.07,56.75,56.75,0,0,1,8.21-11.33,64.47,64.47,0,0,1,23.29-15.27,57.36,57.36,0,0,1,13.58-3.5,67.48,67.48,0,0,1,40.88,7l3.11,1.57c.52.25,1,.5,1.56.71a6.35,6.35,0,0,0,.77.26,1.19,1.19,0,0,0,.57,0s.06-.06.06-.3a2.57,2.57,0,0,0-.15-.72,9.71,9.71,0,0,0-.68-1.52,28.79,28.79,0,0,0-1.85-2.89,62.68,62.68,0,0,0-9.42-10.12,63.32,63.32,0,0,0-11.31-8,59.57,59.57,0,0,0-12.83-5.12,64.37,64.37,0,0,0-34.2,1.27c-1.1.35-2.19.74-3.25,1.17s-2.1.95-3.13,1.47a62.74,62.74,0,0,0-6,3.49,66.47,66.47,0,0,0-5.61,4.09,62.88,62.88,0,0,0-9.76,9.81c-.71.92-1.38,1.86-2.07,2.79l-2,2.87a58.18,58.18,0,0,0-3.63,5.91,23.5,23.5,0,0,0-2.28,6.45c-.44,2.24-.55,4.58-1,6.91a25.28,25.28,0,0,1-2.14,6.75,30.77,30.77,0,0,1-3.87,5.92,11.87,11.87,0,0,1-2.78,2.29c-1,.63-2,1.22-3,1.78-2.06,1.11-4.15,2.15-6.25,3.16-4.21,2-8.48,3.88-12.77,5.72-17.16,7.28-34.57,13.94-52,20.45s-35,12.77-52.6,18.92l.17-.16-11,24-.11-.34,27,16-.36.21v-5a.22.22,0,0,1,.13-.21l15-7a.2.2,0,0,1,.17,0l7,3-.27.11,3-7a.24.24,0,0,1,.1-.1l9-4a.17.17,0,0,1,.12,0l7,2-.21.09,2-4a.12.12,0,0,1,.07-.07l8-4a.14.14,0,0,1,.11,0l7,2h-.09l18-6-.08.08,2-6a.11.11,0,0,1,.06-.07l15-7h.06l11,2-.08,0,7-7,0,0,19-7Z" transform="translate(-33.23 -149.84)"/><polyline class="cls-5" points="11.27 128.66 153.27 67.66 14.27 120.66"/><path d="M44.48,278.45l141.86-61.32.31.75-34.72,13.33-34.75,13.25L82.36,257.55,65,264.08l-17.43,6.47,0-.1,17.32-6.78L82.14,257l34.68-13.41,34.75-13.25,34.78-13.17a.41.41,0,0,1,.53.23.4.4,0,0,1-.22.52L44.52,278.55Z" transform="translate(-33.23 -149.84)"/><polyline class="cls-3" points="17.27 136.66 137.27 87.66 29.27 139.66"/></g><g id="Logo"><g class="cls-6"><g class="cls-6"><path d="M441.25,206.64a35.5,35.5,0,0,0-1.87,15,2.73,2.73,0,0,0,2.12,2.75c4,1.07,7.93,2.08,12.09,3.16a30.33,30.33,0,0,1,2.61-14.81.36.36,0,0,1,.11.36,20.27,20.27,0,0,1-.59,2.23,28.42,28.42,0,0,0-1.59,11.45c0,.28.18.73.38.81a24.19,24.19,0,0,0,2.4.66c0-5.4.31-10.36,2.58-15a2.3,2.3,0,0,1-.11,1.2c-1.64,4.31-1.9,8.8-1.94,13.33,0,.56.18.78.7.89,3,.64,6,1.27,9,2,1.85.43,2.73.34,3.83-1.83,2.65-5.22,5-10.56,5.64-16.48.41-3.63.83-7.23-.12-10.85a1.44,1.44,0,0,0-1.22-1.24c-3.38-.68-6.76-1.33-10.12-2-4.85-1-9.71-2-14.53-3.2-2.16-.52-3.84-.14-5.13,1.69a8.09,8.09,0,0,0-1.06,1.58c-1.1,2.76-2.2,5.52-3.18,8.33M474.52,205c2.38,3.91-2.2,20-6.36,22.24,0-.39-.1-.73-.09-1.05.15-4.34,1.46-8.44,2.58-12.58a26.72,26.72,0,0,1,3.42-8.11c.11-.15.25-.28.45-.5m-23.21-4.59a4,4,0,0,1,.66-1.19c.36,0,.68-.18.92-.09,3.85,1.48,8,1.64,12,2.46a23.51,23.51,0,0,1,3.12.84c.39.13,1,.56,1,.82,0,.69-1.09,1.13-1.79,1-2.55-.59-5.11-1.17-7.68-1.71-2-.43-4-.78-6-1.18a5.16,5.16,0,0,1-1.16-.34c-.35-.15-1-.45-.94-.58" transform="translate(-33.23 -149.84)"/><path d="M357.76,289.44A39.66,39.66,0,0,0,377.52,292a17.92,17.92,0,0,0,6.54-1.9,5,5,0,0,0,.33-1.15c.35-4.77.65-9.55,1-14.32.27-3.67.51-7.35.92-11a3.38,3.38,0,0,0-2.24-3.7,13.14,13.14,0,0,0-1.87-.77A46.57,46.57,0,0,0,367.85,257c-3.22,0-6.44.43-9.66.7a1.79,1.79,0,0,0-1.69,1.49,20.56,20.56,0,0,0-.53,2.45c-.28,2.55-.47,5.13-.76,7.68-.65,5.65-1.34,11.3-2,16.95a1.09,1.09,0,0,0,.38.91,31.89,31.89,0,0,0,4.15,2.23m23.18-17.33q.19-1.69.27-3.39c.05-1.28.32-1.59,1.73-1.77.65,2.28-1.34,16.42-2.69,18.5a3.53,3.53,0,0,1-.43-1,15.53,15.53,0,0,1-.06-2.89c.35-3.15.79-6.3,1.18-9.45m-14.36,2a20.72,20.72,0,0,1,8.21.86l0,.28-8.23-.84Zm7.91,5.17-9-.67c1.83-1,7.57-.5,9,.67m-16.6,7.22a62.5,62.5,0,0,1,23.79,2.1c-4,3.3-21.56,1.76-23.79-2.1" transform="translate(-33.23 -149.84)"/><path d="M371.67,212.33a17.49,17.49,0,0,1,7,1.57,13.92,13.92,0,0,0,2.6.79,2.24,2.24,0,0,0,2.5-.91,6.31,6.31,0,0,1,3.38-2.56c1.23-.36,2.38-1,3.58-1.38.68-.24.62-.55.33-1.05a1,1,0,0,0-1.45-.47,30.39,30.39,0,0,1-3,1,17.66,17.66,0,0,1-10.95-.12c-5.61-2.09-9-6.19-10.52-11.9-1.9-7.15,2-15.84,9.22-18.32a16.79,16.79,0,0,1,12.8.41,18.48,18.48,0,0,1,7.31,6.44c.41.58.71,1.09,1.57.47s.34-1.11,0-1.63c-.76-1-1.53-2-2.32-3-.49-.61-.43-1.07.22-1.5s1.26-.88,1.94-1.37c-.14-.27-.2-.39-.27-.5-1.42-2.29-3.74-2.87-6.19-3.31s-4.94-1-7.41-1.55c-1.59-.34-3.18-.64-4.75-1a1.57,1.57,0,0,0-1.87.83,2,2,0,0,0,.15,1.36c.74,1.82.7,1.68-1.2,2.47a23.1,23.1,0,0,0-5.31,2.83,19,19,0,0,0-6.4,17.37,19.7,19.7,0,0,0,4.4,8.46c1.31,1.65,1.33,1.68-.32,3-.64.52-.54.9,0,1.37a7.45,7.45,0,0,0,5,2.23" transform="translate(-33.23 -149.84)"/><path d="M381.66,182a10.78,10.78,0,0,0-10.2,3.9c-3.42,4.15-3.54,10.38-.14,15.45a13.6,13.6,0,0,0,8,4.71,11.11,11.11,0,0,0,9.51-2.29,12,12,0,0,0,4-9.81,12.9,12.9,0,0,0-11.25-12m9.07,10.84a1.93,1.93,0,0,1-1,2.55,13.74,13.74,0,0,0-1.41,1c-3.77,3-7.79,3.21-12,.91a11.08,11.08,0,0,1-4.77-5.78c-.56-1.39.1-2.7.95-3.84,2.56-3.44,6.1-4.14,10-3.28,4.56,1,7.05,4.07,8.18,8.45" transform="translate(-33.23 -149.84)"/><path d="M400.26,192.32c0,.11-.06.23-.1.34a26.85,26.85,0,0,0,3.51,1.68c3.72,1.19,7.48,2.28,11.24,3.36a45.14,45.14,0,0,0,28-.7c1.51-.52.44-1.27.36-1.86-.12-.83-.75-.5-1.27-.32a42.61,42.61,0,0,1-4.6,1.51,44.81,44.81,0,0,1-23.07-.86c-3.19-1-6.41-1.86-9.61-2.78a9.18,9.18,0,0,0-4.44-.37" transform="translate(-33.23 -149.84)"/><path d="M437.88,218.6c-1-.93-2-1.89-3.05-2.77a30.29,30.29,0,0,0-10.59-5.65c-7.71-2.32-15.47-4.48-23.21-6.7-1.68-.49-1.69-.47-2.53,1.31l3.93,1.12c6.9,2,13.83,3.87,20.7,6a26.57,26.57,0,0,1,9.21,4.67c1.92,1.57,3.81,3.17,5.73,4.74a5.56,5.56,0,0,0,.76.43,3.49,3.49,0,0,0-.95-3.1" transform="translate(-33.23 -149.84)"/><path d="M378.68,218a22.3,22.3,0,0,1-.4,4c-1,5.44-.9,10.92-.79,16.4.14,7,3,13.31,6.05,19.49a11.89,11.89,0,0,0,.93,1.31c.62-1.45.7-1.85.24-3-.74-1.93-1.52-3.85-2.37-5.74a34.18,34.18,0,0,1-3-13.39,110.26,110.26,0,0,1,1-15.51c.2-1.77.16-3.57.23-5.57-1.29.44-1.86.9-1.86,2" transform="translate(-33.23 -149.84)"/><path d="M362.37,254.67A42.5,42.5,0,0,0,368,236.06c.23-3.91.51-7.82.72-11.73.12-2.3.22-4.61.19-6.91a12.76,12.76,0,0,0-.61-2.73,9.45,9.45,0,0,0-1.48,5.24c-.33,6.23-.55,12.48-1.09,18.7a30.7,30.7,0,0,1-4.46,13.93c-.67,1.06-1.4,2.08-2.15,3.2,2.18.75,2.33.65,3.3-1.09" transform="translate(-33.23 -149.84)"/><path d="M402.44,202.41c4.56,1.12,9.14,2.11,13.7,3.2a63.16,63.16,0,0,1,14.43,4.84c1.3.67,2.56,1.42,3.84,2.14.7-1.21.72-1.42.21-1.8a28.61,28.61,0,0,0-9.56-4.81q-7.92-2-15.88-4c-2.33-.56-4.68-1-7-1.43a16.39,16.39,0,0,0-2.89,0l-.09.5a23,23,0,0,0,3.28,1.33" transform="translate(-33.23 -149.84)"/><path d="M369.16,233.38c0,.37-.05.73,0,1.08a37.82,37.82,0,0,1-2.92,17A2,2,0,0,0,367,254a3,3,0,0,0,.31-.52c1-2.82,2-5.61,2.88-8.46.93-3.09.72-6.31.81-9.48,0-1.52-.13-1.77-1.82-2.15" transform="translate(-33.23 -149.84)"/><path d="M468.07,226.19c0,.32.06.66.09,1.05" transform="translate(-33.23 -149.84)"/><path d="M474.52,205a5.48,5.48,0,0,0-.45.51" transform="translate(-33.23 -149.84)"/></g></g></g><g id="loop1"><path class="cls-2" d="M266.5,163.5a103,103,0,0,1,113,13L369.82,180c-7.19-6-18.41-16-50-18a104,104,0,0,0-53,11Z" transform="translate(-33.23 -149.84)"/><path class="cls-5" d="M336.49,159.55A106.54,106.54,0,0,0,314,157.93c-3.76.13-7.51.54-11.24,1s-7.46,1-11.2,1.66l0-.1a71,71,0,0,1,11.09-2.55,81.41,81.41,0,0,1,11.36-.77,100,100,0,0,1,22.57,2.32Z" transform="translate(-33.23 -149.84)"/></g><g id="loop2"><path class="cls-2" d="M387,184.25c-1.81,3.06-10.84,15.53-15.57,20-19.38,18.32-47.7,20.12-65.9,20a161.22,161.22,0,0,1-59.53-12l2.5-10.75a143.79,143.79,0,0,0,56,12c17.12.13,43.76.32,62-18a54.35,54.35,0,0,0,9-12Z" transform="translate(-33.23 -149.84)"/><path class="cls-2" d="M400.5,127.5" transform="translate(-33.23 -149.84)"/><path class="cls-7" d="M349.5,214.5" transform="translate(-33.23 -149.84)"/><path class="cls-5" d="M260.51,213.45l16.42,2.93c5.47,1,11,1.87,16.47,2.63,2.75.36,5.51.7,8.26.89s5.52.18,8.28.11a121.28,121.28,0,0,0,16.55-1.56l0,.1A81.47,81.47,0,0,1,310,221a71.25,71.25,0,0,1-8.39-.12c-2.79-.26-5.55-.66-8.3-1.09-5.5-.86-11-1.8-16.43-2.93l-16.36-3.32Z" transform="translate(-33.23 -149.84)"/></g></svg>