<svg xmlns="http://www.w3.org/2000/svg" viewBox="-100 0 353.43 306.05"><defs><style>.cls-1,.cls-8{fill:#f0efeb;}.cls-1,.cls-10,.cls-11,.cls-12,.cls-13,.cls-15,.cls-16,.cls-18,.cls-19,.cls-2,.cls-20,.cls-21,.cls-22,.cls-23,.cls-3,.cls-4,.cls-5,.cls-6,.cls-7,.cls-8,.cls-9{stroke:#000;}.cls-1,.cls-10,.cls-2{stroke-linecap:square;}.cls-1,.cls-10,.cls-2,.cls-4,.cls-5{stroke-linejoin:bevel;}.cls-1,.cls-10,.cls-11,.cls-13,.cls-15,.cls-16,.cls-2,.cls-21,.cls-22,.cls-23,.cls-3,.cls-4,.cls-5,.cls-6,.cls-7,.cls-8,.cls-9{stroke-width:0.25px;}.cls-2,.cls-26,.cls-27{fill:#fff;}.cls-17,.cls-3{fill:#908984;}.cls-11,.cls-13,.cls-15,.cls-16,.cls-18,.cls-19,.cls-20,.cls-21,.cls-22,.cls-23,.cls-3,.cls-6,.cls-8{stroke-miterlimit:10;}.cls-25,.cls-4,.cls-6,.cls-7{fill:#e7ac80;}.cls-12,.cls-19,.cls-20,.cls-5,.cls-9{fill:none;}.cls-12,.cls-19,.cls-20,.cls-7,.cls-9{stroke-linecap:round;}.cls-12,.cls-7,.cls-9{stroke-linejoin:round;}.cls-11{fill:#cd8c63;}.cls-12,.cls-19{stroke-width:2px;}.cls-13{fill:#d0cfcb;}.cls-14,.cls-15{fill:#f5f5f4;}.cls-16{fill:#91908c;}.cls-22{fill:#395dab;}.cls-23,.cls-24{fill:#636768;}.cls-26{fill-rule:evenodd;}</style></defs><g id="leftArm"><path class="cls-1" d="M487,548l30-6,6-69a33.52,33.52,0,0,0-11,6c-7.65,6.31-7.49,14-12,21-3.32,5.18-9.83,11.39-24,15a17.55,17.55,0,0,0,11,33Z" transform="translate(-429.87 -383.1)"/><path class="cls-2" d="M476,522c-2.73,1.11-3.06,7-2,11,1.16,4.37,4.84,9.6,8,9s5-6.42,4-11C484.79,525.43,479,520.77,476,522Z" transform="translate(-429.87 -383.1)"/></g><g id="body"><polygon class="cls-3" points="114.12 196.26 142.83 196.26 144.96 241.66 121.3 248.06 111.98 225.36 114.12 196.26"/><path class="cls-4" d="M660.12,579.72l20.15-14.78-14.86-17.68L647.53,562a13.82,13.82,0,0,0,.77,11.86Z" transform="translate(-429.87 -383.1)"/><line class="cls-5" x1="229.57" y1="192.61" x2="240.64" y2="184.74"/><polygon class="cls-6" points="161.13 78.9 160.94 75.07 119.13 74.9 119.13 78.9 161.13 78.9"/><g id="XzowU1.tif"><path class="cls-6" d="M551.06,394.1v-4.86c-.35-3.53,1.69-6,4.94-6q16-.07,32,0c3.32,0,5.47,2.44,5.51,5.73l.1,5" transform="translate(-429.87 -383.1)"/><path class="cls-6" d="M547,394a18,18,0,0,0-8,1.54c-2.75,1.3-3.91,3.66-4.06,6.71-.17,3.67-.12,7.33,0,11,.16,5.25,0,10.5,0,15.75,0,5.67,0,11.34.29,17A13.57,13.57,0,0,0,546,458.3c2.2.47,4.35.11,6.51.14,8.17.14,16.34.22,24.5,0q8.13-.21,16.25-.17A13.77,13.77,0,0,0,606,451a11.22,11.22,0,0,0,1.31-5.72c0-8.25,0-16.5,0-24.75,0-5.92.18-11.83.23-17.75,0-4.44-4-8.29-8.49-8.54Z" transform="translate(-429.87 -383.1)"/><path class="cls-7" d="M601.5,583" transform="translate(-429.87 -383.1)"/><path class="cls-8" d="M618.52,465.35c-5.39-3.64-12.32-3.34-30-3.26-44.34.19-55.89-1.52-62.51,2.42a12,12,0,0,0-3,2.49c-4.18,4.77-3.17,11.5-3,17,.09,2.81-.23-.79-3,21-2.92,23-6.51,58.17-7,63h10l76.33.7Z" transform="translate(-429.87 -383.1)"/></g><path class="cls-9" d="M664,463" transform="translate(-429.87 -383.1)"/><path class="cls-10" d="M596,569l34-3s1-80-10-99c-3.4-5.88-15-5-17,2C596.93,490.24,596,569,596,569Z" transform="translate(-429.87 -383.1)"/><path class="cls-4" d="M670.45,573.84l11.61-8.76c2.89-6.06-.31-11.44-4.44-15.71-4.65-4.81-12.35-3.31-13.1-3.19-6.71,3.93-5.51,3.52-12.22,7.45.91-.31,7-1.65,14,3.94C674,563.73,670.5,573.12,670.45,573.84Z" transform="translate(-429.87 -383.1)"/><path class="cls-4" d="M667,572.79l3.38,1.05c0,.83,3.78-7.62.16-13.59s-12.54-10.91-18.89-6.18c-4.52,3.35-7.44,10.86-5.32,16.34,2.65,6.87,8.27,9,13.77,9.44l-.73-4.16c-4.68-1-7.29-2.5-8.68-7.08-1.22-4-.38-7.73,2.83-10.18a7.54,7.54,0,0,1,7.07-.85A13.71,13.71,0,0,1,668,564.9C669.29,567.86,667,571.23,667,572.79Z" transform="translate(-429.87 -383.1)"/><path class="cls-11" d="M668,581" transform="translate(-429.87 -383.1)"/><path class="cls-7" d="M665.46,546.41q-2.28-5.74-4.55-11.5l-9.09,5.3s.62,9.55,4.19,11.42c1.41.74,3.45-.13,5.25-1l.54-.3c1.72-1,3.66-1.79,3.66-3.88" transform="translate(-429.87 -383.1)"/><path class="cls-12" d="M481,527" transform="translate(-429.87 -383.1)"/><path class="cls-3" d="M512.24,581l39.55.84c-1.67,3.64-5,11.71-4.2,20.08A33.05,33.05,0,0,0,556,622c-14.59-.84-28.41-3.16-43-4-1.37-1.57-8.91-8.2-8-20A29.42,29.42,0,0,1,512.24,581Z" transform="translate(-429.87 -383.1)"/><path class="cls-3" d="M566,623c-1.89-1-6.91-6.75-8.91-19.43-2.09-13.3,6.84-24.07,8-25.57L606,579l12,44Z" transform="translate(-429.87 -383.1)"/><path class="cls-13" d="M510,565v16.19l50.29,2.23L596,585V568.81Z" transform="translate(-429.87 -383.1)"/><path class="cls-13" d="M630,580V565l-34,3.81V585l6.8-1c1.63-4,7.49-6.71,13.6-6.67a18.28,18.28,0,0,1,10.43,3.16Z" transform="translate(-429.87 -383.1)"/><path class="cls-3" d="M505,665c1.12-2,5.08-3.46,9-4" transform="translate(-429.87 -383.1)"/><path class="cls-13" d="M809,627" transform="translate(-429.87 -383.1)"/><path class="cls-8" d="M583,631" transform="translate(-429.87 -383.1)"/><path class="cls-8" d="M494,614" transform="translate(-429.87 -383.1)"/><path class="cls-1" d="M609.28,469.31c5.17-3,11.42-.9,17,.95,12.08,4,22.92,17.49,23.12,17.76,4.23,5.77,2.36,5.56,12,26.55,5.34,11.59,6.65,13.25,6.12,16.81-1.64,11.13-18.15,20.87-27.12,17-5.13-2.2-2.93-6.75-11.85-19.48-3.55-5.06-22-25-23.09-26.82C599.47,491.7,600.37,474.43,609.28,469.31Z" transform="translate(-429.87 -383.1)"/><path class="cls-3" d="M549,669v20l25-4.85L573.23,625c-1.42.71-5.31,1.46-10.77,0-3.46-.93-5.82-2.27-6.46-3,0,13.26,1,29.74,1,43" transform="translate(-429.87 -383.1)"/><polygon class="cls-3" points="83.13 234.9 84.01 277.9 127.13 281.9 126.25 238.9 83.13 234.9"/><polygon class="cls-3" points="188.13 239.9 138.13 239.9 154.22 257.9 202.13 258.9 188.13 239.9"/><polygon class="cls-3" points="75.13 281.9 75.13 300.9 119.13 305.9 119.13 285.9 75.13 281.9"/><polygon class="cls-3" points="148.13 269.9 196.13 271.9 205.13 282.9 155.13 279.9 148.13 269.9"/><polygon class="cls-3" points="154.13 257.9 202.13 258.9 196.13 271.9 148.13 269.9 154.13 257.9"/><path class="cls-3" d="M633,597c.6-1.34-1.87-8.69-3.71-12.48A16.4,16.4,0,0,0,615.07,576a20.31,20.31,0,0,0-13,5.11,13.36,13.36,0,0,0-2.18,2.48,22.87,22.87,0,0,0-3.32,7c-.3,1.19-1.61,4.22-1.53,7.44a33,33,0,0,0,1.08,9A24.46,24.46,0,0,0,608,622.85a10,10,0,0,0,2.18.86c1.64.37,5.87.29,7.87-.71l14,19-6,13,9,11c5.53-14.2,12.47-26.4,18-40.59Z" transform="translate(-429.87 -383.1)"/><path class="cls-14" d="M851,598" transform="translate(-429.87 -383.1)"/><path class="cls-15" d="M939,557" transform="translate(-429.87 -383.1)"/><path class="cls-16" d="M607,691" transform="translate(-429.87 -383.1)"/><path class="cls-17" d="M513.88,661,505,665l44,4a8.06,8.06,0,0,1,8-4Z" transform="translate(-429.87 -383.1)"/><path class="cls-3" d="M549,669a8.06,8.06,0,0,1,2.76-2.84A8.33,8.33,0,0,1,557,665" transform="translate(-429.87 -383.1)"/><ellipse class="cls-18" cx="153.07" cy="36.23" rx="3.16" ry="3.34"/><path class="cls-19" d="M555.69,419.44a20.68,20.68,0,0,1,4.89-1.32,14.35,14.35,0,0,1,5,.79" transform="translate(-429.87 -383.1)"/><path class="cls-19" d="M560.85,435.65a15.78,15.78,0,0,0,11.75,3.23,15.15,15.15,0,0,0,7.94-3.82" transform="translate(-429.87 -383.1)"/><path class="cls-20" d="M579.19,432.8a4.06,4.06,0,0,1,2.3,1.77,3.54,3.54,0,0,1,.24,2.91" transform="translate(-429.87 -383.1)"/></g><g id="shirt"><path class="cls-10" d="M659.61,510.35c-9.67-21-5.81-16.79-10-22.56-.21-.28-11.05-13.76-23.12-17.76-5.59-1.85-11.83-3.92-17-.95-8.9,5.11-9.8,22.39-3.77,32.78,1.06,1.84,19.54,21.76,23.08,26.82Z" transform="translate(-429.87 -383.1)"/><path class="cls-10" d="M517,542.47l6-69a33.52,33.52,0,0,0-11,6c-7.66,6.32-7.49,14-12,21l13.21,32.33,1.88-11" transform="translate(-429.87 -383.1)"/><path class="cls-21" d="M617.89,465.48c-5.39-3.65-12.31-3.34-29.95-3.26-44.35.19-55.9-1.52-62.52,2.41a12.39,12.39,0,0,0-3,2.5c-4.18,4.76-3.17,11.49-3,17,.09,2.81-.23-.79-3,21-2.92,23-5.64,55.23-6.13,60.06l11,.63,74.49,3Z" transform="translate(-429.87 -383.1)"/><polygon class="cls-22" points="226.3 120.42 194.22 139.94 198.88 145.57 229.74 127.24 226.3 120.42"/><path class="cls-22" d="M499.5,500.42l13.94,33.91,1.93-11.81L502.78,494a11.37,11.37,0,0,1-1.13,3.18A13.17,13.17,0,0,1,499.5,500.42Z" transform="translate(-429.87 -383.1)"/><path class="cls-22" d="M609.22,505,618,465c-5.39-3.65-12.31-3.34-29.95-3.26-44.34.19-55.89-1.52-62.52,2.41a12.58,12.58,0,0,0-3,2.5c-4.18,4.76-3.17,11.5-3,17,.09,2.81-.56-.76-3.33,21" transform="translate(-429.87 -383.1)"/><path class="cls-23" d="M559,461.79l-15.13-.1c-3.17-.14-14.56.28-17.15,1.89-.06.21-3.09,1.76-3,2L543,465l-3.76,14.48c.39-.53,4.25-5.75,9.32-5.42,5.51.35,11.11,7.2,10.1,16.35l-3.09,26.17,10.22.29L569,491a19.28,19.28,0,0,1,5.27-10.62c6.08-6,14.56-3.28,19.27,4.72l3.09-19.73,20.9.6a.87.87,0,0,0,.38-.59c.05-1.26-4.52-2.59-7.63-3.18-2.32-.44-3.68-.66-13.2-.44l-18.86-.08L567,474.25Z" transform="translate(-429.87 -383.1)"/><path class="cls-24" d="M524.91,453.93" transform="translate(-429.87 -383.1)"/><path class="cls-23" d="M619.54,447.88" transform="translate(-429.87 -383.1)"/><polygon class="cls-25" points="128.72 77.69 149.01 77.69 137.1 90.79 128.72 77.69"/></g><g id="super"><g id="assLogo"><path class="cls-26" d="M580.18,491.5l0-.32-1,0c-.44,0-.64.13-.65.55s.16.56.61.57l.44,0c.19,0,.28.08.28.24s-.11.22-.33.21l-.95,0V493l1,0c.44,0,.64-.14.66-.56s-.17-.52-.58-.54l-.51,0c-.16,0-.25-.07-.24-.2a.25.25,0,0,1,.29-.25Z" transform="translate(-429.87 -383.1)"/><path class="cls-26" d="M580.89,491.2h-.38l0,1.16a.66.66,0,0,0,.1.49.81.81,0,0,0,.69.28.9.9,0,0,0,.71-.23,1,1,0,0,0,.14-.51l0-1.13h-.38l0,1.13c0,.32-.11.48-.46.46s-.41-.14-.39-.5C580.85,492.33,580.89,491.2,580.89,491.2Z" transform="translate(-429.87 -383.1)"/><path class="cls-26" d="M582.38,491.26l-.08,1.9.38,0,0-.68.47,0a1.32,1.32,0,0,0,.58-.1.63.63,0,0,0,.24-.48.62.62,0,0,0-.23-.53,1.37,1.37,0,0,0-.54-.11Zm.84.36c.25,0,.38.08.37.3s-.14.29-.36.28l-.48,0,0-.55Z" transform="translate(-429.87 -383.1)"/><path class="cls-26" d="M585,491.69l.64,0v-.33l-.63,0c-.6,0-.9.29-.93.93a.81.81,0,0,0,.26.75.88.88,0,0,0,.56.19l.67,0v-.32l-.63,0c-.32,0-.44-.15-.43-.47l1.08,0v-.35l-1.08-.05a.4.4,0,0,1,.4-.4Z" transform="translate(-429.87 -383.1)"/><path class="cls-26" d="M586,491.41l-.07,1.9h.38l0-.74.44,0,.38.76h.45l-.45-.82a.52.52,0,0,0,.4-.5c0-.39-.19-.59-.61-.61Zm.85.35c.22,0,.34.05.34.24s-.14.22-.36.21l-.48,0,0-.45Z" transform="translate(-429.87 -383.1)"/><path class="cls-26" d="M590.88,491.92v-.32l-1,0c-.44,0-.64.14-.66.56s.17.55.61.57l.48,0c.19,0,.28.07.27.24s-.1.22-.32.21l-1,0,0,.32,1,0c.44,0,.64-.13.65-.55s-.16-.52-.58-.54l-.5,0c-.16,0-.25-.08-.25-.2a.28.28,0,0,1,.33-.25Z" transform="translate(-429.87 -383.1)"/><polygon class="cls-26" points="161.75 108.53 161.37 108.51 161.29 110.38 161.67 110.4 161.7 109.62 162.43 109.65 162.4 110.43 162.78 110.44 162.85 108.57 162.47 108.56 162.44 109.3 161.72 109.27 161.75 108.53"/><path class="cls-26" d="M592.91,492.62c0,.68.25,1,.88,1s.93-.28,1-1-.25-1-.88-1S592.94,491.94,592.91,492.62Zm1-.64c.35,0,.46.28.45.7s-.19.64-.54.62-.49-.24-.48-.7.19-.63.54-.62Z" transform="translate(-429.87 -383.1)"/><path class="cls-26" d="M595,491.77l-.08,1.9h.38l0-.67.47,0a1.28,1.28,0,0,0,.58-.11.59.59,0,0,0,.24-.47.58.58,0,0,0-.24-.53,1.34,1.34,0,0,0-.53-.12Zm.84.35c.25,0,.37.08.37.31s-.14.28-.36.28l-.48,0,0-.55Z" transform="translate(-429.87 -383.1)"/><path class="cls-26" d="M596.93,491.84l-.07,1.91h.38l0-.68.47,0a1.34,1.34,0,0,0,.58-.1.63.63,0,0,0,.24-.48.66.66,0,0,0-.24-.53,1.4,1.4,0,0,0-.53-.11Zm.82.38c.24,0,.37.06.36.28s-.14.29-.36.28l-.47,0,0-.55Z" transform="translate(-429.87 -383.1)"/><path class="cls-26" d="M599.61,492.27l.6,0,0-.33-.64,0c-.6,0-.9.29-.92.93a.83.83,0,0,0,.25.75.93.93,0,0,0,.57.19l.66,0v-.32l-.63,0c-.32,0-.44-.15-.42-.47l1.07,0,0-.35-1.08-.05a.36.36,0,0,1,.34-.4Z" transform="translate(-429.87 -383.1)"/><path class="cls-26" d="M602.16,492.05l-1,0c-.44,0-.64.14-.65.56s.17.55.61.57l.44,0c.19,0,.28.07.28.23s-.11.23-.33.22l-1,0v.32l1,0c.44,0,.64-.14.66-.55s-.17-.53-.58-.54l-.51,0c-.16,0-.25-.08-.25-.21s.11-.25.33-.24l1,0" transform="translate(-429.87 -383.1)"/><path class="cls-26" d="M599.5,496.6a42,42,0,0,1-8.45.47c-8.26-.33-14.85-2.66-14.75-5.18,0-1.06,1.28-2,3.34-2.71-2.44.71-4,1.75-4,2.91-.1,2.52,6.43,4.81,14.62,5.14a41,41,0,0,0,9.25-.63Z" transform="translate(-429.87 -383.1)"/><path class="cls-26" d="M581.31,488.57a42.06,42.06,0,0,1,8.45-.47c8.23.33,14.82,2.66,14.72,5.17,0,1.1-1.28,2-3.34,2.71,2.44-.71,4-1.74,4-2.91.1-2.51-6.43-4.8-14.63-5.13a38.8,38.8,0,0,0-9.22.63Z" transform="translate(-429.87 -383.1)"/><path class="cls-26" d="M587.51,489c.09.13.31.2.63.15.57-.1,1.07-.54,1.08-.89s-.27-.4-.62-.35c-.61.11-1.13.57-1.15.92a.19.19,0,0,0,0,.13,1.63,1.63,0,0,1-.52.31s-.06,0-.06,0h0v0s0-.1,0-.13l.52-1.14.48-.08v-.06l-.45.08.42-1-.48.15-.42.92-.25,0V488l.19,0-.46,1.08,0,.06,0,0a1.43,1.43,0,0,1-.46.27c-.06,0-.06,0-.06,0a.09.09,0,0,1,0-.09l.42-1-.45.08c-.35.73-.78,1.17-1,1.19-.06,0-.09,0-.09,0a.23.23,0,0,1,0-.12l.42-.95-.51.14-.28.73a.81.81,0,0,0-.08.25c0,.16.12.2.38.18a1.75,1.75,0,0,0,1-.9l-.18.45a.24.24,0,0,0,0,.16c0,.13.09.16.28.14a2,2,0,0,0,.65-.33h0c0,.13.12.17.31.14a1.91,1.91,0,0,0,.68-.39Zm1.09-1.06c.13,0,.22,0,.21.14a1.22,1.22,0,0,1-.7,1c-.13,0-.25-.05-.25-.17a1.35,1.35,0,0,1,.38-.76.61.61,0,0,1,.36-.22Z" transform="translate(-429.87 -383.1)"/><path class="cls-26" d="M578,490.73a3.51,3.51,0,0,0,.79-.06,5.32,5.32,0,0,0,3-1.63,1.77,1.77,0,0,1,1,.95l.48-.08.49-1.08.6-.13v-.07l-.58.11.24-.51a6.9,6.9,0,0,0,.72-2c0-.23-.09-.3-.31-.27s-.49.27-.82.67l-1.13,1.41c-1.2,1.41-2.28,2.24-3.39,2.42a4.44,4.44,0,0,1-.89,0l-.23.21Zm5.3-1.82-.45.95a2.24,2.24,0,0,0-.76-.8A8,8,0,0,0,583.33,488.91Zm.07-.09a5.74,5.74,0,0,1-1.5.13c.2-.22.43-.5.73-.84l1.33-1.63a1.76,1.76,0,0,1,.4-.37c.06,0,.06,0,.06.07a4.49,4.49,0,0,1-.32.89l-.7,1.75Z" transform="translate(-429.87 -383.1)"/><path class="cls-26" d="M578.78,499.71c-.41,0-.83,0-1.11,0s-.41,0-.28-.05l.89-.06c4.31-.08,19,.53,23.64.82a6.6,6.6,0,0,1,1.29.18.21.21,0,0,1-.16.05c-.48,0,.06.14-.83.07l-7.18-.38-11.29-.49Z" transform="translate(-429.87 -383.1)"/><path class="cls-26" d="M580,497.76l0,.93h.19v-.32h.41a.29.29,0,0,0,.24-.25.56.56,0,0,0,0-.22c0-.07-.09-.1-.18-.14H580Zm.53.18s0,0,.06,0,0,0,0,.07v.1a.09.09,0,0,1-.07.06l-.1,0h-.25v-.29h.32Z" transform="translate(-429.87 -383.1)"/><path class="cls-26" d="M581,497.76l0,1h.19l0-.39h.22l.2.4h.23l-.21-.39a.21.21,0,0,0,.16-.12.36.36,0,0,0,0-.2.14.14,0,0,0,0-.13s-.06-.1-.13-.1a.68.68,0,0,0-.15,0Zm.44.15h.06a.16.16,0,0,1,.1,0s0,0,0,.06v.1a.07.07,0,0,1-.07.06h-.38l0-.26Z" transform="translate(-429.87 -383.1)"/><path class="cls-26" d="M582.46,498l.32,0v-.17h-.31a.61.61,0,0,0-.23,0,.35.35,0,0,0-.2.21,1.17,1.17,0,0,0,0,.26c0,.1,0,.19.06.26a.36.36,0,0,0,.27.21h.45v-.16h-.44a.1.1,0,0,1-.09-.1s0-.06,0-.13l.57,0v-.2l-.54,0s0-.1,0-.13.06-.09.1-.09a.09.09,0,0,0,.06,0C582.4,498,582.46,498,582.46,498Z" transform="translate(-429.87 -383.1)"/><polygon class="cls-26" points="153.07 114.74 153.03 115.7 153.25 115.71 153.25 114.94 153.47 115.72 153.69 115.73 153.95 114.97 153.92 115.74 154.11 115.75 154.15 114.78 153.86 114.77 153.58 115.5 153.38 114.75 153.07 114.74"/><polygon class="cls-26" points="154.49 115.76 154.52 114.8 154.3 114.79 154.26 115.75 154.49 115.76"/><path class="cls-26" d="M584.74,497.91h-.19l0,.59v.16s0,.06,0,.09a.58.58,0,0,0,.19.14.68.68,0,0,0,.28,0,.34.34,0,0,0,.19-.05s.07,0,.07-.06a.14.14,0,0,0,0-.1v-.16l0-.58h-.19l0,.55v.13s0,.06,0,.06a.11.11,0,0,1-.09,0h-.16s-.06,0-.09-.06v-.2l0-.58h0Z" transform="translate(-429.87 -383.1)"/><polygon class="cls-26" points="155.69 114.84 155.66 115.81 155.85 115.82 155.85 115.04 156.07 115.83 156.29 115.83 156.54 115.07 156.51 115.84 156.7 115.85 156.74 114.88 156.46 114.87 156.2 115.61 155.98 114.85 155.69 114.84"/><path class="cls-26" d="M587.5,498l-.45,1h.22l.1-.22.41,0,.09.23h.22l-.37-1Zm.08.2.12.39h-.29Z" transform="translate(-429.87 -383.1)"/><path class="cls-26" d="M588.42,498.06h-.19l0,.58v.16s0,.07,0,.1.13.1.19.14a.9.9,0,0,0,.28,0,.47.47,0,0,0,.19-.06s.07,0,.07-.06a.18.18,0,0,0,0-.09v-.16l0-.59h-.18l0,.58v.13s0,.06,0,.06a.11.11,0,0,1-.09,0h-.16s-.06,0-.09-.07,0,0,0-.06v-.1l0-.61Z" transform="translate(-429.87 -383.1)"/><polygon class="cls-26" points="159.61 115.16 159.58 115.97 159.8 115.97 159.83 115.17 160.12 115.18 160.13 115.02 159.33 114.99 159.33 115.15 159.61 115.16"/><path class="cls-26" d="M590.11,498.58a.59.59,0,0,0,0,.26.29.29,0,0,0,.24.23.7.7,0,0,0,.38,0,.33.33,0,0,0,.26-.25,1,1,0,0,0,0-.29.52.52,0,0,0-.06-.23c-.06-.1-.12-.16-.21-.17a.81.81,0,0,0-.38,0,.33.33,0,0,0-.26.25A1.06,1.06,0,0,0,590.11,498.58Zm.48-.31a.3.3,0,0,1,.22.14.23.23,0,0,1,0,.16.46.46,0,0,1,0,.2.37.37,0,0,1-.07.12s-.1,0-.13.06a.23.23,0,0,1-.16,0,.24.24,0,0,1-.15-.26v-.19a.24.24,0,0,1,.07-.13.25.25,0,0,1,.13-.06Z" transform="translate(-429.87 -383.1)"/><polygon class="cls-26" points="161.36 115.07 161.32 116.03 161.54 116.04 161.54 115.27 161.76 116.05 161.99 116.06 162.24 115.3 162.21 116.07 162.4 116.08 162.44 115.11 162.15 115.1 161.87 115.83 161.68 115.08 161.36 115.07"/><path class="cls-26" d="M592.45,498.67a.58.58,0,0,0,0,.26.33.33,0,0,0,.24.24.81.81,0,0,0,.38,0,.36.36,0,0,0,.27-.25.92.92,0,0,0,0-.29.48.48,0,0,0-.06-.22c-.05-.1-.12-.17-.21-.17a.7.7,0,0,0-.38,0,.33.33,0,0,0-.26.25,1.29,1.29,0,0,0,0,.19Zm.52-.3c.06,0,.09,0,.12,0l.09.1a.3.3,0,0,1,0,.16.43.43,0,0,1,0,.19.28.28,0,0,1-.07.13s-.1,0-.13.06a.15.15,0,0,1-.12,0,.36.36,0,0,1-.13-.1.31.31,0,0,1,0-.16v-.2a.23.23,0,0,1,.06-.12s.07-.07.13-.06Z" transform="translate(-429.87 -383.1)"/><polygon class="cls-26" points="163.98 115.33 163.95 116.14 164.14 116.15 164.17 115.34 164.49 115.35 164.49 115.19 163.67 115.16 163.66 115.32 163.98 115.33"/><polygon class="cls-26" points="164.8 116.17 164.84 115.21 164.62 115.2 164.58 116.17 164.8 116.17"/><polygon class="cls-26" points="165.37 116.2 165.56 116.2 166.01 115.25 165.79 115.24 165.48 115.94 165.22 115.22 165 115.21 165.37 116.2"/><path class="cls-26" d="M596.38,498.54h.32v-.16h-.32a.42.42,0,0,0-.22,0,.32.32,0,0,0-.2.22.55.55,0,0,0,0,.25.57.57,0,0,0,.05.27.39.39,0,0,0,.28.2l.44,0v-.16l-.32,0h-.13c-.06,0-.09-.07-.09-.1a.86.86,0,0,1,0-.13l.57,0v-.16l-.57,0a.16.16,0,0,1,0-.13,0,0,0,0,1,0,0,.18.18,0,0,1,.1-.06A.1.1,0,0,1,596.38,498.54Z" transform="translate(-429.87 -383.1)"/><path class="cls-26" d="M597.65,498.59a1,1,0,0,1,.31,0v-.16h-.32a.42.42,0,0,0-.22,0,.37.37,0,0,0-.2.22,1.09,1.09,0,0,0,0,.26,1,1,0,0,0,0,.26.37.37,0,0,0,.28.2l.44,0v-.16l-.32,0h-.09a.11.11,0,0,1-.09-.1s0-.1,0-.13v-.23s0-.06,0-.09l.1-.09" transform="translate(-429.87 -383.1)"/><path class="cls-26" d="M598.53,498.62l.32,0v-.17h-.32a.56.56,0,0,0-.22,0,.3.3,0,0,0-.2.21.59.59,0,0,0,0,.26.33.33,0,0,0,0,.26.38.38,0,0,0,.28.21h.44v-.16h-.45a.1.1,0,0,1-.09-.1.15.15,0,0,1,0-.13l.57,0v-.16l-.57,0a.24.24,0,0,1,0-.13.48.48,0,0,1,.13-.09s0,0,.06,0Z" transform="translate(-429.87 -383.1)"/><polygon class="cls-26" points="169.14 115.38 169.1 116.34 169.33 116.35 169.32 115.61 169.71 116.37 169.93 116.38 169.97 115.41 169.78 115.4 169.75 116.08 169.4 115.39 169.14 115.38"/><polygon class="cls-26" points="170.44 115.59 170.4 116.4 170.62 116.41 170.66 115.6 170.94 115.61 170.95 115.45 170.16 115.42 170.15 115.58 170.44 115.59"/><path class="cls-26" d="M601,498.56l0,1h.19v-.38h.26l.2.39h.22l-.23-.4c.06,0,.13-.05.16-.12a.43.43,0,0,0,0-.19c0-.06,0-.1,0-.13s-.06-.1-.12-.1a.27.27,0,0,0-.16,0Zm.43.18h.1s0,0,0,0,0,0,0,.06v.1s0,0-.06.06h-.35v-.23Z" transform="translate(-429.87 -383.1)"/><path class="cls-26" d="M602.43,498.78h.31v-.16h-.32a.42.42,0,0,0-.22,0,.34.34,0,0,0-.2.22.75.75,0,0,0,0,.26.71.71,0,0,0,0,.26.35.35,0,0,0,.28.2l.44,0v-.16l-.35,0h-.13s-.09-.07-.09-.1,0-.07,0-.13l.57,0V499l-.57,0s0-.09,0-.12a.49.49,0,0,1,.13-.1S602.43,498.78,602.43,498.78Z" transform="translate(-429.87 -383.1)"/><path class="cls-26" d="M603.75,498.86v-.16l-.54,0a.44.44,0,0,0-.19,0,.48.48,0,0,0-.13.09s0,.09,0,.16a.22.22,0,0,0,0,.13.25.25,0,0,0,.12.13.33.33,0,0,0,.19,0,1.2,1.2,0,0,1,.32,0l0,0a.1.1,0,0,1,0,.06v.07a0,0,0,0,1,0,0h-.06l-.54,0v.2l.54,0a.62.62,0,0,0,.19,0,.49.49,0,0,0,.13-.1.19.19,0,0,0,0-.12v-.17a.3.3,0,0,0-.12-.13.28.28,0,0,0-.15,0h-.38a.06.06,0,0,1-.06-.07v-.06a.07.07,0,0,1,.06-.07h.07l.5,0Z" transform="translate(-429.87 -383.1)"/><path class="cls-27" d="M576.76,498.56h-.19l0-1h.26l.35.72,0-.74h.19l0,1h-.26l-.38-.7v.71Z" transform="translate(-429.87 -383.1)"/><path class="cls-27" d="M577.55,497.79v-.16l.82,0v.16l-.6.59.57,0v.16l-.83,0v-.16l.63-.62Z" transform="translate(-429.87 -383.1)"/><path class="cls-27" d="M578.73,497.83l-.14.22h-.09l.1-.19h-.07v-.19h.16l0,.16Z" transform="translate(-429.87 -383.1)"/><path class="cls-27" d="M579.47,498.12h-.34c-.1,0-.1,0-.1.06s0,.06,0,.06h.22c.16,0,.22.08.21.21a.16.16,0,0,1-.13.18.32.32,0,0,1-.16,0l-.41,0v-.16l.45,0s.06,0,0-.06h0s0,0,0-.07h-.19a.22.22,0,0,1-.15,0c-.07,0-.06-.1-.06-.17a.26.26,0,0,1,.07-.16.19.19,0,0,1,.16-.06l.41,0Z" transform="translate(-429.87 -383.1)"/></g></g><g id="rightHand"><path class="cls-4" d="M458.12,537.67l25.81-13.12-5.25-9a35.26,35.26,0,0,0-26.54,12.39Z" transform="translate(-429.87 -383.1)"/><path class="cls-4" d="M467.71,555.33l-4.22-.34-12.06-28a24,24,0,0,1,5.06-5,37,37,0,0,1,12-6c3-1,6.76-1.48,12.33-.86-.57,1.49,0,2.57-2.19,4.86" transform="translate(-429.87 -383.1)"/><path class="cls-4" d="M451.33,526.89" transform="translate(-429.87 -383.1)"/><path class="cls-4" d="M474.45,502.24" transform="translate(-429.87 -383.1)"/><path class="cls-4" d="M474.63,518.51" transform="translate(-429.87 -383.1)"/><line class="cls-4" x1="25.78" y1="142.7" x2="26.3" y2="143.77"/><path class="cls-4" d="M486.88,573.72" transform="translate(-429.87 -383.1)"/><path class="cls-4" d="M476.62,517.43a32.1,32.1,0,0,0-10.21,1.73,28.28,28.28,0,0,0-6.16,3,37.64,37.64,0,0,0-4.44,3.68l-4.24,1.1" transform="translate(-429.87 -383.1)"/><path d="M446.93,446.82c-3.53-.13-7.32,1.62-11.1,5.12a44,44,0,0,0-5,5.53c-.71.91-.78,1-.91,1.56-.17.73-.1,1,.68,2.7l.59,1.28.57.14c.6.14.68.12.77-.25,0-.12.09-.14.35-.08s.43,0,.5-.31c0-.12.11-.13.38-.1s.36,0,.45-.17.14-.22.41-.19.33,0,.36,0,.1-.19.15-.3.13-.21.39-.12.3.08.44-.2.15-.27.44-.21.31.06.42-.19.14-.27.43-.2.32.06.43-.2.14-.26.42-.19.33.05.46-.22.16-.28.43-.19.28.08.42-.2.17-.28.45-.24.32,0,.43-.19.16-.25.45-.21.34,0,.42-.2.14-.23.43-.2.35,0,.43-.19.14-.23.42-.2.34,0,.47-.26.16-.27.45-.2.31.05.42-.2.13-.27.43-.2.31.06.44-.23a1.33,1.33,0,0,1,.27-.43c.13-.1.16-.1.31.05s4.14,8.49,4.06,8.53a11.44,11.44,0,0,1-1.78.46s-.38-.48-.78-1c-.77-1-.81-1.06-1.64-1.1-.21,0-.23,0-.24.24s0,.24-.31.23-.31,0-.31.22,0,.24-.31.23-.3,0-.33.24-.05.25-.3.22-.28,0-.31.22-.05.26-.3.23-.28,0-.31.22-.06.26-.31.23-.27,0-.33.24-.08.27-.3.22-.25,0-.31.22-.08.28-.31.23-.24,0-.3.22-.08.28-.31.23-.25,0-.31.22-.08.28-.3.23-.25,0-.31.22-.08.28-.31.23-.24,0-.3.22-.09.27-.34.24-.26,0-.3.23-.06.26-.19.23c-.3-.07-.41,0-.42.24s-.05.24-.19.21c-.3-.07-.41,0-.43.24s0,.23-.32.22-.3,0-.3.23,0,.23-.3.22h-.29l-.06.42a3.73,3.73,0,0,0,0,.58,14.36,14.36,0,0,0,1.05,1.55,11.57,11.57,0,0,1,1,1.5c0,.06,3.89,8.41,8.67,18.55S455,511.8,455.09,512l.17.38-.37.18c-.26.14-.36.23-.33.32S473,552.18,473.91,554c2.88,6,7.17,9.93,10.3,9.52a8.73,8.73,0,0,0,2.83-1.33c1.53-1.39,2-4.51,1.19-8.27a26.55,26.55,0,0,0-2-6c-.8-1.73-19.16-40.71-19.25-40.87s-.15-.09-.44.05a1.75,1.75,0,0,1-.41.15,76.32,76.32,0,0,1-3.67-8.64l-.37-1.14.15-.64a2.76,2.76,0,0,1,.57-1.21,3.7,3.7,0,0,1,.48-.58,12,12,0,0,1,.79,1.55c1.09,2.31,1.56,3,2.75,3.64a4.39,4.39,0,0,0,1.36.51,4.76,4.76,0,0,0,3.93-.77,5,5,0,0,0,2-5.34c-.08-.32-1-2.42-2.08-4.67s-1.92-4.1-1.91-4.13a10.52,10.52,0,0,1,1-.5c.53-.24,1-.46,1-.47s-.61-1.34-1.36-2.93a17.5,17.5,0,0,0-1.47-2.86l-1,.46c-1,.47-1.17.43-.69-.2a3.86,3.86,0,0,0,.71-2.29c.37-4.92-.93-9.31-3.69-12.46-1.33-1.51-2-2-3.08-2.19a2.7,2.7,0,0,0-1.5.08,8,8,0,0,1-.82.17c-.08-.29-5.71-12.07-6.06-12.68a5.14,5.14,0,0,0-2.68-2.47A16,16,0,0,0,446.93,446.82Zm-2.22,32.78c.64,0,.31-.6,7.88,15.45,3.89,8.28,7.08,15.1,7.07,15.15a4.48,4.48,0,0,1-1,.59l-1,.49-7.06-15c-3.9-8.25-7.11-15.18-7.15-15.39s-.07-.39.15-.72a1.26,1.26,0,0,1,.57-.46A1.77,1.77,0,0,1,444.71,479.6Zm13.43,4.62c.06,0,0,0-.59.32a1.46,1.46,0,0,0-.46.29s.59,1.37,1.34,2.95a18.82,18.82,0,0,1,1.26,2.94c-.07,0-.13,0-.18-.08-.21-.36-2.7-5.72-2.68-5.78a2.37,2.37,0,0,1,.63-.36A3,3,0,0,1,458.14,484.22Z" transform="translate(-429.87 -383.1)"/><path class="cls-25" d="M454.71,528l1.41-1.16s8-1.41,12.72-3.62a25.54,25.54,0,0,0,7.78-5.72l5.51,12.3-19.28,7.06" transform="translate(-429.87 -383.1)"/><path class="cls-4" d="M454.63,528.25,467.35,557a22.88,22.88,0,0,0,15.11-.1c7.27-2.63,11.79-11,12.32-12.08-4.32-9.85-9.75-19.59-14.07-29.43,0,2-3.15,6.91-8.8,9.74C464.69,528.29,460.13,528.32,454.63,528.25Z" transform="translate(-429.87 -383.1)"/><path class="cls-5" d="M454.65,528.25l1.42-1.16,1.46-1.19a25.41,25.41,0,0,0,19-8.15" transform="translate(-429.87 -383.1)"/></g></svg>
