<svg id="Layer_1" data-name="Layer 1" xmlns="http://www.w3.org/2000/svg" viewBox="0 0 174.21 100.31"><defs><style>.cls-1{fill:#fff;}</style></defs><title>prostrate</title><path class="cls-1" d="M962.17,489.16c.63.09,1.25.19,1.88.26a23.65,23.65,0,0,1,12.8,5.89,20.34,20.34,0,0,1,7.07,12.49,24.35,24.35,0,0,1-1.36,12.75,24.09,24.09,0,0,1-3.49,6.59,18.83,18.83,0,0,1-9.21,6.08,20.21,20.21,0,0,1-6.53,1.06,13.7,13.7,0,0,1-11.74-6.16,16.86,16.86,0,0,1-3.12-7.75c-.38-3.34.17-6.47,2.72-8.94a10.6,10.6,0,0,1,6-2.7,7.29,7.29,0,0,1,5.69,1.24,5.51,5.51,0,0,1,.81,8.18,25.56,25.56,0,0,1-2.35,2.05,2.86,2.86,0,0,0,2,1,9.53,9.53,0,0,0,6.41-2c2.36-1.59,3.1-3.86,2.87-6.59a13,13,0,0,0-1.66-5.87,11.41,11.41,0,0,0-6.6-4.88c-4.77-1.55-9.22-.6-13.39,1.94a26.53,26.53,0,0,0-8.54,8.93c-4,6.34-7.47,12.92-10.81,19.6C925.76,544.11,920,556,914.11,567.81c-1,2-2,4.07-2.9,6.11a.89.89,0,0,1-.74.57c-4.11.65-8.22,1.33-12.32,2l-2.14.36a3.56,3.56,0,0,1,.15-.46c6.36-12.82,12.84-25.57,19.77-38.09,4.34-7.85,8.84-15.63,13.39-23.37a141,141,0,0,1,9.57-14.19,29.74,29.74,0,0,1,17.72-11c1.08-.25,2.21-.28,3.31-.43.24,0,.46-.1.69-.15Z" transform="translate(-873.59 -489.16)"/><path class="cls-1" d="M1047.8,574.14c-1.4-.06-1.4-.06-1.4-1.46v-4.19c0-1.37-.48-2.08-1.54-2.28a2.6,2.6,0,0,0-2.94,1.61,5.67,5.67,0,0,0-.25,1.64c0,1.36,0,2.72,0,4.07,0,.5-.22.6-.65.6s-.64-.12-.64-.61c0-2.57,0-5.15,0-7.72,0-.5.21-.6.65-.6s.66.15.6.62c0,.23,0,.47,0,.84a2.89,2.89,0,0,0,.34-.32,3.4,3.4,0,0,1,3.7-1.19,2.37,2.37,0,0,1,2,2.19,4.3,4.3,0,0,0,.16.69Z" transform="translate(-873.59 -489.16)"/><path class="cls-1" d="M1047.8,550.05c-2.27.05-3.33,1.15-3.39,3.57,0,1.19,0,2.39,0,3.59,0,.52-.22.59-.65.58s-.71,0-.71-.59c0-2.57,0-5.15,0-7.73,0-.48.19-.61.64-.61s.67.14.63.62a3.94,3.94,0,0,0,.1,1.16,3.67,3.67,0,0,1,3.38-2Z" transform="translate(-873.59 -489.16)"/><path class="cls-1" d="M1047.8,583.37l-.51-.5-.39.31a1.43,1.43,0,0,1-2.08-.41,2.38,2.38,0,0,1,0-2.34,1.44,1.44,0,0,1,2-.42c.17.09.32.2.61.39a12.55,12.55,0,0,1,0-1.4,1.57,1.57,0,0,1,.3-.55Zm-2.94-1.75h0c0,.12,0,.24,0,.36a1.21,1.21,0,0,0,1.08,1.21,1.1,1.1,0,0,0,1.36-.85,3.53,3.53,0,0,0,0-1.55A1.13,1.13,0,0,0,1046,580a1.32,1.32,0,0,0-1.11,1.09A4.58,4.58,0,0,0,1044.86,581.62Z" transform="translate(-873.59 -489.16)"/><path class="cls-1" d="M873.59,584.71c1.37-.43,2.7-.87,4.06-1.28a168.3,168.3,0,0,1,21.19-4.81q6.13-1,12.29-1.79c3.38-.44,6.77-.78,10.16-1.08,3.79-.34,7.59-.6,11.39-.85,2.39-.16,4.78-.24,7.17-.37,7.71-.41,15.42-.35,23.13-.34a5,5,0,0,1,.94.11c-2.12.13-4.23.24-6.35.4-2.76.21-5.52.46-8.28.7-2.36.2-4.73.38-7.08.63-2.7.28-5.39.6-8.07.93-2.87.35-5.74.68-8.59,1.11-3.69.55-7.38,1.08-11,1.82-5.43,1.09-10.84,2.27-16.21,3.58a84.71,84.71,0,0,0-14.5,4.89c-.73.32-1.42.72-2.15,1a.92.92,0,0,1-.71,0c-2.43-1.5-4.85-3-7.27-4.54C873.66,584.84,873.65,584.8,873.59,584.71Z" transform="translate(-873.59 -489.16)"/><path class="cls-1" d="M1006.56,549a9.53,9.53,0,0,1-1.22,0,.62.62,0,0,1-.42-.34,3.35,3.35,0,0,0-3.34-2.34,3.81,3.81,0,0,0-3.61,1.81,7,7,0,0,0,.24,7.2,3.9,3.9,0,0,0,4.2,1.34,3.4,3.4,0,0,0,2.62-2.87,1.07,1.07,0,0,1,1.45-.55c.08.06.1.25.09.37a5,5,0,0,1-5,4.41c-4,.13-5.67-2.67-5.93-5.4a8.05,8.05,0,0,1,.92-4.9,5.53,5.53,0,0,1,5.57-2.6,4.66,4.66,0,0,1,3.94,2.53A12.7,12.7,0,0,1,1006.56,549Z" transform="translate(-873.59 -489.16)"/><path class="cls-1" d="M932,551.58c0-1.84,0-3.67,0-5.51,0-.54.18-.68.69-.67,1.56,0,3.12,0,4.68,0,3.27-.08,4.24,2.43,3.63,4.84a3.21,3.21,0,0,1-3.33,2.39q-1.8,0-3.6,0c-.44,0-.6.14-.59.58,0,1.34,0,2.68,0,4,0,.67-.4.54-.79.56s-.72,0-.71-.58C932,555.33,932,553.46,932,551.58Zm1.48-2.56c0,.63,0,1.27,0,1.91,0,.17.25.45.38.45a34.68,34.68,0,0,0,3.82-.1,2.08,2.08,0,0,0,2-2.39,2.2,2.2,0,0,0-2.26-2.23c-1.15,0-2.31,0-3.47,0-.34,0-.47.13-.46.46Z" transform="translate(-873.59 -489.16)"/><path class="cls-1" d="M1012.94,566.29v-1.46c0-.8,0-1.6,0-2.39,0-.46.12-.65.61-.64s.69.1.69.63c0,2.51,0,5,0,7.54,0,1.14,0,2.27,0,3.41,0,.45,0,.76-.62.76s-.73-.18-.67-.7a.78.78,0,0,0,0-.28,9.8,9.8,0,0,1-1.93,1,4,4,0,0,1-5.08-3.57,6.71,6.71,0,0,1,.45-3.45,3.9,3.9,0,0,1,6.21-1,1.81,1.81,0,0,0,.21.18Zm.08,3.56c-.09-.59-.12-1-.22-1.46a2.76,2.76,0,0,0-2.33-2.19,2.51,2.51,0,0,0-2.7,1.25,4.53,4.53,0,0,0,0,4.36,2.53,2.53,0,0,0,2.52,1.4,2.47,2.47,0,0,0,2.35-1.66A14.13,14.13,0,0,0,1013,569.85Z" transform="translate(-873.59 -489.16)"/><path class="cls-1" d="M1013.54,556.65a5.34,5.34,0,0,0-.43.32,4.19,4.19,0,0,1-3.93.82,2.15,2.15,0,0,1-1.74-2,2.18,2.18,0,0,1,1.38-2.47,34.75,34.75,0,0,1,3.53-.81c1.1-.24,1.51-1,1-1.86a2.2,2.2,0,0,0-.17-.25c-.92-1.08-3.48-.69-4,.61a1,1,0,0,1-1.25.45c-.09-.06-.12-.27-.1-.4a2.46,2.46,0,0,1,1.54-2,5.79,5.79,0,0,1,4-.12,2,2,0,0,1,1.43,2.18c0,1.59,0,3.19,0,4.79,0,.46,0,.88.63,1,.11,0,.26.39.23.57a.73.73,0,0,1-.41.48C1014.34,558.14,1014,557.87,1013.54,556.65Zm0-3.5c-.58.13-1,.24-1.47.33s-.9.12-1.35.23a4.69,4.69,0,0,0-1.23.41,1.45,1.45,0,0,0-.13,2.35c1.28.9,3.7.09,4.07-1.41A9.68,9.68,0,0,0,1013.57,553.15Z" transform="translate(-873.59 -489.16)"/><path class="cls-1" d="M1023.51,573.26c0,.46.18.94-.48,1.06-1,.18-1.37-.07-1.78-1.26l-.37.27a4.19,4.19,0,0,1-3.92.88,2.09,2.09,0,0,1-1.75-1.94c-.11-1.38.27-2.24,1.4-2.61a27,27,0,0,1,3.37-.75c1.07-.22,1.53-.74,1.21-1.62a1.54,1.54,0,0,0-.91-.91,7.65,7.65,0,0,0-2.34,0,1.29,1.29,0,0,0-1,1.07c-.18.66-.72.42-1.1.37s-.24-.47-.16-.73a2.8,2.8,0,0,1,2.64-2,8.75,8.75,0,0,1,2.5.11,2,2,0,0,1,1.76,2.2c0,1.62,0,3.23,0,4.85C1022.58,573,1022.71,573.16,1023.51,573.26Zm-2.22-3.69c-1.28.25-2.39.42-3.49.7a1.48,1.48,0,0,0-1.23,1.6c0,.7.52,1.14,1.4,1.32a2.8,2.8,0,0,0,3.11-1.46A10.55,10.55,0,0,0,1021.29,569.57Z" transform="translate(-873.59 -489.16)"/><path class="cls-1" d="M975.06,556.62a4.24,4.24,0,0,1-3.63,1.3,2.4,2.4,0,0,1-2.37-1.89,2.32,2.32,0,0,1,1.64-2.88c1-.3,2.1-.45,3.15-.65.88-.18,1.29-.53,1.3-1.16a1.38,1.38,0,0,0-1.31-1.45,6.51,6.51,0,0,0-1.65,0,1.54,1.54,0,0,0-1.42,1.19c-.18.67-.72.41-1.08.36s-.24-.44-.17-.71a2.52,2.52,0,0,1,1.82-1.82,5.94,5.94,0,0,1,3.54,0,1.92,1.92,0,0,1,1.53,2c0,1.56,0,3.12,0,4.67,0,.55-.13,1.22.76,1.3.07,0,.18.42.15.62a.67.67,0,0,1-.41.41C976,558.12,975.66,557.9,975.06,556.62Zm0-3.4c-.9.14-1.71.25-2.5.41a6.22,6.22,0,0,0-1.46.47,1.33,1.33,0,0,0-.71,1.35,1.25,1.25,0,0,0,.91,1.2,3.11,3.11,0,0,0,3.08-.58C975.34,555.29,975.18,554.24,975.1,553.22Z" transform="translate(-873.59 -489.16)"/><path class="cls-1" d="M1041.91,555a3.29,3.29,0,0,1-3,2.9,6.63,6.63,0,0,1-1.78-.06,3.48,3.48,0,0,1-2.75-2.32,5.76,5.76,0,0,1-.22-3.86,4.07,4.07,0,0,1,4.35-3A3.86,3.86,0,0,1,1042,552c.34,1.63.33,1.63-1.31,1.63s-3.07,0-4.61,0c-.55,0-.73.18-.68.74a2.68,2.68,0,0,0,2.23,2.39,2.42,2.42,0,0,0,2.9-1.33C1040.84,554.72,1041.4,555.13,1041.91,555Zm-6.46-2.55h5.18a2.59,2.59,0,1,0-5.18,0Z" transform="translate(-873.59 -489.16)"/><path class="cls-1" d="M987.4,553.64h-2.64c-.81,0-.88.09-.72.87a2.78,2.78,0,0,0,3.88,2.1,3.6,3.6,0,0,0,1.22-1.15c.26-.33.92-.64,1.25-.4.09.06.11.31.07.45a3.4,3.4,0,0,1-2.93,2.4c-3.06.26-4.88-1.41-4.93-4.51a4.3,4.3,0,0,1,2.32-4.32c2.15-1.08,5.1-.39,5.73,3.14.27,1.54.38,1.42-1.21,1.42Zm1.92-1.19a2.67,2.67,0,0,0-4.13-2.23,2.58,2.58,0,0,0-1.17,2.23Z" transform="translate(-873.59 -489.16)"/><path class="cls-1" d="M975.12,561.81c1.16,0,2.32,0,3.48,0,.53,0,.55.27.56.68s-.12.59-.58.59c-1.8,0-3.59,0-5.39,0-.48,0-.64.15-.63.61q0,1.44,0,2.88c0,.52.22.66.68.65,1.44,0,2.88,0,4.32,0,.75,0,.84.13.77.89-.05.39-.3.36-.56.37-1.52,0-3,0-4.56,0-.5,0-.66.16-.65.65,0,1.47,0,2.95,0,4.43,0,.62-.32.6-.76.61s-.74,0-.74-.62c0-3.7,0-7.39,0-11.09,0-.47.15-.63.61-.62C972.84,561.83,974,561.81,975.12,561.81Z" transform="translate(-873.59 -489.16)"/><path class="cls-1" d="M951.09,557.93a4.13,4.13,0,0,1-4.34-4.19,5.07,5.07,0,0,1,1.1-3.74,4.25,4.25,0,0,1,4.61-1.16,3.75,3.75,0,0,1,2.8,3.31,7.47,7.47,0,0,1,0,2.54A3.87,3.87,0,0,1,951.09,557.93Zm-3-4.65.13,0c0,.24,0,.48,0,.72a3,3,0,0,0,2.41,2.77,2.75,2.75,0,0,0,3-1.7,4.5,4.5,0,0,0,0-3.65,2.62,2.62,0,0,0-2.5-1.66,2.56,2.56,0,0,0-2.51,1.62A13,13,0,0,0,948.08,553.28Z" transform="translate(-873.59 -489.16)"/><path class="cls-1" d="M983.73,565.06a4.13,4.13,0,0,1,4.28,4.33,7.11,7.11,0,0,1-.16,1.72c-.42,1.83-1.79,3.4-4.64,3.23a4,4,0,0,1-3.71-3.6,7.13,7.13,0,0,1,.07-2.48A3.88,3.88,0,0,1,983.73,565.06Zm3,4.65a11.7,11.7,0,0,0-.66-2.12,2.69,2.69,0,0,0-4.37-.54,4.28,4.28,0,0,0,0,5.29,2.68,2.68,0,0,0,4.33-.48A10.62,10.62,0,0,0,986.73,569.71Z" transform="translate(-873.59 -489.16)"/><path class="cls-1" d="M1035.17,565.06a4.12,4.12,0,0,1,4.31,4.22,5.56,5.56,0,0,1-.65,3.11,4.1,4.1,0,0,1-4.56,1.88,3.84,3.84,0,0,1-3.31-3.51,8.11,8.11,0,0,1,0-2.36A3.92,3.92,0,0,1,1035.17,565.06Zm-3,4.74a11.35,11.35,0,0,0,.33,1.52,2.76,2.76,0,0,0,5.17.19,4.85,4.85,0,0,0,.29-2.69,3,3,0,0,0-2.68-2.64,2.84,2.84,0,0,0-2.92,2.32C1032.32,568.89,1032.29,569.29,1032.22,569.8Z" transform="translate(-873.59 -489.16)"/><path class="cls-1" d="M963.06,551.29c-.59,0-1.17.23-1.48-.62a1.62,1.62,0,0,0-1.6-.87,3.83,3.83,0,0,0-1.58.24,1.53,1.53,0,0,0-.7.85.85.85,0,0,0,.56,1.07c.66.26,1.36.44,2,.65a19.43,19.43,0,0,1,1.88.56,2.32,2.32,0,0,1,.49,4,5.44,5.44,0,0,1-5.46.15,2.5,2.5,0,0,1-1.07-1.6c0-.2.1-.61.19-.62.36,0,.82-.26,1.06.24a3,3,0,0,0,4.16,1.13,1.19,1.19,0,0,0-.06-2.1,9.91,9.91,0,0,0-1.86-.62,17.45,17.45,0,0,1-2.16-.67,2.13,2.13,0,0,1-.36-3.69,4.9,4.9,0,0,1,5-.06A2.2,2.2,0,0,1,963.06,551.29Z" transform="translate(-873.59 -489.16)"/><path class="cls-1" d="M1018.06,550.17a3,3,0,0,1,2-1.41,7,7,0,0,1,2.29.13c1.25.34,1.6,1.45,1.63,2.59.07,1.93,0,3.87,0,5.8,0,.59-.36.49-.71.51s-.65,0-.64-.53c0-1.73,0-3.47,0-5.2,0-1.25-.37-1.9-1.21-2.17a2.58,2.58,0,0,0-3,1,3.46,3.46,0,0,0-.47,1.57c-.06,1.57,0,3.15,0,4.72,0,.54-.21.64-.68.63s-.69,0-.69-.61q0-3.86,0-7.72c0-.49.18-.6.63-.61s.66.16.6.63a4.5,4.5,0,0,0,0,.63Z" transform="translate(-873.59 -489.16)"/><path class="cls-1" d="M998.82,566.68a4.65,4.65,0,0,0,.39-.35,3.35,3.35,0,0,1,3.64-1.19,2.44,2.44,0,0,1,2.07,2.63c.05,2,0,3.91,0,5.87,0,.54-.34.48-.68.48s-.68,0-.67-.5c0-1.71,0-3.43,0-5.15,0-1.36-.4-2-1.42-2.24a2.6,2.6,0,0,0-2.89,1.29A3.75,3.75,0,0,0,999,569c0,1.51,0,3,0,4.55,0,.54-.22.62-.68.62s-.69-.07-.68-.62q0-3.85,0-7.73c0-.45.16-.59.59-.58s.71.07.65.59A8,8,0,0,0,998.82,566.68Z" transform="translate(-873.59 -489.16)"/><path class="cls-1" d="M994.82,572.85a1.86,1.86,0,0,0-.27.29,3.62,3.62,0,0,1-4.35.85,2.26,2.26,0,0,1-1.23-1.94c-.08-1.23-.09-2.46-.12-3.7,0-.86,0-1.72,0-2.57,0-.53.25-.58.66-.58s.72,0,.7.6c0,1.65,0,3.31,0,5s.56,2.36,1.82,2.45a2.52,2.52,0,0,0,2.81-2.27c.12-1.67.11-3.35.1-5,0-.59.19-.77.76-.73.38,0,.53.14.53.53,0,2.61,0,5.23,0,7.84,0,.47-.21.57-.62.56s-.68,0-.63-.54a5.45,5.45,0,0,0,0-.7Z" transform="translate(-873.59 -489.16)"/><path class="cls-1" d="M1033.2,551.46c-.93.27-1.2.17-1.6-.55a2.17,2.17,0,0,0-2-1.13,2.45,2.45,0,0,0-2.37,1.24,4.71,4.71,0,0,0-.06,4.48,2.38,2.38,0,0,0,2.49,1.3,2.34,2.34,0,0,0,2.14-1.57.9.9,0,0,1,1.24-.57.47.47,0,0,1,.17.4,3.6,3.6,0,0,1-3.32,2.87c-3.37.27-4.9-2.24-4.59-5.2a4.78,4.78,0,0,1,1.24-3,4.6,4.6,0,0,1,5.58-.32A3,3,0,0,1,1033.2,551.46Z" transform="translate(-873.59 -489.16)"/><path class="cls-1" d="M1024.59,565.21c0-.75,0-1.42,0-2.09s.31-.56.71-.58.68.09.64.6,0,1,0,1.55.12.56.51.52c.2,0,.41,0,.6,0,.56-.08.74.15.71.71,0,.4-.17.5-.55.5-1.27,0-1.27,0-1.27,1.31v4.07c0,1,.16,1.19,1.18,1.18.44,0,.66.09.64.6s-.16.57-.57.55-.6,0-.9,0c-1.24-.05-1.67-.47-1.68-1.74,0-1.74,0-3.48,0-5.21,0-.62-.17-.81-.77-.76-.32,0-.81.22-.81-.45s0-.74.73-.74Z" transform="translate(-873.59 -489.16)"/><path class="cls-1" d="M980.12,547.46c0,1.32,0,1.34,1.33,1.41.43,0,.47.24.47.58s-.06.54-.48.56c-1.32,0-1.32,0-1.32,1.39s0,2.72,0,4.08c0,.89.2,1.12,1.08,1.08.6,0,.77.18.73.75,0,.37-.15.51-.51.48s-1-.06-1.55-.13a1.09,1.09,0,0,1-1-1c-.06-1.12-.09-2.23-.11-3.35,0-.84,0-1.68,0-2.51,0-.62-.16-.85-.77-.76s-.8-.06-.74-.66c0-.33.17-.47.49-.46h.36c.47,0,.69-.12.65-.64s0-1.07,0-1.61.34-.48.68-.48.71-.06.67.49C980.1,546.9,980.12,547.18,980.12,547.46Z" transform="translate(-873.59 -489.16)"/><path class="cls-1" d="M965.23,553.1c0-.8,0-1.6,0-2.39,0-.59-.17-.78-.74-.72-.37,0-.78.11-.76-.52,0-.43.13-.6.58-.6.91,0,.91,0,.91-.92,0-.41,0-.84,0-1.25s.26-.58.67-.57.72,0,.69.54,0,1,0,1.56.2.69.67.65c.16,0,.32,0,.48,0,.41,0,.68,0,.68.57s-.26.56-.67.56c-1.24,0-1.15-.2-1.15,1.15s0,2.91,0,4.37c0,.85.21,1,1.07,1.05s.77.06.74.78c0,.35-.17.46-.49.44-.53,0-1.08,0-1.6-.14a1.13,1.13,0,0,1-1-1.08,7,7,0,0,1-.09-.77c0-.9,0-1.8,0-2.7Z" transform="translate(-873.59 -489.16)"/><path class="cls-1" d="M943.78,550.6c.23-.31.45-.65.7-1a2.73,2.73,0,0,1,1.86-1c.19,0,.56.19.56.3,0,.37.28.88-.31,1.08-.2.07-.43.05-.64.1a2.67,2.67,0,0,0-2.16,2.49c-.11,1.44-.1,2.9-.13,4.36,0,.74-.37,1-1.09.75a.6.6,0,0,1-.24-.46c0-2.63,0-5.27,0-7.9,0-.51.26-.52.64-.53s.65.09.62.56,0,.77,0,1.16Z" transform="translate(-873.59 -489.16)"/><path class="cls-1" d="M1028.55,569.64c0-1.27,0-2.55,0-3.83,0-.54.25-.6.7-.61s.67.12.66.63q0,3.84,0,7.66c0,.5-.17.64-.66.65s-.71-.12-.7-.67C1028.58,572.19,1028.55,570.92,1028.55,569.64Z" transform="translate(-873.59 -489.16)"/><path class="cls-1" d="M1011,578.57a2.41,2.41,0,0,1,.07.37c0,1.3,0,2.6,0,3.89a1.38,1.38,0,0,1-.16.47c-.16-.09-.38-.14-.47-.27-.77-1.14-1.52-2.29-2.28-3.44l-.38-.51-.18,0v4.14l-.22,0a2.57,2.57,0,0,1-.08-.47c0-1.25,0-2.51,0-3.77a1.52,1.52,0,0,1,.19-.51,2.11,2.11,0,0,1,.44.33c.73,1.09,1.45,2.19,2.18,3.29.14.21.29.41.44.61l.2,0v-4.15Z" transform="translate(-873.59 -489.16)"/><path class="cls-1" d="M1016,580l.93,2.89h.17c.2-.74.39-1.49.62-2.22a3.72,3.72,0,0,1,.38-.67,4.07,4.07,0,0,1,.35.69c.21.72.39,1.44.58,2.16h.18l.93-2.86.21.07c-.37,1.11-.73,2.22-1.1,3.33H1019l-.81-2.91H1018c-.18.68-.37,1.35-.56,2a4.54,4.54,0,0,1-.18.63c-.11.3-.37.32-.46.06-.36-1-.66-2.09-1-3.14Z" transform="translate(-873.59 -489.16)"/><path class="cls-1" d="M1023.45,583.13h2.94v.13h-3.6l3.42-4.55h-2.92v-.16h3.41l-3.3,4.38Z" transform="translate(-873.59 -489.16)"/><path class="cls-1" d="M1036.89,580.93c.17-.92.62-1.19,1.61-1.11a.93.93,0,0,1,1,1c0,.54,0,1.08,0,1.61a5.43,5.43,0,0,0,.28,1l-.64-.4a9.43,9.43,0,0,1-1.46.36.85.85,0,0,1-1-.78.88.88,0,0,1,.74-1.06c.38-.1.79-.1,1.16-.22s.58-.31.57-.46a1.1,1.1,0,0,0-.4-.77,1.15,1.15,0,0,0-1.59.45Zm2.23.57a7.79,7.79,0,0,0-1.6.3,1.08,1.08,0,0,0-.52.8c0,.41.35.59.75.61C1038.89,583.26,1039.46,582.5,1039.12,581.5Z" transform="translate(-873.59 -489.16)"/><path class="cls-1" d="M1033.7,583.05a8.32,8.32,0,0,1-1.49.37.93.93,0,0,1-.25-1.84c.38-.1.79-.09,1.16-.22s.6-.33.59-.51a1,1,0,0,0-.44-.74c-.58-.33-1.07-.12-1.83.75a1.59,1.59,0,0,1,.09-.46,1.52,1.52,0,0,1,1.75-.56c.6.16.73.61.72,1.16a9.89,9.89,0,0,0,0,1.44,5.49,5.49,0,0,0,.29,1Zm.09-1.23c0-.05-.17-.29-.27-.28a7.38,7.38,0,0,0-1.62.32.86.86,0,0,0-.38.66.84.84,0,0,0,.4.6A1.34,1.34,0,0,0,1033.79,581.82Z" transform="translate(-873.59 -489.16)"/><path class="cls-1" d="M1015,582.52a1.16,1.16,0,0,1-1,.9,1.55,1.55,0,0,1-1.63-.62,2.4,2.4,0,0,1,.09-2.43,1.48,1.48,0,0,1,1.61-.52,1.37,1.37,0,0,1,1,1.18c.08.4,0,.65-.51.62s-1.16,0-1.74,0-.56.23-.43.63a1.28,1.28,0,0,0,2.25.44,3.84,3.84,0,0,0,.18-.35Zm-1.44-1h.77c.51,0,.7-.24.42-.67a1.61,1.61,0,0,0-.95-.75,1.76,1.76,0,0,0-1.12.47c-.18.15-.18.53-.27.8l.73.15A3,3,0,0,0,1013.58,581.48Z" transform="translate(-873.59 -489.16)"/><path class="cls-1" d="M1027.65,581.64a1.23,1.23,0,0,0,.64,1.44,1.31,1.31,0,0,0,1.82-.65l.15.14a3,3,0,0,1-.43.57,1.48,1.48,0,0,1-2.35-.65,3.51,3.51,0,0,1,0-1.79,1.4,1.4,0,0,1,1.7-.88,1.53,1.53,0,0,1,1.14,1.32c0,.34-.07.51-.45.5Zm1.19-.17h.71c.55,0,.63-.16.46-.66A1.12,1.12,0,0,0,1029,580a1.18,1.18,0,0,0-1.17.68c-.31.61-.21.78.46.8Z" transform="translate(-873.59 -489.16)"/><path class="cls-1" d="M1002.33,581.64c0,1.11-.61,1.8-1.56,1.8a1.62,1.62,0,0,1-1.61-1.83c0-1.14.59-1.8,1.61-1.8S1002.33,580.46,1002.33,581.64Zm-.23,0c-.06-.84-.31-1.31-.87-1.53a1.22,1.22,0,0,0-1.42.34,2,2,0,0,0,0,2.4,1.24,1.24,0,0,0,2-.24A4.47,4.47,0,0,0,1002.1,581.61Z" transform="translate(-873.59 -489.16)"/><path class="cls-1" d="M1040.82,583.24v-3.33l.23.25a8.57,8.57,0,0,1,1.46-.32.81.81,0,0,1,.89.73c.07.88,0,1.77,0,2.66l-.15,0a1.8,1.8,0,0,1-.08-.39c0-.57,0-1.15,0-1.73,0-.77-.29-1.12-.91-1.14a1.16,1.16,0,0,0-1.23,1.13c0,.58,0,1.16,0,1.73,0,.13,0,.26,0,.39Z" transform="translate(-873.59 -489.16)"/><path class="cls-1" d="M1029.88,562.63c.06.49,0,.82-.64.82s-.7-.34-.7-.84,0-.82.67-.82S1030,562.12,1029.88,562.63Z" transform="translate(-873.59 -489.16)"/><path class="cls-1" d="M1004.42,578.5a.7.7,0,0,0-.66,1c0,.22.29.4.45.6l-.51.12v3.08h-.17c0-1-.1-2.06-.16-3.09,0,0-.16-.09-.14-.07a6.51,6.51,0,0,0,.24-.91C1003.53,578.53,1003.75,578.35,1004.42,578.5Z" transform="translate(-873.59 -489.16)"/><ellipse class="cls-1" cx="161.91" cy="91.75" rx="0.09" ry="3.3"/></svg>
