<svg xmlns="http://www.w3.org/2000/svg" viewBox="0 0 1304.57 882.52"><defs><style>.cls-1{fill:#666;}.cls-1,.cls-14,.cls-2,.cls-26,.cls-27,.cls-28,.cls-3,.cls-30,.cls-35,.cls-36,.cls-37,.cls-38,.cls-4,.cls-41,.cls-42{opacity:0.5;}.cls-2,.cls-8{fill:#999;}.cls-3,.cls-36,.cls-38,.cls-39,.cls-40,.cls-5,.cls-6,.cls-9{fill:#d3d3d3;}.cls-16,.cls-4,.cls-7{fill:#b3b3b3;}.cls-6{opacity:0.4;}.cls-10,.cls-39,.cls-7,.cls-8,.cls-9{opacity:0.2;}.cls-10,.cls-13,.cls-41{fill:#ccc;}.cls-11{fill:#e6e6e6;}.cls-12{fill:#f2f2f2;}.cls-14,.cls-15,.cls-18,.cls-19,.cls-20,.cls-21,.cls-22,.cls-23,.cls-24,.cls-25,.cls-26,.cls-27,.cls-28,.cls-29,.cls-30,.cls-31,.cls-32,.cls-33,.cls-34,.cls-37,.cls-43,.cls-44,.cls-49,.cls-50{fill:none;}.cls-14{stroke:gray;stroke-width:20px;}.cls-14,.cls-15,.cls-22,.cls-23,.cls-24,.cls-26,.cls-27,.cls-31,.cls-35,.cls-38,.cls-39,.cls-40,.cls-43,.cls-44,.cls-45,.cls-48,.cls-49,.cls-50{stroke-miterlimit:10;}.cls-15{stroke:#ccc;stroke-width:3px;}.cls-17,.cls-35{fill:#fff;}.cls-18,.cls-23{stroke:#606060;}.cls-18,.cls-19,.cls-20,.cls-21,.cls-25,.cls-28,.cls-29,.cls-30{stroke-linecap:round;}.cls-18,.cls-19,.cls-20,.cls-21,.cls-25,.cls-28,.cls-29,.cls-30,.cls-36,.cls-37{stroke-linejoin:round;}.cls-18,.cls-25,.cls-26,.cls-31,.cls-33,.cls-36,.cls-39,.cls-40{stroke-width:0.5px;}.cls-19,.cls-20,.cls-22{stroke:#999;}.cls-19,.cls-46,.cls-49{opacity:0.8;}.cls-21,.cls-24,.cls-25,.cls-26,.cls-27,.cls-28,.cls-29,.cls-30,.cls-31{stroke:#666;}.cls-23,.cls-48{stroke-width:0.75px;}.cls-28,.cls-29{stroke-width:0.25px;}.cls-32,.cls-33,.cls-34{stroke:#1d1905;stroke-miterlimit:2;}.cls-34{stroke-width:2px;}.cls-35,.cls-36,.cls-37,.cls-38,.cls-39,.cls-40{stroke:#d3d3d3;}.cls-35,.cls-38,.cls-50{stroke-width:4px;}.cls-42{fill:gray;}.cls-43,.cls-44,.cls-45,.cls-48,.cls-49,.cls-50{stroke:#0087cc;}.cls-43{stroke-width:21px;}.cls-44,.cls-45{stroke-width:6px;}.cls-45,.cls-46,.cls-47,.cls-48{fill:#0087cc;}</style></defs><title>Shop</title><g id="Gray_Shadow" data-name="Gray Shadow"><polygon class="cls-1" points="725.07 777.5 730.07 515.5 970.07 514.5 967.07 776.5 725.07 777.5"/><polygon class="cls-1" points="1002.07 775.5 1003.07 516.5 1229.07 519.5 1228.07 774.5 1002.07 775.5"/><rect class="cls-2" x="473.57" y="610" width="70" height="47"/><rect class="cls-2" x="474.57" y="663" width="68" height="73"/><polygon class="cls-3" points="635.57 609 635.57 676 682.57 676 682.57 610 635.57 609"/><rect class="cls-3" x="637.57" y="684" width="46" height="74"/><polygon class="cls-2" points="221.57 574 257.57 581 257.57 627 221.57 619 221.57 574"/><polygon class="cls-2" points="221.57 624.37 257.57 632.37 257.57 706.37 221.57 696.37 221.57 624.37"/><polygon class="cls-2" points="296.57 590 334.57 598 334.57 642 296.57 634 296.57 590"/><polygon class="cls-2" points="296.57 639 335.57 647 335.57 727 296.57 716 296.57 639"/><polygon class="cls-4" points="201.33 720.08 360.57 770 154.33 777.08 201.33 720.08"/><polygon class="cls-3" points="225.57 261 225.57 320 218.57 323 218.57 375 296.57 288 296.57 252 225.57 261"/><polygon class="cls-5" points="201.57 322 211.57 319 226.57 319 218.57 322 201.57 322"/><polyline class="cls-6" points="619.57 773 702.57 774 691.57 763 637.57 601 620.57 601"/><polyline class="cls-7" points="354.57 404 360.57 770 481.57 770"/><polyline class="cls-8" points="203.57 322 203.57 720 231.57 729"/><polyline class="cls-9" points="337.57 81 396.57 81 396.57 114 337.57 114"/><rect class="cls-9" x="337.57" y="132" width="58" height="31"/><polyline class="cls-9" points="467.57 83 467.57 114 522.57 114 522.57 83"/><polygon class="cls-9" points="337.57 180 395.57 180 395.57 203 369.9 212 337.57 212 337.57 180"/><polygon class="cls-9" points="469.29 132.31 523.29 132.31 522.29 158.31 509.86 163.58 469.29 164.31 469.29 132.31"/><polyline class="cls-10" points="832.57 293 832.57 273 972.22 252.48 1111.57 231 1111.57 296"/><path class="cls-11" d="M1454.48,403.45v11l279.2-52.8c1-9,7.18-11.71,10.7-13.2,4.3-1.8.68-.09,6.88-2.77,2.42-1,4.06-3.53,3.42-6" transform="translate(-616.43 -142)"/><path class="cls-11" d="M1754.48,340.45l-279,41c.64,2.5-1,5-3.42,6-6.2,2.68-2.58,1-6.88,2.77-3.52,1.49-9.7,4.2-10.7,13.2" transform="translate(-616.43 -142)"/><polygon class="cls-11" points="1117.57 219 1117.57 230 1112.57 231 838.57 272 1117.57 219"/><polygon class="cls-11" points="593.07 133.5 880.07 104.5 1138.07 192.5 859.07 232.5 593.07 133.5"/><path class="cls-12" d="M943,378v0Z" transform="translate(-616.43 -142)"/><polygon class="cls-13" points="326.57 227 326.57 236 592.57 143 592.57 134 326.57 227"/><polyline class="cls-13" points="592.57 132 858.57 232 858.57 240 592.57 143"/><path class="cls-14" d="M312,670" transform="translate(-616.43 -142)"/><polygon class="cls-12" points="1082.07 74.81 1050.13 75.43 1050.16 112.42 1082.16 112.42 1082.07 74.81"/><polygon class="cls-12" points="1161.24 74.14 1129.3 74.76 1129.33 111.75 1161.33 111.75 1161.24 74.14"/><rect class="cls-11" x="609.57" y="109" width="31" height="6"/><rect class="cls-11" x="615.57" y="103" width="18" height="3"/><polyline class="cls-15" points="897.07 60.5 958.07 60.5 938.07 77.5 989.07 76.5"/><polyline class="cls-15" points="999.07 71.5 1042.07 70.5 1067.07 35.5 1092.07 71.5 1118.07 71.5 1146.07 34.5 1169.07 69.5 1212.07 69.5"/><polyline class="cls-15" points="1203.07 55.5 1221.07 40.5 1266.07 79.5 1303.07 79.5"/><polygon class="cls-16" points="1005.57 412 1065.69 499 1187.57 501 1186.75 412 1005.57 412"/><path d="M1699.68,586.38a27.57,27.57,0,0,0,7.94-8.67,2.11,2.11,0,0,0-.09-2.68c-2-2.44-4-4.86-6.16-7.4a23.71,23.71,0,0,1-8.31,8.2.3.3,0,0,1,.1-.28,13.69,13.69,0,0,1,1.38-1.14,22.36,22.36,0,0,0,6.14-6.53.83.83,0,0,0,.13-.69,18.06,18.06,0,0,0-1.21-1.49c-2.41,3.43-4.86,6.41-8.36,8.32a1.76,1.76,0,0,1,.61-.71,29.34,29.34,0,0,0,7.22-7.56.58.58,0,0,0,0-.87c-1.6-1.75-3.2-3.49-4.76-5.27-1-1.1-1.56-1.43-3.22-.55a37.8,37.8,0,0,0-11,7.9c-1.9,2.11-3.78,4.2-4.82,6.91a1.12,1.12,0,0,0,.21,1.33c1.81,1.94,3.64,3.86,5.43,5.81,2.58,2.82,5.17,5.64,7.67,8.52a3.34,3.34,0,0,0,4,1.23,6.83,6.83,0,0,0,1.37-.53C1695.87,589,1697.81,587.72,1699.68,586.38Zm-21.61-13.82c.27-3.54,10.38-11.66,14-11.23-.16.27-.27.51-.42.71-2.05,2.67-4.72,4.68-7.28,6.8a20.87,20.87,0,0,1-5.8,3.6A4.94,4.94,0,0,1,1678.07,572.56Zm12.49,13.27a3.11,3.11,0,0,1-1,.46c-.24-.14-.5-.2-.61-.36-1.75-2.65-4.26-4.6-6.4-6.9a20.65,20.65,0,0,1-1.58-1.92c-.18-.26-.36-.79-.23-1,.33-.42,1.19-.23,1.56.19,1.34,1.51,2.68,3,4.05,4.51,1.07,1.17,2.18,2.29,3.27,3.45a4.48,4.48,0,0,1,.57.73C1690.39,585.3,1690.64,585.76,1690.56,585.83Z" transform="translate(-616.43 -142)"/><path d="M1789.34,571.33a30.46,30.46,0,0,0-11.23-10.45,13.82,13.82,0,0,0-5-1.72,3.4,3.4,0,0,0-.73.58c-2.37,2.86-4.71,5.75-7.08,8.61-1.82,2.2-3.63,4.41-5.52,6.54a2.6,2.6,0,0,0-.27,3.34,10.48,10.48,0,0,0,.83,1.32,35.71,35.71,0,0,0,8,7.77c2,1.42,4.23,2.6,6.37,3.87a1.38,1.38,0,0,0,1.73-.19,14.92,14.92,0,0,0,1.44-1.31c1.33-1.49,2.6-3,3.94-4.52,2.95-3.28,5.92-6.54,8.87-9.83a.87.87,0,0,0,.17-.75A25.9,25.9,0,0,0,1789.34,571.33Zm-22.34.61c-.59.65-1.16,1.32-1.7,2s-.92.86-1.88.34c.62-1.73,8.23-9.78,10-10.49a3,3,0,0,1-.18.82,11.88,11.88,0,0,1-1.27,1.85C1770.35,568.32,1768.66,570.11,1767,571.94Zm9.9,5.15a15.88,15.88,0,0,1-4.76-4.21l.15-.16,4.78,4.2Zm-2.63-6.8,5.34,4.44C1778,574.51,1774.63,571.66,1774.27,570.29Zm13.66,2.85a47.61,47.61,0,0,1-14-12C1777.94,560.88,1788.27,569.7,1787.93,573.14Z" transform="translate(-616.43 -142)"/><path d="M1745.89,613.87a13.57,13.57,0,0,1-3.66-4.1,10.22,10.22,0,0,0-1.27-1.67,1.74,1.74,0,0,0-2-.53,4.86,4.86,0,0,1-3.28.1c-.93-.31-1.92-.45-2.86-.72-.54-.15-.64.07-.68.52a.78.78,0,0,0,.69.94,22.88,22.88,0,0,1,2.32.68,13.45,13.45,0,0,1,6.82,5,12.71,12.71,0,0,1,1.24,12.23c-2,5.37-8.39,9.12-14,7.47a12.87,12.87,0,0,1-7.84-6,14.16,14.16,0,0,1-1.68-7.33c0-.55,0-1-.78-1s-.71.55-.7,1.05c0,1,0,2,.08,3,0,.6-.21.86-.81.85s-1.19,0-1.84,0a4.21,4.21,0,0,0,0,.45c-.14,2.08,1,3.48,2.39,4.85s2.64,2.86,4,4.29c.84.92,1.71,1.83,2.51,2.78a1.2,1.2,0,0,0,1.55.3c.26-.12.43-.58.52-.92.36-1.48.32-1.38,1.87-1a17.18,17.18,0,0,0,4.6.59,13.15,13.15,0,0,0,5.62-1.72,13.49,13.49,0,0,0,6.22-6.41,15.4,15.4,0,0,0,1-7.31c-.08-1.63-.08-1.66,1.56-1.77.63,0,.74-.32.63-.85A5.7,5.7,0,0,0,1745.89,613.87Z" transform="translate(-616.43 -142)"/><path d="M1726,628.56a8.25,8.25,0,0,0,8.15,2.09c4-1.09,6.89-5,7-9.7a10.51,10.51,0,0,0-2.93-6.57,8.43,8.43,0,0,0-7-2.8,9.37,9.37,0,0,0-7,4.4A10,10,0,0,0,1726,628.56Zm-.81-10.91a1.52,1.52,0,0,1,1.8-1.15,11.61,11.61,0,0,0,1.32,0,7.66,7.66,0,0,1,7.91,4.76,8.55,8.55,0,0,1,.38,5.79,3,3,0,0,1-2.32,2c-3.15,1-5.69-.11-7.77-2.41C1724.09,624,1723.92,620.93,1725.18,617.65Z" transform="translate(-616.43 -142)"/><path d="M1719,613.75l.21-.17a20.21,20.21,0,0,0-1.44-2.63c-1.8-2.42-3.67-4.78-5.54-7.15a34.45,34.45,0,0,0-17.86-12c-1.19-.35-.86.6-1.07,1-.3.58.25.65.65.77a32.81,32.81,0,0,1,3.57,1.1,34.23,34.23,0,0,1,14.08,10.85c1.57,2,3.18,4,4.78,6.06A7,7,0,0,0,1719,613.75Z" transform="translate(-616.43 -142)"/><path d="M1707.18,580.33c.22,1,.4,2.09.67,3.11a23.29,23.29,0,0,0,4.1,8.3c3.79,4.92,7.68,9.75,11.54,14.61.84,1.06.85,1,2.18.3l-2-2.46c-3.45-4.34-6.93-8.63-10.31-13a20.42,20.42,0,0,1-3.68-7.07c-.49-1.85-1-3.71-1.45-5.56a4,4,0,0,0-.29-.61A2.75,2.75,0,0,0,1707.18,580.33Z" transform="translate(-616.43 -142)"/><path d="M1744,607.16a17.44,17.44,0,0,1,2-2.34,64,64,0,0,0,7.88-10c3.08-4.52,4.12-9.76,5-15a7.26,7.26,0,0,0,0-1.24c-1,.64-1.27.85-1.51,1.8-.4,1.55-.78,3.12-1.09,4.69a26.94,26.94,0,0,1-4.14,9.81,87.61,87.61,0,0,1-7.6,9.37c-.93,1-1.71,2.19-2.66,3.42C1743,607.92,1743.53,607.89,1744,607.16Z" transform="translate(-616.43 -142)"/><path d="M1770.79,591.26a33.25,33.25,0,0,0-11.88,9.27c-1.9,2.37-3.84,4.72-5.73,7.1-1.11,1.4-2.21,2.81-3.23,4.28a10.1,10.1,0,0,0-.85,2,7.38,7.38,0,0,0,3.29-2.64c3-3.8,6-7.65,9.11-11.34a24,24,0,0,1,9.06-6.82c.9-.37,1.82-.69,2.79-1.06C1772.32,590.6,1772.19,590.59,1770.79,591.26Z" transform="translate(-616.43 -142)"/><path d="M1722.12,606.4c-2.35-2.74-4.78-5.42-7.15-8.14a48.66,48.66,0,0,1-6.87-9.51c-.52-1-1-2-1.45-3.07-1,.45-1.09.57-.94,1a22,22,0,0,0,3.83,7.31q4.05,4.83,8.18,9.6,1.82,2.1,3.77,4a13.2,13.2,0,0,0,1.81,1.3l.29-.28A18.74,18.74,0,0,0,1722.12,606.4Z" transform="translate(-616.43 -142)"/><path d="M1757,601.68c.17-.23.35-.43.5-.66a29.49,29.49,0,0,1,9.47-9.42,1.53,1.53,0,0,0,.68-2,2.74,2.74,0,0,0-.43.19c-1.88,1.35-3.8,2.64-5.62,4.06-2,1.54-3.29,3.67-4.78,5.63C1756.06,600.46,1756.06,600.69,1757,601.68Z" transform="translate(-616.43 -142)"/><path class="cls-17" d="M1691.66,562c.15-.2.26-.44.42-.71" transform="translate(-616.43 -142)"/><path class="cls-17" d="M1678.07,572.56a4.94,4.94,0,0,0,.51-.12" transform="translate(-616.43 -142)"/></g><g id="Gray_sketch" data-name="Gray sketch"><path class="cls-18" d="M647.5,212.5" transform="translate(-616.43 -142)"/><polyline class="cls-19" points="202.05 381.44 203.05 414.17 202.07 720.5"/><polyline class="cls-20" points="1295.57 407.22 359.98 400.38 202.07 380.5 201.07 321.5"/><path class="cls-18" d="M709.41,752.06" transform="translate(-616.43 -142)"/><path class="cls-18" d="M1077.25,745.12" transform="translate(-616.43 -142)"/><path class="cls-18" d="M926.5,286.5" transform="translate(-616.43 -142)"/><path class="cls-18" d="M699.5,352.5" transform="translate(-616.43 -142)"/><path class="cls-21" d="M1911.66,549" transform="translate(-616.43 -142)"/><path class="cls-21" d="M1868.5,440.5" transform="translate(-616.43 -142)"/><path class="cls-21" d="M913.5,429.5" transform="translate(-616.43 -142)"/><polyline class="cls-22" points="619.07 773.5 628.07 763.5 628.07 601.5 689.07 601.5 690.08 763.71"/><path class="cls-23" d="M791.42,778.5" transform="translate(-616.43 -142)"/><polyline class="cls-24" points="628.07 763.5 690.31 763.5 701.31 773.5 619.07 773.5"/><path class="cls-18" d="M572.5,280.5" transform="translate(-616.43 -142)"/><line class="cls-25" x1="201.07" y1="321.5" x2="210.07" y2="318.5"/><polyline class="cls-20" points="210.07 318.5 210.07 259.5 225.07 259.5"/><line class="cls-20" x1="210.07" y1="259.5" x2="294.07" y2="251.5"/><polyline class="cls-22" points="619.03 772.48 620.03 601.48 700.03 601.48 701.03 772.69"/><path class="cls-18" d="M1303.5,448.5" transform="translate(-616.43 -142)"/><path class="cls-26" d="M1475.5,374.5" transform="translate(-616.43 -142)"/><path class="cls-26" d="M1454.5,403.5" transform="translate(-616.43 -142)"/><polyline class="cls-27" points="353.77 288.28 353.17 268.75 348.17 268.75 348.17 257.75"/><path class="cls-27" d="M964.59,399.75c-1-9-7.18-11.71-10.7-13.19-4.3-1.81-.68-.1-6.88-2.77-2.42-1-4.06-3.54-3.42-6" transform="translate(-616.43 -142)"/><path class="cls-28" d="M1249.5,247.5c2,3,3.67,3.46,7,4" transform="translate(-616.43 -142)"/><path class="cls-28" d="M1233.67,247.15c-2,3-3.67,3.46-7,4" transform="translate(-616.43 -142)"/><path class="cls-25" d="M1615.5,211.5" transform="translate(-616.43 -142)"/><path class="cls-25" d="M1540.5,201.5" transform="translate(-616.43 -142)"/><path class="cls-25" d="M1817.27,167.84" transform="translate(-616.43 -142)"/><path class="cls-25" d="M1786.49,167.22" transform="translate(-616.43 -142)"/><line class="cls-29" x1="924.07" y1="60.5" x2="924.07" y2="116.5"/><path class="cls-29" d="M1615.5,214.5" transform="translate(-616.43 -142)"/><polyline class="cls-29" points="1016.07 72.5 1017.07 127.5 1198.07 125.5 1198.07 70.5"/><polyline class="cls-30" points="324.07 216.5 324.07 53.5 422.06 54.43 422.07 50.5 449.07 50.5 449.13 54.64 536.07 55.5 535.95 152.98"/><path class="cls-26" d="M1754.7,339.7" transform="translate(-616.43 -142)"/><path class="cls-26" d="M1733.7,361.7" transform="translate(-616.43 -142)"/><path class="cls-31" d="M1907.5,993.5" transform="translate(-616.43 -142)"/><path class="cls-31" d="M191.5,712.5" transform="translate(-616.43 -142)"/><path class="cls-31" d="M785.5,359.5" transform="translate(-616.43 -142)"/><path class="cls-32" d="M1771.5,616.5" transform="translate(-616.43 -142)"/><path class="cls-32" d="M1764.5,614.5" transform="translate(-616.43 -142)"/><path class="cls-33" d="M1748.5,580.5" transform="translate(-616.43 -142)"/><line class="cls-34" x1="1005.07" y1="411.5" x2="1066.07" y2="499.5"/><path d="M1292,610.14c2.14-6,4.26-12.1,6.42-18.15.92-2.58,1.89-5.15,2.94-7.68a2,2,0,0,1,1.36-1.13c2.74-.11,5.49,0,8.36,0v34.93c-1.7,0-3.35,0-5,0-1.4,0-1.06-1.14-1.07-1.94q-.06-11.16-.09-22.33v-2.09l-.58-.1c-.75,2-1.54,4-2.26,6.07q-3.36,9.47-6.66,18.94a1.83,1.83,0,0,1-2,1.51c-5.23.08-5.19.11-6.91-4.76-2.52-7.18-5.11-14.33-8.18-21.5a17.8,17.8,0,0,0-.3,2.16q-.13,10.56-.21,21.12c0,3,0,3-3.13,2.92-.92,0-1.85-.11-3-.19v-2.14c0-10.13,0-20.25,0-30.38,0-1.6.35-2.33,2.11-2.21a38.28,38.28,0,0,0,5.46,0,2.31,2.31,0,0,1,2.69,1.76c2.69,7.49,5.46,14.95,8.22,22.41.36,1,.79,1.94,1.18,2.91Z" transform="translate(-616.43 -142)"/><path d="M1040.25,605.59c0,3.53-.1,6.94,0,10.34.08,1.84-.57,2.39-2.31,2.17-1.25-.17-2.53-.14-3.91-.2V583.27c.83,0,1.55-.1,2.28-.1,5.93,0,11.87.06,17.79-.12,4.67-.15,9.75,4,10,8.62.31,4.82-.06,9.22-4.51,12.05a11.07,11.07,0,0,1-5.09,1.56c-3.69.23-7.41.06-11.12.09C1042.47,605.38,1041.48,605.5,1040.25,605.59Zm7-17.78v.05c-1.89,0-3.78-.08-5.66.06a1.84,1.84,0,0,0-1.31,1.19c-.11,3.35-.1,6.71,0,10.06,0,.45.68,1.27,1.06,1.27,4,.07,8.07,0,12.11,0a2.22,2.22,0,0,0,1.12-.39,7.74,7.74,0,0,0,3-7.81c-.64-2.47-3.22-4.29-6.26-4.38C1050,587.78,1048.62,587.81,1047.27,587.81Z" transform="translate(-616.43 -142)"/><path d="M1621.17,583.22h6.14c0,.69.1,1.33.1,2,0,10.25,0,20.51,0,30.77,0,1.71-.52,2.15-2.18,2.1-3.83-.09-7.68,0-11.52.06-5.42.15-8.73-2.77-10.57-7.42s-1.33-11.05,2.87-15.11c2.44-2.35,5.31-3,8.49-3,1.55,0,3.1.08,4.64.22s2.07-.38,2-1.92C1621.1,588.41,1621.17,585.94,1621.17,583.22Zm0,14.11c-2,0-3.69,0-5.42,0-4.75.15-7.6,3.12-7.66,7.92,0,5.09,2.89,8.13,7.93,8.18a28.74,28.74,0,0,0,3.83-.1c.48-.07,1.26-.68,1.27-1.06C1621.18,607.41,1621.15,602.54,1621.15,597.33Z" transform="translate(-616.43 -142)"/><path d="M1499.65,592.72h9.49c2.16,0,4.31-.05,6.47,0,4.4.05,7.54,3,7.65,7.37.13,5.42.07,10.85.15,16.27,0,1.27-.34,1.77-1.7,1.77-5.26,0-10.51.1-15.76.07-3.9,0-6.75-2.69-7.66-7-.61-2.91,1.67-7.28,4.64-8.41a12.85,12.85,0,0,1,4.17-.55c2.89-.05,5.79,0,8.69.07,1.22,0,1.64-.43,1.45-1.72-.45-3.06-.39-3.09-3.61-3.13-3.77-.05-7.54-.07-11.32-.1-2.67,0-2.67,0-2.66-2.61C1499.66,594.21,1499.65,593.67,1499.65,592.72Zm11.59,20.72v0h1.62c5.13-.11,4.4.91,4.5-4.67,0-1.46-.61-1.85-1.94-1.83-2.62,0-5.25,0-7.88,0-2.17,0-2.88.81-2.86,3.31s.67,3.26,2.92,3.24C1508.81,613.43,1510,613.44,1511.24,613.44Z" transform="translate(-616.43 -142)"/><path d="M1423.72,618c-.78,0-1.57.1-2.36.11-4.85,0-9.7.05-14.55.11a8.08,8.08,0,0,1-8-6.11c-.77-3.53,1.28-7.85,4.48-9.28a5,5,0,0,1,2-.4c3.3-.06,6.6,0,9.9-.1,1,0,2.6.64,2.56-1.49,0-2.75-.4-3.28-2.72-3.32q-6.06-.08-12.13-.11c-2.79,0-3.54-.94-2.78-3.68a1.67,1.67,0,0,1,1.25-.88c5.26-.07,10.52-.18,15.76,0a6.75,6.75,0,0,1,6.51,6.56C1424,605.47,1423.72,611.63,1423.72,618Zm-12.13-4.51v0c.54,0,1.08,0,1.61,0,5.3-.13,4.41,1,4.55-4.76,0-1.33-.49-1.76-1.77-1.74-2.75,0-5.51,0-8.27,0-1.94,0-2.68.94-2.67,3.32s.71,3.24,2.72,3.24Z" transform="translate(-616.43 -142)"/><path d="M1369.73,618.07V583.14c1.72,0,3.33-.08,4.92.06a1.71,1.71,0,0,1,1.06,1.23c.13,1.74.06,3.49.06,5.23,0,3.12,0,3.1,3.23,3.07,2.29,0,4.59-.08,6.87,0a7.74,7.74,0,0,1,7.36,7.42c.09,5.82,0,11.65,0,17.83a44.25,44.25,0,0,1-5.17-.09c-.36,0-.81-1.22-.82-1.89-.1-4.76,0-9.52-.15-14.28-.1-3.36-1.06-4.2-4.44-4.34-1.75-.08-3.51,0-5.25,0-1.37-.06-1.71.55-1.7,1.81.06,5.63,0,11.26.07,16.9,0,1.64-.53,2.14-2.09,2C1372.44,618,1371.17,618.07,1369.73,618.07Z" transform="translate(-616.43 -142)"/><path d="M1177.75,592.92c.46,4.38.46,4.4-3.56,4.42-3.57,0-7.14,0-10.71,0-1.91,0-2.49.78-2.49,3.22s.64,3.4,2.55,3.41c3.23,0,6.47,0,9.7-.06,5.12-.13,7.29,5.36,5.93,9.44-.92,2.78-2.74,4.62-5.87,4.65-5.52.06-11,.08-16.57,0a1.85,1.85,0,0,1-1.26-1.26c-.41-3.23-.26-3.34,3.06-3.34,4.31,0,8.62-.12,12.93,0,1.86,0,1.9-1,1.88-2.28s.24-2.6-1.8-2.57c-3.37.05-6.75-.24-10.1,0-3.94.23-7.42-5.59-7-8.68a7.92,7.92,0,0,1,8.26-7.12c4.51.05,9,.05,13.55.09C1176.72,592.77,1177.18,592.86,1177.75,592.92Z" transform="translate(-616.43 -142)"/><path d="M1209,618.26c-6.86.11-11.69-3.71-12.84-10.66-.94-5.71,2.1-12.28,8.18-14.29,6.41-2.12,13.24-.37,16.32,4.39a13.33,13.33,0,0,1,.66,14.28C1218.84,616.66,1214.5,618.35,1209,618.26Zm-7.23-12.91.36.13c0,.54,0,1.07.09,1.6.5,3.72,2.75,6,6.14,6.37,4.25.41,6.84-1.13,8-5a10.87,10.87,0,0,0,.43-4.52c-.44-2.87-1.63-5.57-4.78-6.33-3.47-.84-6.52-.46-8.39,2.62C1202.69,601.72,1202.38,603.62,1201.79,605.35Z" transform="translate(-616.43 -142)"/><path d="M1228.41,618.08V592.84c5.69,0,11.28-.2,16.84.07,3.21.16,6.31,3.56,6.44,6.83.22,5.69.13,11.4.11,17.1,0,.4-.46,1.13-.74,1.15a22.61,22.61,0,0,1-4.43-.06c-.3,0-.67-1-.68-1.6,0-4,.11-8.06,0-12.08a19.83,19.83,0,0,0-1.09-5.47,2.76,2.76,0,0,0-2-1.39c-2.21-.17-4.45,0-6.67,0-1.33,0-1.73.47-1.72,1.77.06,5.63,0,11.27.06,16.9,0,1.55-.37,2.24-2,2.08C1231.18,618,1229.9,618.08,1228.41,618.08Z" transform="translate(-616.43 -142)"/><path d="M1436.81,597.36v18.1c0,2.66,0,2.67-2.65,2.6-1.06,0-2.13-.11-3.31-.16-.06-.64-.16-1.15-.16-1.67,0-7.17,0-14.34,0-21.51,0-1.46.35-2,1.9-2,4.37.06,8.75-.07,13.13,0a8.17,8.17,0,0,1,8.49,8.33c.11,5.16,0,10.32,0,15.48,0,1.25-.46,1.63-1.66,1.6-5.14-.13-4.17.55-4.27-4.05-.09-4.27-.23-8.55-.34-12.83a1.29,1.29,0,0,0,0-.19c-.83-3.71-.84-3.71-4.61-3.68C1441.23,597.37,1439.15,597.36,1436.81,597.36Z" transform="translate(-616.43 -142)"/><path d="M1338.45,592.67c.48,4.79.48,4.77-3.71,4.71-2,0-4,0-6.06.07-2.71.13-4.61,1.57-6.11,4.85H1330c2,0,4,.11,6.06,0s2.75.37,2.65,2.53c-.09,1.76-.7,2.12-2.27,2.11-4,0-8,.1-11.93.18-.64,0-1.28.1-2.51.21,1.4,2,2.45,3.71,3.69,5.23a2.94,2.94,0,0,0,2,.73c2.76.11,5.52.11,8.28.13s2.69,0,2.68,2.62c0,.53,0,1.06,0,1.82-.8.07-1.5.18-2.21.19-2.62.05-5.25.07-7.88.09-6,0-9.8-2.73-11.53-8.37-2-6.6,1.47-14.33,7.5-16.59a4.12,4.12,0,0,1,1.16-.33c1.81-.08,3.63-.14,5.45-.16C1333.52,592.65,1335.94,592.67,1338.45,592.67Z" transform="translate(-616.43 -142)"/><path d="M1111.87,592.83c.49,4.61.49,4.59-3.71,4.54-2,0-3.91,0-5.85.07-2.82.14-4.62,1.48-6.07,4.56,2.24.1,4.36.24,6.47.28,2.63.05,5.26.09,7.88,0,1.79,0,1.49,1.16,1.44,2.18s.55,2.41-1.42,2.42c-4.18,0-8.36.11-12.53.19-.65,0-1.3.11-2.53.21,1.36,2,2.4,3.68,3.63,5.22a2.9,2.9,0,0,0,2,.74c2.82.12,5.65.11,8.48.15.73,0,1.45.07,2.3.12v4.29a16.59,16.59,0,0,1-1.71.2q-3.75.08-7.48.1c-7.14,0-10.84-2.81-12.5-9.67-1.45-6,2.18-13.12,7.72-15.25a3.77,3.77,0,0,1,1.14-.36C1103.33,592.82,1107.55,592.83,1111.87,592.83Z" transform="translate(-616.43 -142)"/><path d="M1585.66,597.58l-2.2-.13c-2.69-.1-2.58-.1-2.67-2.73-.06-1.61.54-2.06,2.07-2.08,2.84,0,2.83-.14,2.79-3,0-1.47.1-3-.05-4.42-.19-1.86.6-2.36,2.32-2.16a35,35,0,0,0,3.87,0c0,2.71.07,5.17,0,7.62,0,1.46.43,2.13,2,2,.73-.08,1.49.09,2.22,0,2-.28,2.71.5,2.6,2.56-.09,1.57-.54,2.19-2.13,2.09s-2.92,0-4.44,0c0,5.12,0,9.93.07,14.74,0,.43.86.95,1.42,1.24.37.2.92.06,1.39.07,4.05.08,4.15.21,3.38,4.48-2.83,0-5.75.34-8.55-.11a4.51,4.51,0,0,1-3.75-4.44c-.18-4.41-.19-8.83-.27-13.25C1585.65,599.3,1585.66,598.51,1585.66,597.58Z" transform="translate(-616.43 -142)"/><path d="M1578.94,617.91c-5,0-9.62.28-14.22-.08s-8.57-4.66-8.73-9.46c-.27-8.3-.07-16.61-.07-25.08H1562c0,.63.1,1.34.1,2,0,6.78,0,13.55,0,20.32,0,5.1,2.54,7.67,7.63,7.75,2.29,0,4.59.12,6.88,0,1.81-.07,2.65.54,2.35,2.42A15.32,15.32,0,0,0,1578.94,617.91Z" transform="translate(-616.43 -142)"/><path d="M1357.3,618.13c-.94,0-1.89,0-2.83,0-7.14-.15-11.78-4.49-12.31-11.63-.35-4.72,1.17-8.82,5-11.68a11.29,11.29,0,0,1,5.51-2c3.33-.31,6.72,0,10.09-.07,2-.06,1.61,1.25,1.65,2.4s.07,2.39-1.81,2.31c-2.62-.12-5.26.05-7.88,0a5.53,5.53,0,0,0-5.65,3.75c-1.28,3.36-1.35,6.82.94,9.93a5,5,0,0,0,4.26,2.27c2.76,0,5.53.13,8.28,0,2-.09,1.85,1.15,1.88,2.47s0,2.37-1.86,2.22-3.5,0-5.25,0Z" transform="translate(-616.43 -142)"/><path d="M1487.41,618.14c-.94,0-1.88,0-2.83,0-8.22-.19-13.76-7.13-12.16-15.25a12.38,12.38,0,0,1,5.31-8.45,10.32,10.32,0,0,1,4.63-1.66c3.49-.23,7,0,10.51-.06,1.9,0,1.57,1.2,1.57,2.3s.27,2.5-1.71,2.41c-2.49-.1-5-.14-7.48,0-3.86.19-6.22,2.08-6.67,5.88a15.22,15.22,0,0,0,.8,6.44,5,5,0,0,0,5.22,3.64c2.69-.09,5.4.09,8.09,0,1.94-.08,1.75,1.13,1.77,2.37s.16,2.47-1.79,2.32c-1.74-.14-3.5,0-5.26,0Z" transform="translate(-616.43 -142)"/><path d="M1137.8,592.81v4.56h-8.48c-4.27,0-6.24,1.49-7.28,5.71a9.09,9.09,0,0,0,.82,7c1.18,2,2.78,3.4,5.35,3.29,1.61-.07,3.23,0,4.85,0s3.07,0,4.71,0v4.44c-4.62,0-9.28.58-13.71-.17s-7-4.65-8-9c-1.22-5.57.18-10.54,4.88-14.17a7.45,7.45,0,0,1,3.8-1.68C1129,592.68,1133.33,592.81,1137.8,592.81Z" transform="translate(-616.43 -142)"/><path d="M1075.2,617.91c-6.06.64-6,.64-6-5,0-6.1,0-12.2-.05-18.3,0-1.38.38-1.91,1.81-1.89,3.37.07,6.74-.05,10.11,0a5.54,5.54,0,0,1,5.72,5.06,25.21,25.21,0,0,1,.29,2.6c.19,3.45.12,3.48-3.31,3.35-1.1,0-1.73-.32-1.89-1.55s-.66-2.18-.86-3.29c-.23-1.27-1-1.55-2.15-1.56-3.52,0-3.51-.08-3.51,3.44q0,7.53,0,15.08C1075.3,616.51,1075.24,617.17,1075.2,617.91Z" transform="translate(-616.43 -142)"/><path d="M1536,618a42.75,42.75,0,0,1-4.69-.07,1.83,1.83,0,0,1-1.15-1.38q-.11-16.07,0-32.15c0-.43.78-1.18,1.25-1.23a40.58,40.58,0,0,1,4.58-.06Z" transform="translate(-616.43 -142)"/><path d="M1149.08,592.73v25.15h-5.85a14.76,14.76,0,0,1-.18-1.55c0-7.25,0-14.49,0-21.74,0-1.36.33-2,1.79-1.88S1147.58,592.73,1149.08,592.73Z" transform="translate(-616.43 -142)"/><path d="M1190.84,618c-1.82,0-3.36.09-4.87-.06a1.72,1.72,0,0,1-1-1.3c-.06-7.5,0-15,0-22.51,0-1,.32-1.38,1.39-1.45,4.54-.3,4.54-.34,4.54,4.11Z" transform="translate(-616.43 -142)"/><path d="M1467,592.74V618c-1.64,0-3.23.09-4.79-.06a1.7,1.7,0,0,1-1-1.3q-.09-11.34,0-22.68a1.69,1.69,0,0,1,1.13-1.2C1463.8,592.65,1465.34,592.74,1467,592.74Z" transform="translate(-616.43 -142)"/><path d="M1149.11,583.28v4.48c-1.73,0-3.38.07-5,0-.38,0-.93-.69-1-1.12a23.94,23.94,0,0,1,0-3.31Z" transform="translate(-616.43 -142)"/><path d="M1190.73,583.26v4.5c-1.7,0-3.29.06-4.88,0-.33,0-.85-.62-.89-1a32.81,32.81,0,0,1,0-3.46Z" transform="translate(-616.43 -142)"/><path d="M1467,583.14v4.65a31.22,31.22,0,0,0-3.5,0c-1.88.22-2.41-.52-2.44-2.36s.58-2.53,2.42-2.33A34.16,34.16,0,0,0,1467,583.14Z" transform="translate(-616.43 -142)"/></g><g id="White"><line class="cls-35" x1="337.07" y1="77.08" x2="396.58" y2="77.7"/><path class="cls-35" d="M1036.86,267.83v-36a20.91,20.91,0,0,1,13-6,21.14,21.14,0,0,1,15,5v37" transform="translate(-616.43 -142)"/><polygon class="cls-36" points="400.07 126.5 400.07 108.5 462.07 108.5 466.07 110.5 466.07 124.5 463.07 126.5 400.07 126.5"/><polyline class="cls-37" points="467.07 127.5 463.43 129.84 400.43 129.84"/><line class="cls-35" x1="338.08" y1="127.57" x2="395.58" y2="128.19"/><line class="cls-35" x1="337.08" y1="176.57" x2="395.58" y2="177.19"/><line class="cls-35" x1="467.99" y1="78.27" x2="522.49" y2="78.89"/><line class="cls-35" x1="469.49" y1="128.27" x2="523.99" y2="128.89"/><path class="cls-38" d="M1023,340V290c9.24,0,18.48-5,27.71-5,8.77,0,17.53,5,26.29,5v30Z" transform="translate(-616.43 -142)"/><polygon class="cls-39" points="535.57 55 562.57 66 562.57 143 535.57 153 535.57 55"/><path class="cls-40" d="M1642.5,276.5" transform="translate(-616.43 -142)"/><polygon class="cls-13" points="858.57 232 858.57 240 1138.57 198 1137.57 192 858.57 232"/><polygon class="cls-13" points="296.07 288.5 210.07 381.5 355.07 400.5 1295.07 407.5 1251.07 298.5 296.07 288.5"/><path class="cls-31" d="M1224.54,340.58" transform="translate(-616.43 -142)"/><path class="cls-31" d="M390.36,843.48" transform="translate(-616.43 -142)"/><path class="cls-31" d="M.5,863.5" transform="translate(-616.43 -142)"/><path class="cls-41" d="M1919,980.5l-861,18c-231.17-1.82-414.39,23.1-438-33-22.52-53.52,63.43-102,203-196l-4.5,101-49,52,1,17,204-9,256,3,88-3,532-6,69-8Z" transform="translate(-616.43 -142)"/><path class="cls-42" d="M617.1,986.39c23.61,56.1,219.83,33.18,451,35l851-15-.75-28-850,14c-215.17-1.69-451.35,23.48-451-35Z" transform="translate(-616.43 -142)"/><polygon class="cls-12" points="998.57 71 1054.57 9 1154.57 9 1212.57 69 1168.57 69 1145.57 34 1118.57 72 1091.57 72 1067.57 35 1042.57 70 998.57 71"/><polygon class="cls-13" points="1019.57 128 1035.57 151 1035.57 128 1019.57 128"/><polygon class="cls-13" points="1196.12 126.53 1181.12 149.53 1180.12 126.53 1196.12 126.53"/><polygon class="cls-12" points="1185.28 36.17 1221.57 8 1304.57 80 1266.57 80 1221.57 41 1203.58 55.38 1185.28 36.17"/><polygon class="cls-12" points="1047.44 13.08 1035.57 0 978.57 1 896.57 61 958.57 60 938.57 77 989.57 77 1047.44 13.08"/><polyline class="cls-12" points="611.57 130 611.57 115 638.57 115 639.57 130 611.57 133"/></g><g id="MTA"><line class="cls-43" x1="1235.57" y1="587.5" x2="1294.57" y2="587.5"/><line class="cls-43" x1="994.57" y1="580.5" x2="981.57" y2="580.5"/><line class="cls-43" x1="715.07" y1="574.5" x2="360.57" y2="568.5"/><polyline class="cls-44" points="714.57 786 719.57 506 979.57 506 977.02 785.98"/><polyline class="cls-44" points="992.07 785.5 994.07 506.5 1236.57 510 1237.95 782.28"/><polygon class="cls-45" points="1295.57 760 1238.57 760.6 1238.8 779.98 1295.57 772 1295.57 760"/><path class="cls-46" d="M649,539" transform="translate(-616.43 -142)"/><path class="cls-47" d="M1234,934l1-20-258.42-2h-1.16L769,919v21l207-9,28,1" transform="translate(-616.43 -142)"/><rect class="cls-44" x="465.57" y="603" width="84" height="140"/><polygon class="cls-48" points="360.57 558 200.57 524 200.57 544 360.57 579 360.57 558"/><path class="cls-49" d="M549.5,681.5" transform="translate(-616.43 -142)"/><polygon class="cls-50" points="215.57 567 262.57 576 262.07 713.5 215.07 700.5 215.57 567"/><polygon class="cls-50" points="290.57 582 339.57 593 339.57 734 289.57 720 290.57 582"/><polyline class="cls-47" points="700.57 773 716.57 773 717.57 786 700.57 787"/></g></svg>