<svg id="superShoppe" xmlns="http://www.w3.org/2000/svg" xmlns:xlink="http://www.w3.org/1999/xlink" viewBox="0 0 122.42 62.85"><defs><style>.cls-1{stroke:#000;stroke-miterlimit:10;}.cls-2,.cls-3,.cls-4,.cls-5,.cls-6{fill-rule:evenodd;}.cls-2{fill:url(#linear-gradient);}.cls-3{fill:#282972;}.cls-4,.cls-7{fill:#fff;}.cls-5{fill:#fd0;}.cls-6{fill:#ed2024;}</style><linearGradient id="linear-gradient" x1="-322.83" y1="1218.05" x2="-322.83" y2="1193.25" gradientTransform="translate(384.08 -1177.55)" gradientUnits="userSpaceOnUse"><stop offset="0" stop-color="#0095da"/><stop offset="1" stop-color="#213f99"/></linearGradient></defs><rect id="blackBack" class="cls-1" x="0.5" y="0.5" width="121.42" height="61.85"/><g id="assLogo"><path class="cls-2" d="M103.56,28.07c0,6.85-19,12.4-42.31,12.4s-42.31-5.53-42.31-12.4,19-12.4,42.31-12.4S103.56,21.23,103.56,28.07Z" transform="translate(0.02 -0.14)"/><path class="cls-3" d="M93.6,28.3c.39.56.88.55,1.56.54h1.45a4.85,4.85,0,0,1,.54,0l0,.3c0,.51-.46.63-1.15.63H93v1l.41.41h3.28c1.36,0,2-.53,2-1.75A2.61,2.61,0,0,0,98,27.85c-.44-.44-.8-.5-1.7-.5l-1.84,0v-.22c0-.53.31-.75.94-.75H98.5v-1l-.44-.48L94.79,25c-1.41,0-2,.52-2,1.78a1.67,1.67,0,0,0,.54,1.32Z" transform="translate(0.02 -0.14)"/><path class="cls-3" d="M88.74,30.61a2.68,2.68,0,0,0,1.83.51h2.08v-1l-.53-.39H90.18a1.9,1.9,0,0,1-.75-.11,2.7,2.7,0,0,1-.18-.93h3.4v-1l-.49-.46H89.22a1.26,1.26,0,0,1,1.35-.86h2v-1l-.49-.49h-2c-1.89,0-2.72,1-2.72,3a2.77,2.77,0,0,0,.9,2.33" transform="translate(0.02 -0.14)"/><path class="cls-3" d="M82.07,31.22h1.27v-2h1.49a3.78,3.78,0,0,0,1.8-.36,1.74,1.74,0,0,0,.68-1.56,1.82,1.82,0,0,0-.78-1.59A2.06,2.06,0,0,0,86,25.2a3.42,3.42,0,0,0-1.73-.28H81.58v5.83l.43.47Zm1.27-3.59V26.4h1.43a3.08,3.08,0,0,1,.68.08v.29c0,.59-.37.86-1.1.86Z" transform="translate(0.02 -0.14)"/><path class="cls-3" d="M76.1,31.22h1.28v-2h1.49a2.91,2.91,0,0,0,1.79-.36,2.28,2.28,0,0,0,.67-1.57,2.1,2.1,0,0,0-.77-1.6,2.24,2.24,0,0,0-.51-.51,3.61,3.61,0,0,0-1.72-.28H75.65l0,5.85.52.47Zm1.23-3.59V26.4h1.43a4.06,4.06,0,0,1,.77.1.66.66,0,0,1,0,.28c0,.59-.46.85-1.19.85Z" transform="translate(0.02 -0.14)"/><path class="cls-3" d="M70,30.35a2.72,2.72,0,0,0,2.41,1c2,0,2.91-1,2.91-3.06a3,3,0,0,0-1-2.55,3,3,0,0,0-2.43-.93c-2,0-2.9,1-2.9,3A3.29,3.29,0,0,0,70,30.35Zm1.1-.68a2.83,2.83,0,0,1-.26-1.43c0-1.36.51-2,1.57-2a2,2,0,0,1,.87.16,2.76,2.76,0,0,1,.26,1.36c0,1.36-.49,2-1.59,2a2.25,2.25,0,0,1-.81-.16Z" transform="translate(0.02 -0.14)"/><polygon class="cls-3" points="64.06 31.08 65.31 31.08 65.31 28.64 67.08 28.64 67.08 30.59 67.57 31.08 68.82 31.08 68.82 25.22 68.33 24.73 67.08 24.73 67.08 27.11 65.31 27.11 65.31 25.22 64.82 24.73 63.6 24.73 63.6 30.59 64.06 31.08"/><path class="cls-3" d="M57.91,28a1.91,1.91,0,0,0,1.76.76h1.9l0,.17c0,.79-.42.83-1.11.83l-3.07,0v1l.47.37h3.28c1.36,0,2-.53,2-1.75a1.56,1.56,0,0,0-.67-1.46,2.34,2.34,0,0,0-1.71-.55H59v-.26c0-.53.31-.75.94-.75H63v-1l-.49-.42H59.26c-1.36,0-2,.53-2,1.79a1.45,1.45,0,0,0,.68,1.36Z" transform="translate(0.02 -0.14)"/><path class="cls-3" d="M47.33,31.22h1.24v-2.3h1.28l1,1.82.45.45h1.36L51.2,28.75a1.58,1.58,0,0,0,1.18-1.65,1.94,1.94,0,0,0-.67-1.5,2.13,2.13,0,0,0-1.84-.71h-3v5.86Zm1.24-3.83v-1h2.19l0,.2c0,.59-.48.77-1.19.77l-1,0Z" transform="translate(0.02 -0.14)"/><path class="cls-3" d="M42.6,30.69a2.86,2.86,0,0,0,1.84.51h2.08v-1L46,29.73H44a2.07,2.07,0,0,1-.77-.15,2.32,2.32,0,0,1-.14-.82h3.4v-1L46,27.24l-2.92,0a1.16,1.16,0,0,1,1.3-.85h2v-1L46,24.9l-2.08,0a2.38,2.38,0,0,0-2.61,2,2.47,2.47,0,0,0-.82-1.33A1.36,1.36,0,0,0,40,25.2a3.26,3.26,0,0,0-1.71-.28l-2.61,0v5.87l.44.5h1.28v-2h1.49a3.27,3.27,0,0,0,1.8-.36,1.62,1.62,0,0,0,.56-.78,3.44,3.44,0,0,0,.9,2.18Zm-5.25-3.06V26.4h1.43a2.68,2.68,0,0,1,.68.08,1.4,1.4,0,0,1,0,.29c0,.59-.37.86-1.1.86Z" transform="translate(0.02 -0.14)"/><path class="cls-3" d="M30.33,30.35a.58.58,0,0,0,.1.12,2.92,2.92,0,0,0,2.23.81,2.7,2.7,0,0,0,2.2-.81,2.35,2.35,0,0,0,.37-1.57V25.35l-.44-.48H33.55v3.5c0,1-.31,1.51-1.35,1.51-.25,0-.62.07-.73-.15a2.17,2.17,0,0,1-.12-.85V25.37l-.49-.49H29.65v3.54A2.55,2.55,0,0,0,30,30a3.25,3.25,0,0,0,.26.3Z" transform="translate(0.02 -0.14)"/><path class="cls-3" d="M24.12,28c.26.51.86.76,1.75.76h1.84l0,.17c.11.5-.28.93-1,.82H23.67v1l.48.36h3.28c1.36,0,2-.53,2-1.75a1.69,1.69,0,0,0-.68-1.43,2.1,2.1,0,0,0-1.7-.52l-1.88,0v-.3c0-.53.31-.75.94-.75h3.06v-1l-.49-.42H25.48c-1.36,0-2,.53-2,1.79a1.43,1.43,0,0,0,.68,1.36Z" transform="translate(0.02 -0.14)"/><path class="cls-4" d="M28.7,25.92v-1H25.48c-1.41,0-2,.53-2,1.79s.61,1.68,2,1.68h1.36c.6,0,.88.16.88.68s-.31.68-1,.68h-3v1H27c1.36,0,2-.53,2-1.76s-.57-1.65-1.87-1.65h-1.6c-.51,0-.77-.2-.77-.63s.3-.76.94-.76H28.7Z" transform="translate(0.02 -0.14)"/><path class="cls-4" d="M30.88,24.88H29.66v3.56A2.45,2.45,0,0,0,30,30a2.63,2.63,0,0,0,2.22.82,2.52,2.52,0,0,0,2.2-.82,2.5,2.5,0,0,0,.37-1.57V24.89H33.56V28.4c0,1-.29,1.47-1.36,1.47s-1.33-.43-1.33-1.47C30.88,28.39,30.88,24.88,30.88,24.88Z" transform="translate(0.02 -0.14)"/><path class="cls-4" d="M35.64,24.88v5.87h1.24V28.67h1.46a3.39,3.39,0,0,0,1.79-.36A2,2,0,0,0,40,25.16a3.37,3.37,0,0,0-1.66-.28Zm2.65,1c.81,0,1.18.2,1.18.86s-.37.85-1.1.85H36.86V25.92Z" transform="translate(0.02 -0.14)"/><path class="cls-4" d="M44,25.9h2v-1H44c-1.9,0-2.77,1-2.77,3a2.75,2.75,0,0,0,.89,2.32,2.85,2.85,0,0,0,1.84.51H46v-1H44c-1,0-1.36-.38-1.41-1.42H46V27.24h-3.4a1.27,1.27,0,0,1,1.19-1.34Z" transform="translate(0.02 -0.14)"/><path class="cls-4" d="M46.9,24.88v5.87h1.25V28.44h1.43l1.28,2.31h1.36L50.77,28.3A1.58,1.58,0,0,0,52,26.65c0-1.23-.68-1.76-2-1.76Zm2.72,1c.73,0,1.1.12,1.1.71s-.37.74-1.1.74H48.15V25.9Z" transform="translate(0.02 -0.14)"/><path class="cls-4" d="M62.48,25.92v-1H59.26c-1.41,0-2,.53-2,1.79s.61,1.68,2,1.68h1.45c.59,0,.87.16.87.68s-.3.68-1,.68H57.44v1h3.29c1.36,0,2-.53,2-1.76s-.57-1.65-1.88-1.65H59.26c-.51,0-.78-.2-.78-.63s.31-.76,1-.76h3Z" transform="translate(0.02 -0.14)"/><polygon class="cls-4" points="64.84 24.73 63.6 24.73 63.6 30.59 64.84 30.59 64.84 28.15 67.1 28.15 67.1 30.59 68.33 30.59 68.33 24.73 67.1 24.73 67.1 27.11 64.84 27.11 64.84 24.73"/><path class="cls-4" d="M69,27.76c0,2.14.92,3.12,2.94,3.12s2.92-1,2.92-3.06-.94-3-2.92-3S69,25.72,69,27.76Zm3-2.1c1.08,0,1.5.78,1.5,2.1s-.49,2-1.59,2-1.57-.68-1.57-2.1.51-2,1.55-2Z" transform="translate(0.02 -0.14)"/><path class="cls-4" d="M75.62,24.88v5.87h1.24V28.67h1.48a3.27,3.27,0,0,0,1.8-.36,1.88,1.88,0,0,0,.68-1.53A1.83,1.83,0,0,0,80,25.16a3.92,3.92,0,0,0-1.66-.28Zm2.72,1c.82,0,1.18.2,1.18.86s-.36.85-1.1.85H76.91V25.92Z" transform="translate(0.02 -0.14)"/><path class="cls-4" d="M81.58,24.88v5.87h1.25V28.67h1.51a3.21,3.21,0,0,0,1.79-.36,1.89,1.89,0,0,0,.68-1.53A1.76,1.76,0,0,0,86,25.16a4.3,4.3,0,0,0-1.74-.28Zm2.67,1c.82,0,1.18.2,1.18.86s-.36.85-1.1.85h-1.5V25.92Z" transform="translate(0.02 -0.14)"/><path class="cls-4" d="M90.14,25.88l1.94,0v-1h-2c-1.89,0-2.77,1-2.77,3A2.45,2.45,0,0,0,90,30.73h2.08v-1h-2c-1,0-1.36-.38-1.36-1.42h3.4V27.24h-3.4a1.24,1.24,0,0,1,1.09-1.36h.29Z" transform="translate(0.02 -0.14)"/><path class="cls-4" d="M98.06,24.92H94.84c-1.41,0-2,.53-2,1.79s.61,1.68,2,1.68h1.44c.6,0,.88.16.88.68s-.31.68-1,.68H93v1h3.31c1.36,0,2-.53,2-1.76s-.57-1.65-1.87-1.65H94.84c-.51,0-.77-.2-.77-.63s.3-.76,1-.76h3" transform="translate(0.02 -0.14)"/><path class="cls-5" d="M90.27,39.32a133.66,133.66,0,0,1-26.62,2.49c-26.06,0-47.15-6.36-47.15-14.24,0-3.34,3.82-6.43,10.2-8.84-7.63,2.51-12.28,5.88-12.28,9.52,0,7.81,20.93,14.14,46.78,14.14a127.81,127.81,0,0,0,29.05-3.08Z" transform="translate(0.02 -0.14)"/><path class="cls-5" d="M31.94,16.68a133.72,133.72,0,0,1,26.63-2.52c26.05,0,47.14,6.39,47.14,14.24,0,3.35-3.81,6.43-10.2,8.84,7.63-2.51,12.28-5.87,12.28-9.52,0-7.79-20.93-14.14-46.78-14.14a128,128,0,0,0-29,3.08Z" transform="translate(0.02 -0.14)"/><path class="cls-4" d="M42.34,16.2l.08-.35c-.55.15-1.12.29-1.69.41l1.61-3.91c.2-.53.41-1.09.57-1.6.22-.79.51-2,.12-2.61s-1.57-.36-2.3.15a10.29,10.29,0,0,0-1.9,2l-3.59,4.55c-1.92,2.47-5.67,6.8-10,7.61a13.71,13.71,0,0,1-3,.18l-1.48,1.55a15.56,15.56,0,0,0,3.47-.3,15.91,15.91,0,0,0,5.2-2,19.56,19.56,0,0,0,4.13-3.35,3.48,3.48,0,0,1,1.42.9,11.19,11.19,0,0,1,1.47,1.88l2.29-.47,1.42-3.4L42,17l-.71,1.79a1.62,1.62,0,0,0-.11.53.67.67,0,0,0,.49.68,1.85,1.85,0,0,0,1.27,0,4.2,4.2,0,0,0,1.94-1.08c.14.49.77.6,1.4.41A4.57,4.57,0,0,0,48,18.53c.63.57,1.92.1,2.72-.43l.61-.43a3.15,3.15,0,0,0,2.2.14c2-.45,3.7-1.94,3.8-3.34.06-1-1.15-1.66-2.59-1.29a6.15,6.15,0,0,0-2.49,1.14,3,3,0,0,0-1.47,2.53l-.57.41L51.49,14l1.64-.35v-.92L51.88,13l1.29-3.2-2.61.93-1.22,2.8-.9.18v.84L45.93,15a8.9,8.9,0,0,1-2.3,3.55l1.43-3.49L42.34,16ZM37.57,18,37,19.47a8.77,8.77,0,0,0-1.25-1.19A14.42,14.42,0,0,0,37.57,18ZM38,16.85a18.51,18.51,0,0,1-3.4.53c.61-.73,1.22-1.48,1.79-2.22l4-5.14.47-.55c-.22.75-.49,1.51-.78,2.26ZM48.5,14.53v.14l.47-.1L47.89,17.4l-.59.43Zm6.28-.41c.13,0,.23,0,.23.12a3.49,3.49,0,0,1-1.25,2.49c-.12.08-.36.23-.48.16a.23.23,0,0,1-.11-.2,4,4,0,0,1,1-2.2A1,1,0,0,1,54.78,14.12Z" transform="translate(0.02 -0.14)"/><path class="cls-6" d="M51.47,17.13c.3.44,1,.57,2,.36,1.75-.36,3.28-1.83,3.28-2.89,0-.84-.86-1.25-2-1-1.94.38-3.47,1.93-3.47,3a1.21,1.21,0,0,0,.06.38,4.89,4.89,0,0,1-1.57,1,.17.17,0,0,1-.22-.1h0V17.8a1.23,1.23,0,0,1,.12-.37l1.47-3.65,1.49-.31v-.22l-1.43.29,1.23-3.08L51,11l-1.23,2.87L49,14v.23l.63-.12-1.33,3.4-.07.22-.06-.06a4.67,4.67,0,0,1-1.36.88c-.18,0-.24,0-.24-.11a.58.58,0,0,1,.06-.26l1.17-3.08-1.43.28c-1,2.35-2.26,3.66-3,3.82-.16,0-.28,0-.28-.12a2.21,2.21,0,0,1,.08-.37l1.22-3-1.57.49L42,18.38a2.49,2.49,0,0,0-.25.8c0,.47.41.63,1.21.47,1-.2,2.1-1.18,3.06-2.88l-.47,1.36a1.37,1.37,0,0,0-.13.45c0,.37.29.49.88.37a4.69,4.69,0,0,0,2-1.1V18c0,.37.41.55,1,.43a5.27,5.27,0,0,0,2.16-1.27Zm3.34-3.4c.39-.09.72.1.72.38,0,1.31-1.09,2.94-2.11,3.15-.44.1-.77-.11-.77-.49a4.33,4.33,0,0,1,1.14-2.45,1.67,1.67,0,0,1,1-.59Z" transform="translate(0.02 -0.14)"/><path class="cls-6" d="M21.76,23.82a13.32,13.32,0,0,0,2.51-.29c3.57-.68,6.37-2.45,9.24-5.44a5.47,5.47,0,0,1,3.37,2.82l1.55-.33,1.43-3.4,1.9-.47v-.24L40,16.88l.68-1.59c1.1-2.72,2-4.76,2-6.2,0-.68-.31-.92-1-.8-.88.19-1.49.94-2.51,2.23L35.71,15c-3.57,4.53-6.91,7.19-10.38,7.9a13.79,13.79,0,0,1-2.8.2l-.75.76h0Zm16.58-6.31-1.27,3a7.71,7.71,0,0,0-2.51-2.41A37.12,37.12,0,0,0,38.34,17.51Zm.12-.3a21.69,21.69,0,0,1-4.67.63c.57-.68,1.32-1.57,2.24-2.72L40,10c.57-.68,1-1.1,1.25-1.16s.24,0,.24.24a11.3,11.3,0,0,1-.9,2.78l-2.18,5.44Z" transform="translate(0.02 -0.14)"/><path class="cls-6" d="M25.34,51.5c-1.3.06-2.61.08-3.46.08s-1.27,0-.86-.1a26.45,26.45,0,0,1,2.81-.27c13.65-.79,60.06-.68,74.69-.42,1.43.08,4.08.22,4.08.44a.65.65,0,0,1-.53.19c-1.51,0,.22.43-2.63.3l-22.69-.3L41,51.34Z" transform="translate(0.02 -0.14)"/><path class="cls-4" d="M28.92,45.27v2.91h.64v-1h.78a3.37,3.37,0,0,0,.55,0,.86.86,0,0,0,.72-.82,1.16,1.16,0,0,0-.15-.68.84.84,0,0,0-.57-.38,2.92,2.92,0,0,0-.59,0Zm1.67.53a.32.32,0,0,1,.18.1.42.42,0,0,1,.11.18.71.71,0,0,1,0,.29.38.38,0,0,1-.21.22.71.71,0,0,1-.28.06h-.82v-.87h.68Z" transform="translate(0.02 -0.14)"/><path class="cls-4" d="M32.13,45.18v3h.63V47h.73l.68,1.18h.68l-.73-1.24a.71.71,0,0,0,.49-.37,1.11,1.11,0,0,0,.1-.57.82.82,0,0,0-.12-.43.8.8,0,0,0-.39-.31,2,2,0,0,0-.55-.08Zm1.38.45h.2a.47.47,0,0,1,.26.1c.05,0,.05.13.07.19a.62.62,0,0,1,0,.27.23.23,0,0,1-.16.17H32.67v-.75Z" transform="translate(0.02 -0.14)"/><path class="cls-4" d="M36.66,45.71h1v-.53h-1a2,2,0,0,0-.68.12,1.11,1.11,0,0,0-.64.68,2.08,2.08,0,0,0-.13.82,1.94,1.94,0,0,0,.16.82,1.13,1.13,0,0,0,.92.61h1.36v-.49H36.24a.49.49,0,0,1-.3-.33.89.89,0,0,1-.07-.36h1.76v-.56H35.91a.87.87,0,0,1,.11-.38.61.61,0,0,1,.32-.33l.16-.06Z" transform="translate(0.02 -0.14)"/><polygon class="cls-4" points="38.24 45.04 38.24 48.04 38.89 48.04 38.83 45.69 39.62 48.04 40.28 48.04 41.05 45.71 40.99 48.04 41.62 48.04 41.62 45.04 40.71 45.04 39.93 47.34 39.18 45.04 38.24 45.04"/><polygon class="cls-4" points="42.79 48.04 42.79 45.04 42.13 45.04 42.13 48.04 42.79 48.04"/><path class="cls-4" d="M43.88,45.18h-.63V47a4.34,4.34,0,0,0,0,.51.66.66,0,0,0,.12.27,1.07,1.07,0,0,0,.59.36,2.89,2.89,0,0,0,.88.07,1.31,1.31,0,0,0,.61-.21,1.26,1.26,0,0,0,.24-.22.65.65,0,0,0,.11-.29c0-.16,0-.32,0-.49v-1.8h-.56v2.17a.48.48,0,0,1-.12.22.71.71,0,0,1-.26.13,1.1,1.1,0,0,1-.51,0,.72.72,0,0,1-.27-.15.35.35,0,0,1-.1-.24c0-.12,0-.24,0-.35V45.18Z" transform="translate(0.02 -0.14)"/><polygon class="cls-4" points="46.48 45.04 46.48 48.04 47.11 48.04 47.05 45.69 47.85 48.04 48.52 48.04 49.27 45.71 49.23 48.04 49.85 48.04 49.85 45.04 48.93 45.04 48.17 47.34 47.4 45.04 46.48 45.04"/><path class="cls-4" d="M52.61,45.18l-1.27,3H52l.27-.71h1.3l.26.71h.71l-1.26-3Zm.3.61L53.34,47h-.89Z" transform="translate(0.02 -0.14)"/><path class="cls-4" d="M55.51,45.18h-.64V47c0,.17,0,.34,0,.51a.68.68,0,0,0,.13.27,1,1,0,0,0,.59.36,2.89,2.89,0,0,0,.88.07,1.31,1.31,0,0,0,.61-.21.84.84,0,0,0,.24-.22.63.63,0,0,0,.1-.29,2,2,0,0,0,0-.49v-1.8h-.63s0,1.34,0,1.8a1.15,1.15,0,0,1,0,.37.48.48,0,0,1-.12.22.68.68,0,0,1-.27.13,1.1,1.1,0,0,1-.51,0,.68.68,0,0,1-.26-.15.31.31,0,0,1-.1-.24c0-.12,0-.23,0-.35,0-.45,0-1.78,0-1.78Z" transform="translate(0.02 -0.14)"/><polygon class="cls-4" points="58.94 45.56 58.94 48.04 59.6 48.04 59.6 45.56 60.57 45.56 60.57 45.04 57.99 45.04 57.99 45.56 58.94 45.56"/><path class="cls-4" d="M60.93,46.64a3.6,3.6,0,0,0,.12.8,1.08,1.08,0,0,0,.8.73,2.15,2.15,0,0,0,1.18,0,1.11,1.11,0,0,0,.8-.77,2.86,2.86,0,0,0,.1-.92,1.7,1.7,0,0,0-.2-.73,1.14,1.14,0,0,0-.72-.53,2.28,2.28,0,0,0-1.16,0A1.25,1.25,0,0,0,61,46,1.45,1.45,0,0,0,60.93,46.64Zm1.52-1a.75.75,0,0,1,.69.45,1.91,1.91,0,0,1,.1.53,2,2,0,0,1-.06.6.86.86,0,0,1-.23.36.83.83,0,0,1-.86.1.63.63,0,0,1-.36-.34,1.34,1.34,0,0,1-.1-.49,2.22,2.22,0,0,1,0-.63.81.81,0,0,1,.2-.39.71.71,0,0,1,.41-.19h.21Z" transform="translate(0.02 -0.14)"/><polygon class="cls-4" points="64.45 45.04 64.45 48.04 65.1 48.04 65.04 45.69 65.84 48.04 66.49 48.04 67.27 45.71 67.21 48.04 67.84 48.04 67.84 45.04 66.92 45.04 66.15 47.34 65.39 45.04 64.45 45.04"/><path class="cls-4" d="M68.34,46.64a2.72,2.72,0,0,0,.12.8,1.1,1.1,0,0,0,.8.72,2.36,2.36,0,0,0,1.18,0,1.12,1.12,0,0,0,.79-.77,2.87,2.87,0,0,0,.11-.92,1.62,1.62,0,0,0-.21-.74,1.09,1.09,0,0,0-.71-.53,2.28,2.28,0,0,0-1.16,0,1.25,1.25,0,0,0-.82.82,1.43,1.43,0,0,0-.1.61Zm1.54-1a.82.82,0,0,1,.4.13.79.79,0,0,1,.28.32,1.39,1.39,0,0,1,.1.53,3.05,3.05,0,0,1-.06.6.84.84,0,0,1-.22.36,1,1,0,0,1-.41.17.87.87,0,0,1-.45-.07.68.68,0,0,1-.37-.34,1.64,1.64,0,0,1-.1-.49,2.22,2.22,0,0,1,0-.63.92.92,0,0,1,.21-.39.68.68,0,0,1,.4-.19h.22Z" transform="translate(0.02 -0.14)"/><polygon class="cls-4" points="72.69 45.56 72.69 48.04 73.35 48.04 73.35 45.56 74.3 45.56 74.3 45.04 71.71 45.04 71.71 45.56 72.69 45.56"/><polygon class="cls-4" points="75.41 48.04 75.41 45.04 74.75 45.04 74.75 48.04 75.41 48.04"/><polygon class="cls-4" points="77.18 48.04 77.83 48.04 79.08 45.04 78.41 45.04 77.49 47.28 76.59 45.04 75.88 45.04 77.18 48.04"/><path class="cls-4" d="M80.72,45.71a3.42,3.42,0,0,1,.64,0l.36,0v-.53h-1a2,2,0,0,0-.68.12,1.14,1.14,0,0,0-.61.68,2.39,2.39,0,0,0,0,1.61,1.13,1.13,0,0,0,.92.61h1.36v-.49h-1a1.1,1.1,0,0,1-.36,0,.45.45,0,0,1-.31-.32A1.15,1.15,0,0,1,80,47h1.76v-.55H80a1,1,0,0,1,.1-.39.29.29,0,0,1,.08-.11.74.74,0,0,1,.27-.19A1.28,1.28,0,0,1,80.72,45.71Z" transform="translate(0.02 -0.14)"/><path class="cls-4" d="M84.68,45.71a6.46,6.46,0,0,1,1,0V45.2h-1a2,2,0,0,0-.68.12,1,1,0,0,0-.59.68,2.34,2.34,0,0,0-.13.79,2,2,0,0,0,.17.82,1.12,1.12,0,0,0,.91.61h1.36v-.49h-1a1.71,1.71,0,0,1-.32,0,.48.48,0,0,1-.31-.28A1.42,1.42,0,0,1,84,47a2.58,2.58,0,0,1,0-.68,1.22,1.22,0,0,1,.14-.33,1,1,0,0,1,.33-.25" transform="translate(0.02 -0.14)"/><path class="cls-4" d="M87.47,45.71h1v-.53h-1a2,2,0,0,0-.68.12,1,1,0,0,0-.59.68,2.66,2.66,0,0,0-.12.79,1.94,1.94,0,0,0,.16.82,1.19,1.19,0,0,0,.92.61h1.36v-.49H87.15a.49.49,0,0,1-.32-.31,1.5,1.5,0,0,1-.09-.42H88.5v-.55H86.74a.88.88,0,0,1,.11-.39.56.56,0,0,1,.36-.29l.19,0Z" transform="translate(0.02 -0.14)"/><polygon class="cls-4" points="89.03 45.04 89.03 48.04 89.69 48.04 89.65 45.77 90.93 48.04 91.66 48.04 91.66 45.04 91.03 45.04 91.05 47.19 89.83 45.04 89.03 45.04"/><polygon class="cls-4" points="93.13 45.56 93.13 48.04 93.79 48.04 93.79 45.56 94.74 45.56 94.74 45.04 92.18 45.04 92.18 45.56 93.13 45.56"/><path class="cls-4" d="M95.24,45.18v3h.64V47h.75l.71,1.18h.72l-.76-1.24a.71.71,0,0,0,.49-.37,1,1,0,0,0,.1-.57.82.82,0,0,0-.12-.43.8.8,0,0,0-.39-.31,1.89,1.89,0,0,0-.53-.08Zm1.36.53h.29a.25.25,0,0,1,.14.06.21.21,0,0,1,.11.16.62.62,0,0,1,0,.27.3.3,0,0,1-.17.18H95.83V45.7Z" transform="translate(0.02 -0.14)"/><path class="cls-4" d="M99.83,45.71a8,8,0,0,1,1,0v-.53h-1a2,2,0,0,0-.68.12,1,1,0,0,0-.59.68,2.34,2.34,0,0,0-.13.79,2.11,2.11,0,0,0,.17.82,1.19,1.19,0,0,0,.92.61h1.36v-.49h-1a2.28,2.28,0,0,1-.37,0,.47.47,0,0,1-.31-.3,1.15,1.15,0,0,1-.06-.37h1.76v-.57H99.09a.88.88,0,0,1,.11-.39.65.65,0,0,1,.36-.29A2.48,2.48,0,0,1,99.83,45.71Z" transform="translate(0.02 -0.14)"/><path class="cls-4" d="M104,45.78v-.53h-1.66a1.47,1.47,0,0,0-.55.08.74.74,0,0,0-.4.34,1.2,1.2,0,0,0-.11.47,1.59,1.59,0,0,0,.06.43.78.78,0,0,0,.39.37,2,2,0,0,0,.55.08,4.62,4.62,0,0,1,1,0,.39.39,0,0,1,.14.08.26.26,0,0,1,.09.15.41.41,0,0,1,0,.22.26.26,0,0,1-.15.14l-.18,0h-1.71v.56h1.65a2,2,0,0,0,.55-.08.82.82,0,0,0,.37-.29.72.72,0,0,0,.12-.4,1.34,1.34,0,0,0,0-.49.62.62,0,0,0-.39-.41,1.26,1.26,0,0,0-.47-.08h-1a.81.81,0,0,1-.22,0,.26.26,0,0,1-.16-.21.49.49,0,0,1,0-.24.31.31,0,0,1,.18-.19H104Z" transform="translate(0.02 -0.14)"/><path class="cls-7" d="M18.76,48.16h-.61v-3H19l1.2,2.25V45.14h.61v3H20L18.74,46l0,2.17Z" transform="translate(0.02 -0.14)"/><path class="cls-7" d="M21.25,45.71v-.55h2.62v.55L22,47.62h1.84v.54H21.25v-.49l1.9-2Z" transform="translate(0.02 -0.14)"/><path class="cls-7" d="M24.88,45.73l-.38.66h-.27l.29-.62h-.18v-.61h.55v.57Z" transform="translate(0.02 -0.14)"/><path class="cls-7" d="M27.29,46.45h-1.1c-.26,0-.33,0-.33.18a.2.2,0,0,0,.11.19.75.75,0,0,0,.3,0h.36c.49,0,.74.2.74.61a.64.64,0,0,1-.36.63,1.57,1.57,0,0,1-.49.07H25.27v-.47h1.36a.17.17,0,0,0,.15-.16h0a.19.19,0,0,0-.11-.18,1,1,0,0,0-.24,0h-.37a.89.89,0,0,1-.55-.14.69.69,0,0,1-.24-.55.58.58,0,0,1,.24-.54A.92.92,0,0,1,26,46h1.29Z" transform="translate(0.02 -0.14)"/></g></svg>