<svg version="1.1" id="utePuppet" xmlns="http://www.w3.org/2000/svg" x="0" y="0" viewBox="-10 0 435 200" xml:space="preserve">
  <!-- For shadow box effect - filter -->
    <defs>
       <filter id="shadow">
         <feDropShadow dx="0.2" dy="0.4" stdDeviation="0.2"/>
       </filter>
     </defs>

    <g id="stick">
      <style id="stick">
        .st8{stroke:grey; stroke-width:2; }
      </style>
      <path class="st8" d="M211.1 109.9l-.4 100"/>
    </g>

    <g id="car" >

        <style>
          .st0,.st1{fill:none;stroke:#000;stroke-width:.5;stroke-miterlimit:10}
          .st1{fill:#1a1a1a}.st2{fill:#fff}
          .st2,.st3,.st4{stroke:#000;stroke-width:.5;stroke-miterlimit:10}
          .st4{fill:#999}.st5{opacity:.5}
          .st5,.st6{fill:#fff}
          .st7,.st9{fill:#ff1d25;stroke:#000;stroke-width:.5;stroke-miterlimit:10}
          .st9{fill:none;stroke-width:3}
          .st9{fill:#ccc;stroke-width:.5}
          .st10{stroke-linecap:round;stroke-linejoin:round}
          .st10,.st11{fill:gray;stroke:#000;stroke-width:.5;stroke-miterlimit:10}
        </style>

        <path class="st1" d="M322.2 59.4c16.7.6 30.8 14.9 30.8 32.5 0 18.1-15 32.4-31.5 32.6-18.7.2-34.4-17.4-32.3-36.4 1.8-16.5 16.5-29.4 33-28.7z"/>
        <path class="st2" d="M322.3 66.8c13.8.5 25.6 12 25.6 26.2 0 14.6-12.4 26-26.2 26.2-15.5.2-28.6-14-26.8-29.3 1.5-13.2 13.6-23.6 27.4-23.1z"/>
        <path class="st3" d="M322.5 70.1c12.4.5 23 10.8 23 23.5 0 13.1-11.1 23.4-23.5 23.6-14 .2-25.7-12.6-24.2-26.3 1.4-12 12.4-21.3 24.7-20.8z"/>
        <path class="st4" d="M321.6 78.3c7.7.3 14.2 6.7 14.2 14.5 0 8.1-6.9 14.5-14.5 14.5-8.6.1-15.9-7.8-14.9-16.3.8-7.2 7.6-13 15.2-12.7z"/>
        <path class="st1" d="M65.4 57.6c16.6.7 30.8 14.9 30.8 32.5 0 18.1-15 32.4-31.5 32.6-18.7.2-34.4-17.4-32.3-36.4 1.8-16.5 16.5-29.4 33-28.7z"/>
        <path class="st2" d="M65.1 66.4c13.8.5 25.6 12 25.6 26.2 0 14.6-12.4 26-26.2 26.2-15.5.2-28.6-14-26.8-29.3 1.5-13.2 13.7-23.6 27.4-23.1z"/>
        <path class="st3" d="M65.4 69.7c12.4.5 23 10.8 23 23.5 0 13.1-11.1 23.4-23.5 23.6-14 .2-25.7-12.6-24.2-26.3C42.1 78.6 53 69.2 65.4 69.7z"/>
        <path class="st4" d="M64.4 77.9c7.7.3 14.2 6.7 14.2 14.5 0 8.1-6.9 14.5-14.5 14.5-8.6.1-15.9-7.8-14.9-16.3.8-7.2 7.6-13 15.2-12.7z"/>
        <path class="st5" d="M65.7 72c3.6.2 3.3.5 10 1 3.3.2 3.7.3 6 1 2.4.8 4.1.8 6 2 2.4 1.5 3.7 3.3 5 5 1.4 1.8 2.9 3.5 3 4 .4 1.5.9 3.3 0 5-1.3 2.5-4.5 2.9-5 3-1.9.3-3.6-.5-7-2-2.7-1.2-4-1.8-5-3-.8-1-1.2-2-2-2s-1 1.3-2 2c-1.5 1-3.4-.2-6-1-2.5-.8-4.7-.9-9-1-4.2-.1-5.3-.2-7 1-1.3.9-.2-1.7-1-2-.7-.3-3.3 2.6-4 2-1.1-1-3.6.6-7 2-3.7 1.5-7.1 3-8 2-1.2-1.2 1.6-6.4 5-10 5.2-5.5 10.6-8.3 13-9 5.2-1.4 10.7-.2 15 0zM323.3 72.5c3.6.2 3.3-.5 10 0 3.3.2 3.7 1.3 6 2 2.4.8 5.1 1.8 7 3 2.4 1.5 4.7 2.3 6 4 1.4 1.8.9 3.5 1 4 .4 1.5.9 4.3 0 6-1.3 2.5-4.5 2.9-5 3-1.9.3-3.6-.5-7-2-2.7-1.2-4-1.8-5-3-.8-1-1.2-2-2-2s-1 1.3-2 2c-1.5 1-3.4-.2-6-1-2.5-.8-4.7-.9-9-1-4.2-.1-6.3-.2-8 1-1.3.9-1.2-.7-2-1-.7-.3-1.3 1.6-2 1-1.1-1-3.6.6-7 2-3.7 1.5-7.1 3-8 2-1.2-1.2-1.4-8.4 2-12 5.2-5.5 13.6-7.3 16-8 5.3-1.4 10.7-.2 15 0z"/>
        <path class="st7" d="M3.4 62.1c.9 4 2.8 11.1 2.8 13.1l2.6 21 8.9 6.2c4 2 8.7 5.3 11.9 6.2l6 1.2c-2-8.5-2.4-15.1-1.7-19 .6-3.3 2.1-6 4.2-8.9 3.5-4.9 7.8-6.5 12.1-7.7 13.7-3.9 27.6-.9 31 .3 1.9.7 3.3 1.1 4.8 2 .5.3 3.7 2.6 6.1 5.2 3.2 3.6 3.8 7.5 4.5 10l1.2 10-1.2 8 33.2.2 155.8.2v-1c-.3-5 1.1-12.2 4.3-19.9 1.6-3.6 3.5-7.1 8.2-10.9 4-3.2 7.9-4.3 10.1-4.8 2.1-.6 3.7-.2 20 .3h1c5 .2 7.7.3 10 1.2 7.5 2.9 12.2 8 13.8 11.2 2.9 5.8 5.6 12.3 5.7 16.1l41.1-5.3h1c.4-1.7.8-5.1 1.1-8 .6-5.7.2-8.5 2.2-10 1.5-1.1 2.3-1 4-.9 3 .1 2.8-10.6 2.3-15-.5-4.3-1.6-10.6-4.7-18.1h-1l-144.9-5.5c-7.8-12.1-12.7-19.2-22.4-32.4-1.1-1.5-3-2.1-3-2.1h-3c-7.8-.1-13.4-.2-18-.4-6.7-.2-13.3-.2-20-.4-4.2-.1-8.4-.3-14 .7-3 .6-5.4 1.3-7 1.9l-3 2-.3.7 7 .1L140.5 44h-2c-2.3 0-4.7-.1-7-.1-.9-.4-1.5-.7-2-1-1-.7-1.8-1.2-2-2-.1-.4 0-.8 0-1l.3-.7h-2c-3 .2-7.5.4-13 .8-4 .3-7.1.5-21 1.6-10.9.9-16.4 1.3-20 1.7l-7 .9c-9.8 1.2-20.2 2.7-31.1 4.5-7.1 1.2-12.8 2.2-19.1 5.7-3.5 1.8-11.3 7.5-11.2 7.7"/>
        <path class="st0" d="M230.2 64.1l177 2.1M116.2 64.1L12.1 67.3M125.5 102.2l-26-.4M26.5 102.5l5.4.1-10.4-.2M283.6 102.9l-53.9-.4"/>
        <path class="st7" d="M181.3 8l-36.8 38.4c-.6.6-1.3.9-2.1.9l-12.7-.2h-1c-1.5 2.5-4 6.4-5.2 9.9-3.3 10.1-2.1 17 .5 28 .9 3.6 2.8 8.8 2.3 7.2l2.4 9.9v1l3 .1 90-.4-1.4-37-.7-18.8v-.6l6.6-37.6-44.9-.8"/>
        <path class="st4" d="M9.2 96.3l-2.6-21c0-2-1.8-9-2.8-13.1l-2 2 2.8 12.1 2.7 20h1.9"/>
        <path class="st9" d="M223 11.3l-5.6 33.9-66.9-1.2L182 10.6zM127.7 40c-.1.2-.1.6 0 1 .2.9.9 1.4 2 2 .4.3 1.1.7 2 1 2.3 0 4.7.1 7 .1h2l35.6-34.4-9-.2c-7.6 5.5-38.5 26.3-39.5 29.3l-.1 1.2z"/>
        <path class="st0" d="M215.2 64.3l-88-.5"/>
        <path transform="rotate(-179.008 208.895 52.227) scale(.99995)" class="st10" d="M200.4 50.2h17v4h-17z"/>
        <path class="st11" d="M408.2 78.4c.9 0 2 .3 3 1.1 3.1 2.8 1.2 9.5.8 10.9-.7 2.3-2.2 7.7-6.2 8.6-2.1.5-2.1.5-3-.1 0 0-.9-.7-1-1.1-.5-1.8-.2-4.4.1-7.6.6-6.2.2-9.2 2.2-10.8 1.5-1.1 2.4-1 4.1-1"/>
        <path class="st6" d="M221.7 13l-1 3-37-1-25 27h-4l28-30M166.9 11h6.8l-33.1 32h-1.9l32.1-31h-4.9z"/>
      </g>
</svg>
