<svg id="Layer_1" data-name="Layer 1" xmlns="http://www.w3.org/2000/svg" viewBox="0 0 564.42 110.24"><defs><style>.cls-1{fill:#f9b047;}.cls-2{fill:#105698;}.cls-3{fill:#115798;}.cls-4{fill:#125899;}.cls-5{fill:#0f5698;}.cls-6{fill:#0e5597;}.cls-7{fill:#0d5598;}.cls-8{fill:#1b558b;}</style></defs><title>yuasa</title><path class="cls-1" d="M304.69,305H580.05c3.43,0,3.43,0,3.44,3.39v16.42c0,3,0,3-3,3H29.37c-.75,0-1.5,0-2.25,0-1,0-1.48-.41-1.48-1.47q0-9.9,0-19.79c0-1,.36-1.56,1.44-1.5.53,0,1.05,0,1.58,0Z" transform="translate(-19.68 -217.5)"/><path class="cls-2" d="M58.88,218.9c7.84,1.06,15.38,8.43,17.23,16.95.75,3.46,1.21,3.32-2.56,3.29-.22,0-.45,0-.67,0-4.43.51-7.34-.15-9.67-5.21-4.31-9.37-19-10.05-26.36-1.93-4.09,4.49-5.52,10-6,15.87a32,32,0,0,0,2.55,15.81,17.5,17.5,0,0,0,19.35,10.61c6.44-1,11.36-6,12.67-13.46.42-2.37,1.25-3.12,3.56-2.87a34.51,34.51,0,0,0,5.84,0c1.43-.07,2,.29,1.82,1.85C75,273,66.25,282,53.36,283.34c-20.81,2.1-33-13.32-33.65-30.77-.29-7.73,1.06-15.06,5.27-21.71A27.62,27.62,0,0,1,43,218.17a13.59,13.59,0,0,1,2.21-.13h9.12a1.06,1.06,0,0,1,1.06.05A4.29,4.29,0,0,0,58.88,218.9Z" transform="translate(-19.68 -217.5)"/><path class="cls-3" d="M474.61,278.19A25.16,25.16,0,0,1,455,282.91c-8.68-1.47-13.28-8.4-11.25-16.94,1-4.33,3.92-6.92,8-8.38,4.56-1.63,9.37-1.86,14.09-2.63a44.6,44.6,0,0,0,5.27-1,4.25,4.25,0,0,0,3.35-3.8,5.29,5.29,0,0,0-2.18-5.31c-3.47-2.44-11.2-2.22-14.53.42A6.22,6.22,0,0,0,455.4,249c-.21,1.08-.77,1.44-1.87,1.41-2.32-.08-4.64-.09-7,0-1.46.06-1.56-.58-1.38-1.77.72-4.77,3-8.55,7.39-10.62a28.21,28.21,0,0,1,24.54-.42c4.77,2.13,7,6.1,7.05,11.31,0,7.64,0,15.29,0,22.93,0,3,.26,3.35,3.29,3.41,1.1,0,1.53.34,1.41,1.4,0,.07,0,.16,0,.22-.78,1.88,1.83,4.85-1.76,5.79-6,1.59-10,.54-11.8-3C475.07,279.15,474.85,278.69,474.61,278.19Zm-18.91-14c-3,2.53-3.08,7.41.11,9.26,4.5,2.61,9.2,2.36,13.77.07,3.84-1.93,4.78-5.31,4.33-8.78,0-1.72,0-2.92,0-4.11,0-.65,0-1.27-1-.87" transform="translate(-19.68 -217.5)"/><path class="cls-2" d="M108.62,261.8c-5,0-10,0-15.06,0-1.45,0-1.78.48-1.63,1.85.92,8.69,7.74,13.44,16.11,11.17a9.2,9.2,0,0,0,6.42-5.48,2.35,2.35,0,0,1,2.71-1.67,52.68,52.68,0,0,0,5.62,0c1.65-.09,2.11.33,1.52,2-2.42,6.95-7.21,11.31-14.34,12.87-8.75,1.92-16.85.59-22.88-6.61-8.56-10.21-7.3-30.8,6.24-38.19,13-7.12,28.68.36,31.75,15.21a39.67,39.67,0,0,1,.51,6.71c.06,1.62-.41,2.21-2.14,2.17C118.51,261.72,113.56,261.8,108.62,261.8Zm-5-6.56c3.36,0,6.73-.05,10.09,0,1.3,0,1.71-.34,1.5-1.66-1-6.11-5.62-10.44-11.33-10.44-6.16,0-10.83,4.16-11.83,10.41-.22,1.38.2,1.71,1.47,1.69C96.84,255.21,100.21,255.25,103.58,255.24Z" transform="translate(-19.68 -217.5)"/><path class="cls-3" d="M369.27,247.05c5-8.62,9.9-16.86,14.58-25.23,1.23-2.19,2.59-3.07,5.09-2.86,2.82.24,5.69,0,8.52,0,.32,1-.37,1.48-.74,2.07q-10.52,17.14-21.08,34.27a7.78,7.78,0,0,0-1.27,4.41c.08,6.67,0,13.34.07,20,0,1.67-.3,2.44-2.19,2.29a50.53,50.53,0,0,0-6.74,0c-1.64.1-2.19-.34-2.17-2.08.11-6.44,0-12.89.08-19.34a10.21,10.21,0,0,0-1.64-5.89c-7-11.18-13.87-22.42-20.78-33.65-.34-.56-1.09-1.12-.77-1.76s1.2-.29,1.83-.3c2.77,0,5.56.12,8.32-.06,1.79-.12,2.64.64,3.48,2.09,4.69,8.1,9.48,16.15,14.24,24.21C368.4,245.77,368.74,246.25,369.27,247.05Z" transform="translate(-19.68 -217.5)"/><path class="cls-2" d="M316.28,269.9c2.44-7.17,4.84-14.24,7.24-21.31,1.21-3.54,2.48-7.06,3.61-10.62a1.9,1.9,0,0,1,2.23-1.59,64.82,64.82,0,0,0,7,0c2.22-.14,1.57,1,1.14,2.14q-6.86,18.53-13.69,37c-1.81,4.92-3.52,9.87-5.61,14.68-4.25,9.73-10.07,10.74-19.8,9.57-.71-.09-1.09-.4-1.07-1.15s0-1.2,0-1.8c0-1.71-.53-3.81.26-5.05.91-1.43,3,.06,4.57,0,3.22-.17,4.95-1.27,6.25-4.23a12.3,12.3,0,0,0,.28-10.27c-5.16-12.77-9.86-25.72-14.81-38.56-.72-1.85-.57-2.52,1.58-2.36a54.13,54.13,0,0,0,6.74,0,2.2,2.2,0,0,1,2.56,1.8c3.39,9.84,6.85,19.64,10.31,29.45C315.3,268.37,315.33,269.27,316.28,269.9Z" transform="translate(-19.68 -217.5)"/><path class="cls-3" d="M579.22,274.33v.09c0,.54.38.74.86.78l.43.1c2.6.06,2.91,1.68,2.71,3.79a18.55,18.55,0,0,0,.18,3.06h-.08c-3.29,0-6.54.93-9.85.34l-.11,0-.07-.09-.74-.41-.16-.06a2.84,2.84,0,0,0-1.91-2.21l0,.05a.86.86,0,0,0-.42-1c-.29-.25-.42-.71-.91-.68l-.38.26,0,0c-.43,0-.77.12-.82.63l.06-.07-.59.42,0,0c-.47,0-.83.13-.93.65l-.64.29a1.37,1.37,0,0,0-1.67.83l-.17,0a2.5,2.5,0,0,0-2.55.9h-.13c-3.89.14-7.72,1.28-11.67.43-1.2-.26-2.26-1.27-3.61-.81l.06.05c-.19-.57-.64-.61-1.13-.56a.51.51,0,0,1-.64-.31.85.85,0,0,0-1-.64.28.28,0,0,1-.34-.2.84.84,0,0,0-.89-.74,2.41,2.41,0,0,1-1.34-1.42c0-.63-.1-1.21-.9-1.28a.93.93,0,0,1-.45-.89c.28-.31.06-.37-.2-.4a3.45,3.45,0,0,1-.7-2.3,12.18,12.18,0,0,0,.08-6.72,2.6,2.6,0,0,1,.5-1.85l.26-.55a.25.25,0,0,1,.13-.34L540,263l0,.05a.86.86,0,0,0,.53-.88h0a.81.81,0,0,0,.83-1l0,0,.51-.5-.06.06.52-.5-.05,0c.74.06,1.24-.21,1.34-1l0,0a1.13,1.13,0,0,0,1.47-.84l0,0a.91.91,0,0,0,1-.47l.12,0c1.57.37,2.86-.68,4.33-.91a117.11,117.11,0,0,1,13-1.73,1.87,1.87,0,0,0,1.84-1.06l.89-.25c.31.32.39.08.47-.18l.74-.33c.45,0,.85-.07.84-.66l0,0c.34,0,.49-.12.45-.46l0,0c.6,0,.65-.37.59-.84l0,.07c1.65-1.6,1.49-3.22.08-4.86l0,0c0-.42-.05-.78-.51-.93l0,.06c.09-1.22-.69-1.45-1.67-1.48l0,0-.55-.35.06.05c-.26-.6-.8-.55-1.31-.56h0c-.86-1.84-2.69-.91-4-1.1-2.49-.37-5.17-.32-7.28,1.62l0,0a.79.79,0,0,0-.92.53l.07-.06-.56.41-.92.87c-1.29.16-1.39,1.05-1.27,2.06l-.26,1.08c-1.71.75-3.52.44-5.29.45-4,0-4,0-3.94-4v0c1.12-.23.81-1.12.84-1.85v0l.42-.71,0-.12.11,0a.77.77,0,0,0,.75-1.05l0,.06c.44-.07.59-.39.63-.78a1.32,1.32,0,0,1,.91-.92c.4,0,.71-.18.78-.63l-.06.07.56-.45-.06.05.56-.4h0c1-.05,1.92-.1,2.24-1.28a.32.32,0,0,1,.36-.11,1,1,0,0,0,1-.43l.07-.09.1,0a6.31,6.31,0,0,0,1.79,0,32.8,32.8,0,0,1,12.29-.94c2.48.23,4.73,1.3,7.19,1.38l.13,0,.65.33-.07-.06c.13.58.57.63,1.05.6l.13,0,.06.12a.77.77,0,0,0,1,.75l-.06,0a.51.51,0,0,0,.57.42l0,0a.42.42,0,0,0,.5.48l0,0c0,.33.15.49.49.48l0,0c-.06.51.27.64.68.71l0,0a3,3,0,0,0,1.54,2.6,4,4,0,0,1,.66,2.31,1.67,1.67,0,0,0-.38,1.25v24.7A2.7,2.7,0,0,0,579.22,274.33Zm-28.72-10c-3.58,3.21-2.77,8.21,1.7,9.94a14.29,14.29,0,0,0,12.55-.87,7.11,7.11,0,0,0,4.06-6.07c.11-2.53,0-5.07,0-7.91" transform="translate(-19.68 -217.5)"/><path class="cls-3" d="M526.13,249.21a17,17,0,0,0-2,0c-2,.27-3.38-.11-4-2.36a4.68,4.68,0,0,0-3.08-2.79,14.08,14.08,0,0,0-10.94.18c-3.2,1.4-3.45,4.9-.62,7,1.85,1.39,4.08,1.86,6.27,2.37,4.14,1,8.39,1.56,12.39,3.11,5,2,8.66,5,8.9,10.9.26,6.31-2.63,10.69-8.25,13.15a29,29,0,0,1-23.59.25c-5.09-2.13-7.93-6.19-8.67-11.7-.2-1.48.1-2.31,1.83-2.13a21.63,21.63,0,0,0,3.6,0c2.66-.19,4.82-.23,5.62,3.36.63,2.82,3.5,4,6.27,4.42a18.38,18.38,0,0,0,9.1-.63c2.2-.75,3.9-2,4-4.55s-1.39-4-3.48-5c-3.63-1.75-7.61-2.19-11.47-3.09a32.83,32.83,0,0,1-8.3-2.72,11.37,11.37,0,0,1-6.38-10.58,10.72,10.72,0,0,1,6.28-10.35c8-3.91,16.14-4.26,24.25-.42,4.11,1.94,6.47,5.42,7.48,9.85.28,1.23,0,1.82-1.39,1.71S527.4,249.21,526.13,249.21Z" transform="translate(-19.68 -217.5)"/><path class="cls-4" d="M142.71,243.11c4.83-6.71,10.89-9,18.25-7.66,7.82,1.43,12,6.2,12.12,14.13.18,10.26,0,20.53.07,30.79,0,1.25-.34,1.73-1.64,1.68a64.45,64.45,0,0,0-6.52,0c-1.51.09-1.9-.43-1.89-1.89.06-8.24,0-16.48,0-24.73,0-1.34-.07-2.69-.2-4-.67-6.65-5.57-9.82-12-7.79-4.74,1.49-7.7,5.81-7.73,11.44,0,8.17-.07,16.34,0,24.51,0,1.87-.28,2.73-2.4,2.51a47.15,47.15,0,0,0-6.29,0c-1.07,0-1.64-.16-1.64-1.45q.06-21.34,0-42.71c0-1.23.49-1.52,1.6-1.49,2.25.06,4.5.08,6.75,0,1.23,0,1.54.45,1.48,1.58C142.65,239.45,142.71,240.94,142.71,243.11Z" transform="translate(-19.68 -217.5)"/><path class="cls-4" d="M242.94,276.43c-5.33,6.82-12.07,8.09-19.73,6-5.94-1.65-9.39-6.4-9.92-13.27-.44-5.69-.15-11.38-.21-17.07-.05-4.57,0-9.15,0-13.72,0-1.37.24-2.06,1.84-2a52.53,52.53,0,0,0,6.52,0c1.54-.09,1.87.53,1.86,1.94-.05,8.62,0,17.24,0,25.86a23.54,23.54,0,0,0,.15,2.91c.74,5.28,3.09,7.84,7.4,8.13,6.19.41,10.28-2.1,11.68-7.21a19.58,19.58,0,0,0,.64-5.12c0-8.16,0-16.33-.05-24.5,0-1.59.48-2.1,2-2a45.54,45.54,0,0,0,6.07,0c1.7-.12,2.14.45,2.13,2.13-.07,11.77,0,23.53,0,35.3,0,2.1-.06,4.2,0,6.29.06,1.37-.21,2.07-1.81,2a54.55,54.55,0,0,0-6.52,0c-1.45.08-1.8-.48-1.74-1.81A9,9,0,0,0,242.94,276.43Z" transform="translate(-19.68 -217.5)"/><path class="cls-5" d="M425.31,276.12c-2.87,3.49-6.18,6.43-10.86,6.94-11.83,1.28-18.81-4-19.2-15.15-.35-9.87-.09-19.77-.17-29.65,0-1.5.48-1.95,1.93-1.87a55,55,0,0,0,6.29,0c1.62-.1,2,.51,2,2-.07,8.46,0,16.93,0,25.39a19.77,19.77,0,0,0,.78,6.21,7.06,7.06,0,0,0,6.62,5.18c4.37.36,8.19-.67,10.84-4.49l.33-.56,0,0a.84.84,0,0,0,1-.7,25.22,25.22,0,0,0,.95-5.27c-.05-8.39,0-16.78-.05-25.17,0-1.53.42-2.19,2-2.09a44.41,44.41,0,0,0,5.16,0c1.35-.06,1.85.43,1.85,1.81q0,20.45,0,40.9c0,1.32-.4,1.93-1.8,1.85a33.64,33.64,0,0,0-4.49,0c-1.76.15-2.4-.45-2.34-2.27C426.14,278.23,426.93,276.81,425.31,276.12Z" transform="translate(-19.68 -217.5)"/><path class="cls-6" d="M197.18,243.79a3,3,0,0,0-.36,2q0,11.56,0,23.13a13.71,13.71,0,0,0,.21,2c.36,2.53,1.29,3.36,3.78,3.53,1.62.11,3.89-.77,4.68.33s.22,3.3.36,5-.21,2.34-2.08,2.46a35.34,35.34,0,0,1-8.72,0c-5.62-1-8.14-3.72-8.23-9.43-.14-8.76-.13-17.52-.06-26.28,0-2-.35-2.74-2.54-2.67-5.12.17-5,0-5.15-5.08,0-1.92.56-2.37,2.39-2.34,5.25.1,5.25,0,5.26-5.2,0-2.32.06-4.64,0-7-.05-1.31.43-1.68,1.68-1.63,2.25.08,4.5.1,6.74,0,1.46-.07,1.76.54,1.73,1.84-.07,3.22,0,6.44,0,9.66a3.8,3.8,0,0,0,.35,2.39c1.79,1.09,3.77.48,5.63.44s2.75.61,2.46,2.55a5.82,5.82,0,0,0,0,1.56c.23,1.74-.45,2.31-2.24,2.31C201.08,243.34,199,242.68,197.18,243.79Z" transform="translate(-19.68 -217.5)"/><path class="cls-7" d="M279.49,236.1a.19.19,0,0,1,.28-.08c.37,0,.74,0,1.12,0,6.42.1,6.4.1,6.26,6.59,0,1.33-.08,2-1.87,1.67-2.1-.38-4.4-.57-6.25,1.11l-.14.13h-.19c-.65,0-1.31-.1-1.46.78l-.09.14H277l-.63.47-2.16,2.22-.44.58.07-.07c-.51.09-.61.44-.58.88l0-.05a.82.82,0,0,0-.51.91l0,0a.87.87,0,0,0-.45,1l0,0c-1.73,1.72-1.77,4-1.82,6.18-.13,5.54-.05,11.08-.05,16.62,0,6.44,0,6.35-6.41,6.46-2.07,0-2.65-.59-2.63-2.65.09-12,0-24,0-35.92,0-6.36,0-6.31,6.37-6,1.42.06,1.76.62,1.77,1.9,0,1.06-.49,2.28.6,3.15a2.31,2.31,0,0,1-.06,1.84c0,.48-.39,1.18.26,1.34s.44-.57.53-1a.92.92,0,0,1,.44-.95,1,1,0,0,0,.46-.87l.32-.51a.85.85,0,0,0,.58-.83,4.19,4.19,0,0,1,1.76-1.85c.42,0,.76-.14.78-.65l-.05.06a.52.52,0,0,0,.56-.44l-.05.06.56-.44a.6.6,0,0,1,.67-.43l.7-.42h0C278.39,236.92,279.29,237.24,279.49,236.1Z" transform="translate(-19.68 -217.5)"/><path class="cls-8" d="M270.23,242c-1.09-.87-.59-2.09-.6-3.15,0-1.28-.35-1.84-1.77-1.9-6.37-.27-6.37-.32-6.37,6,0,12,.05,23.95,0,35.92,0,2.06.56,2.68,2.63,2.65,6.41-.11,6.41,0,6.41-6.46,0-5.54-.08-11.08.05-16.62,0-2.16.09-4.46,1.82-6.18A32.61,32.61,0,0,0,271,263.15c.08,5.7,0,11.39.05,17.08,0,1.29-.2,1.91-1.69,1.83-2.24-.13-4.5-.1-6.74,0-1.22,0-1.69-.27-1.68-1.59q.06-21.25,0-42.49c0-1.32.44-1.65,1.67-1.6,2,.09,4.05.08,6.07,0,1.21,0,1.85.25,1.72,1.6S270.29,240.66,270.23,242Z" transform="translate(-19.68 -217.5)"/><path class="cls-8" d="M425.31,276.12c1.62.69.83,2.11.8,3.14-.06,1.82.58,2.42,2.34,2.27a33.64,33.64,0,0,1,4.49,0c1.4.08,1.8-.53,1.8-1.85q0-20.46,0-40.9c0-1.38-.5-1.87-1.85-1.81a44.41,44.41,0,0,1-5.16,0c-1.62-.1-2.05.56-2,2.09.06,8.39,0,16.78.05,25.17a25.22,25.22,0,0,1-.95,5.27.84.84,0,0,1-1,.7,22.85,22.85,0,0,0,1.4-8.79c0-7.71,0-15.42,0-23.13,0-1.46.38-2,1.87-1.88a58.91,58.91,0,0,0,6.51,0c1.45-.08,1.73.46,1.73,1.79q-.06,21.12,0,42.22c0,1.25-.32,1.72-1.62,1.66q-3.37-.15-6.74,0c-1.31.06-1.7-.42-1.63-1.66C425.38,279,425.31,277.54,425.31,276.12Z" transform="translate(-19.68 -217.5)"/><path class="cls-8" d="M579.22,274.33a2.7,2.7,0,0,1-1-2.39v-24.7a1.67,1.67,0,0,1,.38-1.25,5.38,5.38,0,0,1,.27,2.64c0,7,0,14,0,21C578.93,271.21,579.12,272.77,579.22,274.33Z" transform="translate(-19.68 -217.5)"/><path class="cls-8" d="M279,245.44c1.85-1.68,4.15-1.49,6.25-1.11,1.79.33,1.85-.34,1.87-1.67.14-6.49.16-6.49-6.26-6.59-.38,0-.75,0-1.12,0,2.2-1.3,4.62-.82,7-.8.77,0,1,.44,1,1.13,0,2.54,0,5.09,0,7.63,0,1.34-.93,1.2-1.7,1A14.73,14.73,0,0,0,279,245.44Z" transform="translate(-19.68 -217.5)"/><path class="cls-8" d="M571.35,237.35c-2.46-.08-4.71-1.15-7.19-1.38a32.8,32.8,0,0,0-12.29.94,6.31,6.31,0,0,1-1.79,0C557.23,234.39,564.32,234.2,571.35,237.35Z" transform="translate(-19.68 -217.5)"/><path class="cls-8" d="M565.21,254.33a1.87,1.87,0,0,1-1.84,1.06,117.11,117.11,0,0,0-13,1.73c-1.47.23-2.76,1.28-4.33.91,3.43-1.9,7.31-1.91,11-2.57C559.73,255,562.47,254.7,565.21,254.33Z" transform="translate(-19.68 -217.5)"/><path class="cls-8" d="M540.93,245.57c-.06,4-.06,4,3.94,4,1.77,0,3.58.3,5.29-.45.1,1.24-.74,1.24-1.61,1.24-2.23,0-4.47-.1-6.69,0-1.67.1-2.17-.57-1.78-2.06A7.36,7.36,0,0,1,540.93,245.57Z" transform="translate(-19.68 -217.5)"/><path class="cls-8" d="M197.18,243.79c1.86-1.11,3.9-.45,5.84-.46,1.79,0,2.47-.57,2.24-2.31a5.82,5.82,0,0,1,0-1.56c.29-1.94-.47-2.59-2.46-2.55s-3.84.65-5.63-.44c2.46,0,4.91,0,7.37-.07,1,0,1.4.29,1.3,1.27a2.26,2.26,0,0,0,0,.45c.17,5.73.17,5.74-5.54,5.73C199.26,243.85,198.22,243.82,197.18,243.79Z" transform="translate(-19.68 -217.5)"/><path class="cls-8" d="M546.17,281.65c1.35-.46,2.41.55,3.61.81,4,.85,7.78-.29,11.67-.43C556.31,283.79,551.21,284,546.17,281.65Z" transform="translate(-19.68 -217.5)"/><path class="cls-8" d="M554,244.24c2.11-1.94,4.79-2,7.28-1.62,1.26.19,3.09-.74,4,1.1A19.54,19.54,0,0,0,554,244.24Z" transform="translate(-19.68 -217.5)"/><path class="cls-8" d="M583.41,282.15a18.55,18.55,0,0,1-.18-3.06c.2-2.11-.11-3.73-2.71-3.79,3.45-.14,3.52-.14,3.41,3.29C583.89,279.77,584.58,281.12,583.41,282.15Z" transform="translate(-19.68 -217.5)"/><path class="cls-8" d="M538.76,266.24a12.18,12.18,0,0,1-.08,6.72A10.94,10.94,0,0,1,538.76,266.24Z" transform="translate(-19.68 -217.5)"/><path class="cls-8" d="M573.48,282.48c3.31.59,6.56-.3,9.85-.34C580.08,283.18,576.82,284.08,573.48,282.48Z" transform="translate(-19.68 -217.5)"/><path class="cls-8" d="M54.36,218H45.24A19.66,19.66,0,0,1,54.36,218Z" transform="translate(-19.68 -217.5)"/><path class="cls-8" d="M569.17,246.9c1.41,1.64,1.57,3.26-.08,4.86A8.82,8.82,0,0,0,569.17,246.9Z" transform="translate(-19.68 -217.5)"/><path class="cls-8" d="M570.49,279.75A2.84,2.84,0,0,1,572.4,282,2.86,2.86,0,0,1,570.49,279.75Z" transform="translate(-19.68 -217.5)"/><path class="cls-8" d="M58.88,218.9a4.29,4.29,0,0,1-3.46-.82A6,6,0,0,1,58.88,218.9Z" transform="translate(-19.68 -217.5)"/><path class="cls-8" d="M548.55,237.5c-.32,1.18-1.28,1.23-2.24,1.28A4.26,4.26,0,0,1,548.55,237.5Z" transform="translate(-19.68 -217.5)"/><path class="cls-8" d="M578,243.68a3,3,0,0,1-1.54-2.6A4.57,4.57,0,0,1,578,243.68Z" transform="translate(-19.68 -217.5)"/><path class="cls-8" d="M550.42,248c-.12-1,0-1.9,1.27-2.06Z" transform="translate(-19.68 -217.5)"/><path class="cls-8" d="M567.05,244.6c1,0,1.76.26,1.67,1.48Z" transform="translate(-19.68 -217.5)"/><path class="cls-8" d="M561.58,282a2.5,2.5,0,0,1,2.55-.9A3.93,3.93,0,0,1,561.58,282Z" transform="translate(-19.68 -217.5)"/><path class="cls-8" d="M279.49,236.1c-.2,1.14-1.1.82-1.82.87A2.61,2.61,0,0,1,279.49,236.1Z" transform="translate(-19.68 -217.5)"/><path class="cls-8" d="M541.78,243.69c0,.73.28,1.62-.84,1.85A2.86,2.86,0,0,1,541.78,243.69Z" transform="translate(-19.68 -217.5)"/><path class="cls-8" d="M271,244.23c-.09.38.08,1.1-.53,1s-.28-.86-.26-1.34Z" transform="translate(-19.68 -217.5)"/><path class="cls-8" d="M564.3,281.09a1.37,1.37,0,0,1,1.67-.83A2.35,2.35,0,0,1,564.3,281.09Z" transform="translate(-19.68 -217.5)"/><path class="cls-8" d="M540,276.55c.8.07.89.65.9,1.28A2,2,0,0,1,540,276.55Z" transform="translate(-19.68 -217.5)"/><path class="cls-8" d="M277.24,246.34c.15-.88.81-.82,1.46-.78A2.47,2.47,0,0,1,277.24,246.34Z" transform="translate(-19.68 -217.5)"/><path class="cls-8" d="M543.5,259.29c-.1.8-.6,1.07-1.34,1A1.85,1.85,0,0,1,543.5,259.29Z" transform="translate(-19.68 -217.5)"/><path class="cls-8" d="M544.93,258.49a1.13,1.13,0,0,1-1.47.84A1.89,1.89,0,0,1,544.93,258.49Z" transform="translate(-19.68 -217.5)"/><path class="cls-8" d="M541.28,261.16a.81.81,0,0,1-.83,1A1.29,1.29,0,0,1,541.28,261.16Z" transform="translate(-19.68 -217.5)"/><path class="cls-8" d="M574.34,239.11a.77.77,0,0,1-1-.75A1.44,1.44,0,0,1,574.34,239.11Z" transform="translate(-19.68 -217.5)"/><path class="cls-8" d="M543,241.78a.77.77,0,0,1-.75,1.05A1.33,1.33,0,0,1,543,241.78Z" transform="translate(-19.68 -217.5)"/><path class="cls-8" d="M542.27,279.25a.84.84,0,0,1,.89.74A1.3,1.3,0,0,1,542.27,279.25Z" transform="translate(-19.68 -217.5)"/><path class="cls-8" d="M565.21,243.72c.51,0,1,0,1.31.56Z" transform="translate(-19.68 -217.5)"/><path class="cls-8" d="M275.3,238.57c0,.51-.36.62-.78.65A1,1,0,0,1,275.3,238.57Z" transform="translate(-19.68 -217.5)"/><path class="cls-8" d="M568.68,246c.46.15.54.51.51.93Z" transform="translate(-19.68 -217.5)"/><path class="cls-8" d="M271.86,242.41a1,1,0,0,1-.46.87A.85.85,0,0,1,271.86,242.41Z" transform="translate(-19.68 -217.5)"/><path class="cls-8" d="M545.31,239.51c-.07.45-.38.59-.78.63A1,1,0,0,1,545.31,239.51Z" transform="translate(-19.68 -217.5)"/><path class="cls-8" d="M273.25,250.55c0-.44.07-.79.58-.88C273.63,250,273.44,250.26,273.25,250.55Z" transform="translate(-19.68 -217.5)"/><path class="cls-8" d="M272.77,251.41a.82.82,0,0,1,.51-.91Z" transform="translate(-19.68 -217.5)"/><path class="cls-8" d="M272.34,252.34a.87.87,0,0,1,.45-1Z" transform="translate(-19.68 -217.5)"/><path class="cls-8" d="M569.13,251.69c.06.47,0,.84-.59.84Z" transform="translate(-19.68 -217.5)"/><path class="cls-8" d="M543.62,241.06c0,.39-.19.71-.63.78Z" transform="translate(-19.68 -217.5)"/><path class="cls-8" d="M545.1,281.14c.49-.05.94,0,1.13.56A1.39,1.39,0,0,1,545.1,281.14Z" transform="translate(-19.68 -217.5)"/><path class="cls-8" d="M568.15,252.91c0,.59-.39.66-.84.66Z" transform="translate(-19.68 -217.5)"/><path class="cls-8" d="M272.76,241.07a.85.85,0,0,1-.58.83A1,1,0,0,1,272.76,241.07Z" transform="translate(-19.68 -217.5)"/><path class="cls-8" d="M543.5,280.19a.85.85,0,0,1,1,.64A1.3,1.3,0,0,1,543.5,280.19Z" transform="translate(-19.68 -217.5)"/><path class="cls-8" d="M549.91,237a1,1,0,0,1-1,.43A1,1,0,0,1,549.91,237Z" transform="translate(-19.68 -217.5)"/><path class="cls-8" d="M545.87,258.05a.91.91,0,0,1-1,.47A1,1,0,0,1,545.87,258.05Z" transform="translate(-19.68 -217.5)"/><path class="cls-8" d="M566.61,280c.1-.52.46-.67.93-.65A1.18,1.18,0,0,1,566.61,280Z" transform="translate(-19.68 -217.5)"/><path class="cls-8" d="M570.11,278.82a.86.86,0,0,1,.42,1A.89.89,0,0,1,570.11,278.82Z" transform="translate(-19.68 -217.5)"/><path class="cls-8" d="M576.41,241.05c-.41-.07-.74-.2-.68-.71A1,1,0,0,1,576.41,241.05Z" transform="translate(-19.68 -217.5)"/><path class="cls-8" d="M568,279c.05-.51.39-.62.82-.63A1,1,0,0,1,568,279Z" transform="translate(-19.68 -217.5)"/><path class="cls-8" d="M553.1,244.75a.79.79,0,0,1,.92-.53Z" transform="translate(-19.68 -217.5)"/><path class="cls-8" d="M580.09,275.2c-.48,0-.82-.24-.86-.78Z" transform="translate(-19.68 -217.5)"/><path class="cls-8" d="M573.11,238.26c-.48,0-.92,0-1.05-.6Z" transform="translate(-19.68 -217.5)"/><path class="cls-8" d="M540.45,262.16a.86.86,0,0,1-.53.88A1,1,0,0,1,540.45,262.16Z" transform="translate(-19.68 -217.5)"/><path class="cls-8" d="M540,263l-.31.51Z" transform="translate(-19.68 -217.5)"/><path class="cls-8" d="M575.32,239.94a.42.42,0,0,1-.5-.48Z" transform="translate(-19.68 -217.5)"/><path class="cls-8" d="M275.81,238.19a.52.52,0,0,1-.56.44Z" transform="translate(-19.68 -217.5)"/><path class="cls-8" d="M566.46,244.23l.55.35Z" transform="translate(-19.68 -217.5)"/><path class="cls-8" d="M423.84,270.15l-.33.56Z" transform="translate(-19.68 -217.5)"/><path class="cls-8" d="M541.75,260.71l-.51.5Z" transform="translate(-19.68 -217.5)"/><path class="cls-8" d="M539.38,275.26c.26,0,.48.09.2.4C539.51,275.53,539.44,275.39,539.38,275.26Z" transform="translate(-19.68 -217.5)"/><path class="cls-8" d="M276.32,237.81l-.56.44Z" transform="translate(-19.68 -217.5)"/><path class="cls-8" d="M542.21,260.27l-.52.5Z" transform="translate(-19.68 -217.5)"/><path class="cls-8" d="M568.82,278.4l.38-.26Z" transform="translate(-19.68 -217.5)"/><path class="cls-8" d="M552.61,245.1l.56-.41Z" transform="translate(-19.68 -217.5)"/><path class="cls-8" d="M572.13,237.72l-.65-.33Z" transform="translate(-19.68 -217.5)"/><path class="cls-8" d="M567.49,279.36l.59-.42Z" transform="translate(-19.68 -217.5)"/><path class="cls-8" d="M276.36,246.94l.63-.47Z" transform="translate(-19.68 -217.5)"/><path class="cls-8" d="M542.19,243l-.42.71Z" transform="translate(-19.68 -217.5)"/><path class="cls-8" d="M575.77,240.39c-.34,0-.5-.15-.49-.48Z" transform="translate(-19.68 -217.5)"/><path class="cls-8" d="M546.31,238.78l-.56.4Z" transform="translate(-19.68 -217.5)"/><path class="cls-8" d="M566.57,253.9c-.08.26-.16.5-.47.18Z" transform="translate(-19.68 -217.5)"/><path class="cls-8" d="M545.81,239.13l-.56.45Z" transform="translate(-19.68 -217.5)"/><path class="cls-8" d="M568.57,252.49c0,.34-.11.5-.45.46Z" transform="translate(-19.68 -217.5)"/><path class="cls-8" d="M574.85,239.5a.51.51,0,0,1-.57-.42Z" transform="translate(-19.68 -217.5)"/><path class="cls-8" d="M277.69,237l-.7.42Z" transform="translate(-19.68 -217.5)"/><path class="cls-8" d="M572.56,282l.74.41Z" transform="translate(-19.68 -217.5)"/><path class="cls-8" d="M273.76,249.74l.44-.58Z" transform="translate(-19.68 -217.5)"/><path class="cls-8" d="M539.52,263.84l-.26.55Z" transform="translate(-19.68 -217.5)"/></svg>