<svg id="cloud" data-name="Layer 1" xmlns="http://www.w3.org/2000/svg" viewBox="0 0 955.16 307.67"><defs><style>.cs-1,.cs-4{opacity:0.38;}.cs-2{fill:#fcfdfe;}.cs-3,.cs-4{fill:#1ea9ea;}</style></defs><g class="cs-1"><path class="cs-2" d="M523.9,69.4a27.76,27.76,0,0,0-16.43,5.1,22.25,22.25,0,0,0-7,28.62c6.74,12.58,23.9,16.9,36.7,9.25,2.44-1.46,2.44-1.46,3.39,1.4,3,9.08,11.26,15.17,20.43,14.49,5.39-.4,10.35-2.16,13.29-7.45A17.66,17.66,0,0,1,588,111.53a3.14,3.14,0,0,0,2.88-2.21c1.66-4.13,4.63-6.88,9.23-7.39,1.63-.18,2.15-1.19,2.68-2.5a26.48,26.48,0,0,1,49.75,1c.31.87.57,1.82,1.57,2.11,4.09,1.22,7.48,4.3,12.1,4.25,1.33,0,2.13,0,2.87-1.14,4-6,4.92-12.34,1.79-18.9C666.7,77.91,659,74.2,649.72,73.06a4.26,4.26,0,0,1-2.92-1,30.76,30.76,0,0,0-14.27-8.31,2.15,2.15,0,0,1-1.89-2.4,28.08,28.08,0,0,0-1.51-7.8A39.33,39.33,0,0,0,581.19,27C567,30.9,557.81,40.11,553.43,54.12c-.54,1.76-1.09,2.32-3.12,1.59-5.15-1.84-10-1.16-14.08,2.81a14.89,14.89,0,0,0-4.39,10c-.1,1.44-.36,2-2.06,1.62A18.19,18.19,0,0,0,523.9,69.4Zm67.85,46c-.8,0-1.3,0-1.8,0-10.26.69-16.64,10.85-12.16,19.37,3.76,7.16,13.8,9.34,21.31,4.53,1.46-.94,2-1,2.91.71,4.31,8.07,13.66,8.71,18.8,2.49.82-1,1.51-.85,2.57-.51a10.2,10.2,0,0,0,10.11-1.77c1.46-1.2,2.32-1.06,3.78,0a17.68,17.68,0,0,0,25.06-3.42,10,10,0,0,1,4.37-3.39c4.81-2.05,8.15-5.47,8.33-11.05a10.37,10.37,0,0,0-7.23-10.59c-4.91-1.8-10-2.9-14.86-5.15-2.12-1-3.44-1.67-4.09-4.07-3.28-12.19-17.58-19.12-29.29-14.39-7.51,3-12.11,8.5-14,16.32-.25,1-.13,2-1.95,1.65-4.92-1.07-8.68,1.71-9.29,6.8C594.07,114.9,593.64,116,591.75,115.41Z" transform="translate(-115.69 -25.56)"/><path class="cs-3" d="M523.9,69.4a18.19,18.19,0,0,1,5.88.79c1.7.41,2-.18,2.06-1.62a14.89,14.89,0,0,1,4.39-10c4.08-4,8.93-4.65,14.08-2.81,2,.73,2.58.17,3.12-1.59C557.81,40.11,567,30.9,581.19,27A39.33,39.33,0,0,1,629.13,53.5a28.08,28.08,0,0,1,1.51,7.8,2.15,2.15,0,0,0,1.89,2.4A30.76,30.76,0,0,1,646.8,72a4.26,4.26,0,0,0,2.92,1c9.26,1.14,17,4.85,21.18,13.69,3.13,6.56,2.24,12.92-1.79,18.9-.74,1.1-1.54,1.13-2.87,1.14-4.62,0-8-3-12.1-4.25-1-.29-1.26-1.24-1.57-2.11a26.48,26.48,0,0,0-49.75-1c-.53,1.31-1.05,2.32-2.68,2.5-4.6.51-7.57,3.26-9.23,7.39a3.14,3.14,0,0,1-2.88,2.21,17.66,17.66,0,0,0-13.71,9.28c-2.94,5.29-7.9,7-13.29,7.45-9.17.68-17.41-5.41-20.43-14.49-1-2.86-1-2.86-3.39-1.4-12.8,7.65-30,3.33-36.7-9.25a22.25,22.25,0,0,1,7-28.62A27.76,27.76,0,0,1,523.9,69.4Z" transform="translate(-115.69 -25.56)"/><path class="cs-3" d="M591.75,115.41c1.89.63,2.32-.51,2.56-2.43.61-5.09,4.37-7.87,9.29-6.8,1.82.39,1.7-.63,1.95-1.65,1.9-7.82,6.5-13.3,14-16.32,11.71-4.73,26,2.2,29.29,14.39.65,2.4,2,3.08,4.09,4.07,4.82,2.25,9.95,3.35,14.86,5.15A10.37,10.37,0,0,1,675,122.41c-.18,5.58-3.52,9-8.33,11.05a10,10,0,0,0-4.37,3.39,17.68,17.68,0,0,1-25.06,3.42c-1.46-1.1-2.32-1.24-3.78,0A10.2,10.2,0,0,1,623.38,142c-1.06-.34-1.75-.49-2.57.51-5.14,6.22-14.49,5.58-18.8-2.49-.9-1.7-1.45-1.65-2.91-.71-7.51,4.81-17.55,2.63-21.31-4.53-4.48-8.52,1.9-18.68,12.16-19.37C590.45,115.38,591,115.41,591.75,115.41Z" transform="translate(-115.69 -25.56)"/></g><path class="cs-4" d="M987.56,302c1.89.63,2.33-.51,2.56-2.44.61-5.08,4.37-7.86,9.3-6.8,1.81.4,1.69-.62,1.94-1.64a22.32,22.32,0,0,1,14-16.33c11.72-4.72,26,2.2,29.3,14.39.64,2.41,2,3.09,4.09,4.08,4.81,2.25,9.94,3.35,14.85,5.14a10.39,10.39,0,0,1,7.24,10.6c-.18,5.58-3.53,9-8.34,11.05a10.07,10.07,0,0,0-4.37,3.38,17.68,17.68,0,0,1-25.06,3.43c-1.46-1.1-2.31-1.24-3.78,0a10.2,10.2,0,0,1-10.11,1.77c-1.05-.34-1.75-.49-2.57.5-5.14,6.23-14.49,5.59-18.8-2.48-.9-1.7-1.45-1.65-2.91-.72-7.51,4.82-17.54,2.64-21.31-4.52-4.48-8.52,1.9-18.68,12.16-19.37C986.26,301.93,986.76,302,987.56,302Z" transform="translate(-115.69 -25.56)"/><path class="cs-4" d="M149.16,256.8c4.1,1.41,5.05-1.14,5.55-5.46,1.33-11.41,9.5-17.66,20.19-15.26,3.94.88,3.67-1.4,4.21-3.69,4.13-17.55,14.14-29.85,30.43-36.64C235,185.14,266,200.69,273.14,228c1.41,5.4,4.27,6.93,8.88,9.15,10.46,5.05,21.6,7.52,32.26,11.55,9.9,3.73,16.07,12,15.7,23.78-.39,12.52-7.65,20.19-18.1,24.8a22,22,0,0,0-9.49,7.59c-13,17.9-36.9,21.3-54.4,7.69-3.17-2.47-5-2.79-8.2-.09-6.44,5.48-14,6.64-21.95,4-2.3-.77-3.81-1.1-5.59,1.13-11.16,14-31.46,12.54-40.81-5.58-2-3.81-3.16-3.7-6.32-1.6-16.3,10.81-38.1,5.92-46.27-10.16-9.73-19.11,4.13-41.92,26.41-43.46C146.33,256.73,147.42,256.8,149.16,256.8Z" transform="translate(-115.69 -25.56)"/>
</svg>
