<svg xmlns="http://www.w3.org/2000/svg" viewBox="0 0 411.69 120.69"><defs><style>.cls-1{fill:none;}.cls-1,.cls-10,.cls-11,.cls-2,.cls-3,.cls-4,.cls-5,.cls-8,.cls-9{stroke:#000;stroke-width:0.5px;}.cls-1,.cls-11,.cls-2,.cls-3,.cls-4,.cls-5,.cls-8,.cls-9{stroke-miterlimit:10;}.cls-2{fill:#1a1a1a;}.cls-3,.cls-6,.cls-7{fill:#fff;}.cls-5{fill:#999;}.cls-6{opacity:0.5;}.cls-8{fill:#ff1d25;}.cls-9{fill:#ccc;}.cls-10,.cls-11{fill:gray;}.cls-10{stroke-linecap:round;stroke-linejoin:round;}</style></defs><title>ute</title><g id="Tyres"><path class="cls-1" d="M122.5,225.5" transform="translate(-35.5 -80.04)"/><path class="cls-2" d="M126.44,135.35c-16.62.69-30.8,14.92-30.79,32.57,0,18.13,15,32.36,31.54,32.57,18.68.23,34.41-17.42,32.29-36.45C157.65,147.59,143,134.68,126.44,135.35Z" transform="translate(-35.5 -80.04)"/><path class="cls-3" d="M126.4,142.82c-13.8.55-25.56,12-25.56,26.18,0,14.58,12.43,26,26.18,26.18,15.51.19,28.56-14,26.8-29.3C152.3,152.66,140.13,142.28,126.4,142.82Z" transform="translate(-35.5 -80.04)"/><path class="cls-4" d="M126.15,146.06c-12.41.47-23,10.75-23,23.52,0,13.12,11.15,23.43,23.52,23.6,14,.19,25.73-12.57,24.17-26.33C149.46,155,138.51,145.58,126.15,146.06Z" transform="translate(-35.5 -80.04)"/><path class="cls-5" d="M127.08,154.3a14.55,14.55,0,0,0,.35,29.09c8.61.1,15.87-7.78,14.89-16.28A14.85,14.85,0,0,0,127.08,154.3Z" transform="translate(-35.5 -80.04)"/><path class="cls-2" d="M383.28,133.58c-16.62.68-30.8,14.91-30.79,32.56,0,18.14,15,32.36,31.54,32.57,18.68.23,34.41-17.42,32.29-36.44C414.49,145.81,399.82,132.9,383.28,133.58Z" transform="translate(-35.5 -80.04)"/><path class="cls-3" d="M383.56,142.45c-13.8.55-25.56,12-25.56,26.18,0,14.57,12.43,26,26.18,26.18,15.51.18,28.56-14,26.8-29.3C409.46,152.29,397.29,141.9,383.56,142.45Z" transform="translate(-35.5 -80.04)"/><path class="cls-4" d="M383.31,145.68c-12.41.48-23,10.76-23,23.53,0,13.12,11.15,23.43,23.52,23.6,14,.18,25.72-12.57,24.16-26.33C406.61,154.57,395.67,145.21,383.31,145.68Z" transform="translate(-35.5 -80.04)"/><path class="cls-5" d="M384.24,153.93a14.55,14.55,0,0,0,.35,29.09c8.61.1,15.86-7.78,14.89-16.28A14.84,14.84,0,0,0,384.24,153.93Z" transform="translate(-35.5 -80.04)"/></g><g id="shinny"><path class="cls-6" d="M383,148c-3.62.17-3.25.49-10,1a18.88,18.88,0,0,0-6,1c-2.39.77-4.07.81-6,2a18.09,18.09,0,0,0-5,5,37,37,0,0,0-3,4c-.39,1.49-.86,3.3,0,5,1.28,2.52,4.54,2.94,5,3,1.94.25,3.62-.5,7-2,2.66-1.18,4-1.77,5-3,.82-1,1.25-2,2-2s1,1.32,2,2c1.46.95,3.36-.18,6-1s4.69-.86,9-1,5.35-.18,7,1c1.26.91.22-1.69,1-2s3.31,2.59,4,2c1.11-.95,3.64.59,7,2,3.66,1.54,7.07,3,8,2,1.17-1.23-1.61-6.37-5-10-5.18-5.55-10.57-8.35-13-9C392.75,146.59,387.29,147.8,383,148Z" transform="translate(-35.5 -80.04)"/><path class="cls-7" d="M238,238" transform="translate(-35.5 -80.04)"/><path class="cls-6" d="M125.37,148.52c-3.62.17-3.25-.51-10,0-3.27.24-3.74,1.27-6,2a34.41,34.41,0,0,0-7,3c-2.37,1.46-4.71,2.31-6,4s-.87,3.53-1,4c-.39,1.49-.86,4.3,0,6,1.28,2.52,4.54,2.94,5,3,1.94.25,3.63-.5,7-2,2.66-1.18,4-1.77,5-3,.82-1,1.25-2,2-2s1,1.32,2,2c1.46.95,3.36-.18,6-1s4.69-.86,9-1,6.35-.18,8,1c1.26.91,1.23-.69,2-1s1.31,1.59,2,1c1.11-1,3.64.59,7,2,3.66,1.54,7.08,3,8,2,1.17-1.23,1.39-8.37-2-12-5.18-5.55-13.57-7.35-16-8C135.12,147.11,129.66,148.32,125.37,148.52Z" transform="translate(-35.5 -80.04)"/><path class="cls-2" d="M398.5,160.5" transform="translate(-35.5 -80.04)"/></g><g id="Layer_4" data-name="Layer 4"><path class="cls-8" d="M445.29,138.12c-.93,4-2.81,11-2.77,13l-2.64,21.05L431,178.37c-4,2-8.73,5.35-11.89,6.21l-6,1.16c2-8.45,2.38-15.1,1.67-19a22.26,22.26,0,0,0-4.16-8.89c-3.45-4.91-7.76-6.46-12.14-7.72-13.71-3.94-27.64-.88-31,.35a31.23,31.23,0,0,0-4.81,2,35.49,35.49,0,0,0-6.08,5.19c-3.23,3.57-3.77,7.46-4.53,10l-1.2,10,1.21,8-33.24.24-155.78.16v-1c.29-5-1.06-12.22-4.35-19.93a25.48,25.48,0,0,0-8.19-10.86,26,26,0,0,0-10.09-4.82c-2.13-.56-3.75-.2-20,.35l-1,0c-5,.17-7.7.3-10,1.17-7.5,2.87-12.17,8-13.8,11.24C92.72,168,90,174.54,89.94,178.33L48.84,173l-1,0c-.36-1.7-.82-5.09-1.14-8-.63-5.73-.24-8.54-2.17-10-1.46-1.07-2.28-1-4-.93-3,.06-2.76-10.58-2.26-15a67.18,67.18,0,0,1,4.68-18.08l1,0,144.93-5.53c7.79-12.14,12.66-19.22,22.44-32.4a6.2,6.2,0,0,1,3-2l1,0,2,0c7.83-.08,13.43-.22,18-.35,6.67-.19,13.34-.16,20-.39a57.65,57.65,0,0,1,14,.73,50.19,50.19,0,0,1,7,1.86l3,2,.27.74-7,.12,35.61,34.39,2,0,7-.12a11.62,11.62,0,0,0,2-1c1-.67,1.76-1.17,2-2a2.19,2.19,0,0,0,0-1l-.28-.74,2,0c3,.16,7.54.41,13,.77,4,.27,7.11.51,21,1.64,10.88.88,16.4,1.33,20,1.65l7,.87c9.78,1.2,20.16,2.66,31.08,4.46,7.12,1.18,12.76,2.22,19.1,5.67,3.39,1.85,11.27,7.58,11.14,7.81" transform="translate(-35.5 -80.04)"/><path class="cls-1" d="M288.45,87.53" transform="translate(-35.5 -80.04)"/><path class="cls-1" d="M46.12,127.76" transform="translate(-35.5 -80.04)"/><path class="cls-1" d="M47.94,174.74" transform="translate(-35.5 -80.04)"/><path class="cls-1" d="M122.59,154.43" transform="translate(-35.5 -80.04)"/><path class="cls-1" d="M326.79,106.86" transform="translate(-35.5 -80.04)"/><line class="cls-1" x1="182.96" y1="60.02" x2="5.97" y2="62.11"/><line class="cls-1" x1="296.98" y1="60.03" x2="401.05" y2="63.22"/><line class="cls-1" x1="287.65" y1="98.2" x2="313.64" y2="97.8"/><polyline class="cls-1" points="386.67 98.47 381.27 98.53 391.67 98.4"/><path class="cls-8" d="M356.51,194.52" transform="translate(-35.5 -80.04)"/><line class="cls-1" x1="129.52" y1="98.81" x2="183.52" y2="98.41"/></g><g id="Color"><path class="cls-8" d="M267.41,84l36.82,38.43a2.86,2.86,0,0,0,2.14.89l12.73-.22,1,0c1.53,2.45,4,6.41,5.17,9.91,3.26,10.08,2.12,17-.51,28-.87,3.63-2.84,8.76-2.26,7.2l-2.44,9.88,0,1-3,.05-90-.43,1.35-37,.66-18.72a4,4,0,0,0,0-.6l-6.61-37.59,45-.78" transform="translate(-35.5 -80.04)"/><path class="cls-5" d="M439.48,172.27l2.64-21.05c0-2,1.84-9,2.77-13.05l2,2-2.79,12.05-2.65,20-2,0" transform="translate(-35.5 -80.04)"/><polygon class="cls-9" points="190.13 7.22 195.73 41.13 262.72 39.96 231.13 6.51 190.13 7.22"/><path class="cls-9" d="M321,116a2.15,2.15,0,0,1,0,1c-.2.86-.94,1.36-2,2a11.25,11.25,0,0,1-2,1l-7,.13-2,0-35.6-34.38,9-.16C289,91.14,319.88,112,320.93,115Z" transform="translate(-35.5 -80.04)"/><line class="cls-1" x1="197.99" y1="60.29" x2="285.99" y2="59.76"/><rect class="cls-10" x="231.28" y="126.23" width="17" height="4" transform="translate(-37.71 -75.84) rotate(-1)"/><path class="cls-11" d="M40.48,154.4a4.85,4.85,0,0,0-3,1.14c-3.1,2.77-1.2,9.46-.81,10.85.66,2.33,2.18,7.69,6.15,8.56,2.11.47,2.11.47,3,0,0,0,.88-.73,1-1.1.48-1.81.19-4.45-.13-7.58-.64-6.22-.25-9.25-2.19-10.8-1.46-1.17-2.28-1-4-1" transform="translate(-35.5 -80.04)"/><path class="cls-1" d="M214.06,81.07" transform="translate(-35.5 -80.04)"/><path class="cls-1" d="M42.74,121.07" transform="translate(-35.5 -80.04)"/><path class="cls-1" d="M47.64,173" transform="translate(-35.5 -80.04)"/><path class="cls-1" d="M161.89,186" transform="translate(-35.5 -80.04)"/><path class="cls-1" d="M42.74,121.07" transform="translate(-35.5 -80.04)"/><path class="cls-1" d="M320.78,178.23" transform="translate(-35.5 -80.04)"/><path class="cls-1" d="M439.69,172.15" transform="translate(-35.5 -80.04)"/></g><g id="shinny2"><path class="cls-3" d="M439.5,115.5" transform="translate(-35.5 -80.04)"/><path class="cls-7" d="M384,93" transform="translate(-35.5 -80.04)"/><path class="cls-7" d="M348,98" transform="translate(-35.5 -80.04)"/><path class="cls-7" d="M228,88" transform="translate(-35.5 -80.04)"/><polyline class="cls-7" points="191.5 8.96 192.5 11.96 229.5 10.96 254.5 37.95 258.5 37.95 230.5 7.96"/><polygon class="cls-7" points="246.3 6.96 239.5 6.96 272.55 38.95 274.5 38.95 242.41 7.92 247.27 7.92 246.3 6.96"/></g></svg>