<svg id="ValueTyres" xmlns="http://www.w3.org/2000/svg" viewBox="0 0 435.14 183.37"><defs><style>.cls-1{fill:#fdfdfe;}.cls-2{fill:#2653a7;}.cls-3{fill:#2754a7;}.cls-4{fill:#2753a7;}.cls-5{fill:#272324;}.cls-6{fill:#282526;}.cls-7{fill:#272425;}.cls-8{fill:#282425;}.cls-9{fill:#262223;}.cls-10{fill:#2a56a8;}.cls-11{fill:#2b57a8;}.cls-12{fill:#2f5aaa;}.cls-13,.cls-15{fill:none;}.cls-13{opacity:0;}.cls-14{fill:#fbfafa;}</style></defs><title>Value Tyres</title><path class="cls-1" d="M148.05,290l-.15-.26c0,.05,0,.13,0,.15a.74.74,0,0,0,.21.07,158.34,158.34,0,0,0,13.69,18c3.68,4.35,8.39,6.06,13.92,6.06,9.08,0,18.16-.1,27.24.05s15.72-3.57,20.65-11.16q30.27-46.59,60.75-93.06a67.56,67.56,0,0,1,7.63-9.55c5.38-5.7,11.28-10.72,19.19-14.26-11.26,0-21.74,0-32.22,0a53.81,53.81,0,0,0-14.56,2c-12,3.41-21.8,9.85-28.28,21-8.79,15.09-17.9,30-26.87,45l-5.86,9.78c-3-13.6-2.77-30.87.71-43.82,1.92-7.13,4.62-13.9,9.91-19.34s12.16-6.78,18.39-3.39c3.29,1.79,3.29,1.79,6-.93,3.56-3.54,3.56-3.54-.67-6.54-8.63-6.12-18.34-5.86-26.46.92A38.65,38.65,0,0,0,200.6,205.6c-8.92,21-8.77,42.62-3.79,64.42.67,2.93.49,5.12-1.71,7.36-.58-3.44-2.62-2.48-4.6-1.55a23.32,23.32,0,0,0-3.72,2c-5.31,3.83-6.81,9.17-3.56,14.6,1.45,2.43,1.32,4-.5,6-.86-1.38-1.8-2.74-2.6-4.19-11-19.86-15-41.16-12.37-63.63,2.05-17.63,8.54-33.29,21.89-45.58.35-.33,1.05-.6.72-1.36-3.85-.1-6.86,1.86-9.73,4-9,6.76-13.94,16.19-16.93,26.72-4.76,16.74-4.9,33.72-1.43,50.68,2.79,13.64,7.17,26.7,16.6,37.45.62.71,1,1.35.24,2.16-1,1.1-1.47-.1-2-.52a80.16,80.16,0,0,0-12.85-9C159.19,292.42,154,290,148.05,290ZM331.37,217c-.8,1.29-1.29,2.13-1.83,2.95q-30.24,45.87-60.47,91.76c-.42.65-1.42,1.28-.91,2.12.38.64,1.38.27,2.1.27,9.25,0,18.49-.06,27.74,0,11.27.11,19.86-4.6,26-13.95q26.76-40.54,53.5-81.09a3.94,3.94,0,0,1,3.79-2.07c8.75.11,17.5.15,26.24,0,5.9-.09,10.76-2.23,14.08-7.51,4.47-7.11,9.23-14.06,13.83-21.09.42-.65,1.17-1.2,1-2.28-.41,0-.8-.07-1.2-.07h-109a21.6,21.6,0,0,0-6.85,1.2c-7.15,2.39-12.86,6.88-18,12.19A109,109,0,0,0,287.8,217ZM485.3,281.09h-3.54c-15,0-30,0-45-.09-5.08,0-6.35-2.58-3.8-7,.21-.36.43-.72.65-1.07l47-73.36a7.33,7.33,0,0,0-1.93-10.48,15.52,15.52,0,0,0-9.34-3.05c-7.32-.05-14.65,0-22-.05a3.7,3.7,0,0,0-3.62,1.91q-30.83,47.54-61.75,95c-5.53,8.5-3.61,18.82,4.62,24.78,6.46,4.67,13.87,6.32,21.68,6.34,17.24.06,34.48,0,51.72.06a3,3,0,0,0,2.85-1.48c2.6-3.77,5.29-7.47,7.94-11.2Zm-57.15,71.44.57.25c-.84,3.72-1.64,7.44-2.54,11.13-.43,1.8-.06,2.77,2,2.58a8.84,8.84,0,0,1,2.24,0c2.05.35,2.69-.72,3-2.53,1.49-7.58,3.09-15.14,4.62-22.71,1.15-5.69,1.13-5.59-4.79-5.74A4.09,4.09,0,0,0,429,338c-2.56,4.85-5.29,9.61-8,14.38-.33.59-.37,1.51-1.31,1.59-.6-4.39-1.15-8.76-1.82-13.11-.81-5.34-.86-5.2-6.32-5.38-2.36-.07-3.12.8-3.54,3-1.5,7.83-3.25,15.61-4.79,23.44-.91,4.64-1.91,4.49,3.66,4.61,2.14.05,2.87-.72,3.2-2.72.73-4.39,1.7-8.73,2.57-13.09,1,4.61,1.67,9.2,2.32,13.8.12.86.19,1.8,1.24,1.88,2,.16,4,.51,5.22-2C423.45,360.3,425.89,356.46,428.15,352.53Zm-157.22-5.91c-1.3-3.31-2.51-6.14-3.52-9-.56-1.6-1.43-2.09-3.12-2.07-8.89.09-17.79.11-26.68,0-2.05,0-2.92.66-3,2.61a14.77,14.77,0,0,1-.39,2c-.27,1.3.26,1.86,1.58,1.83,1.58,0,3.18.12,4.74,0,1.89-.18,2.47.33,2,2.29-1.34,5.9-2.53,11.84-3.8,17.77-1,4.56-1,4.41,3.56,4.61,2.26.09,3-.71,3.37-2.83,1-5.82,2.31-11.59,3.48-17.38.9-4.42.9-4.42,5.36-4.42,4.11,0,4.11,0,5.82-3.52,1.49,3.7,2.78,7.39,4.45,10.9a11.6,11.6,0,0,1,.88,9.06,63.68,63.68,0,0,0-1.34,6.34c-.19.85-.08,1.46.84,1.76,3.66,1.2,6.11-.21,6.86-4,.07-.32.08-.66.18-1,.95-3.23.92-6.69,3.14-9.6,3.43-4.5,6.53-9.25,9.74-13.91.47-.68,1.5-1.45.2-2.25-1.77-1.1-7,.18-8.23,1.95Zm235,19.85v0c1.24,0,2.49,0,3.74,0,11.22-.34,18.25-7.13,19-18.34.4-6-2.61-10.29-8.42-11.81-4.5-1.18-9.1-.62-13.66-.71-1,0-1.43.63-1.62,1.57q-2.79,13.67-5.64,27.31c-.31,1.47.22,2,1.62,2ZM300.47,354.14l2-.75c4.25-1.66,6.63-5.76,6.16-10.61-.35-3.61-3.18-6.08-7.75-6.85-3.48-.59-7-.2-10.47-.4-1.76-.1-2.49.51-2.83,2.25-1.59,8.07-3.35,16.11-4.95,24.18-.93,4.67-1.7,4.47,3.74,4.57,2,0,2.83-.69,3.11-2.57.33-2.22.77-4.43,1.31-6.6.19-.75-.22-1.93,1.19-2.13s1.7.64,2.16,1.56c.89,1.79,2.15,3.44,2.72,5.32,1.24,4.11,4,4.86,7.8,4.42,1.8-.22,2.24-.67,1.32-2.29C304.15,361,302.39,357.68,300.47,354.14ZM181.48,367c8,0,12.48-3.27,14.39-11,1.28-5.25,2.11-10.6,3.29-15.87s.63-4.36-3.83-4.53c-1.73-.06-2.53.46-2.84,2.26-.7,4.1-1.57,8.17-2.48,12.22-.62,2.73-.8,5.63-2.56,8s-5,3.32-7.32,2.31c-1.89-.83-2.51-2.85-1.84-6.14.93-4.64,1.82-9.3,2.83-13.92,1.18-5.41.91-4.61-4.14-4.72a2.13,2.13,0,0,0-2.54,2c-1.07,5.8-2.44,11.55-3.38,17.37C169.85,362.41,173.9,367,181.48,367Zm27.3-.49c2.66,0,5.33-.13,8,0,1.8.11,2.61-.53,2.78-2.27a18.67,18.67,0,0,1,.49-2.19c.29-1.28-.19-1.88-1.53-1.86-2.41,0-4.83,0-7.25,0-4.67,0-4.62,0-3.58-4.64.29-1.28.78-1.77,2.14-1.7,2.49.11,5,0,7.49.05,1.21,0,1.88-.37,2.09-1.58.17-1,.45-1.95.65-2.92.26-1.25-.18-1.9-1.54-1.87-2.25,0-4.51-.09-6.75,0-1.83.1-2.75-.24-1.9-2.28a5.12,5.12,0,0,0,.29-1.46c.12-1.51.81-2.07,2.4-2,2.91.15,5.83-.05,8.74.08,1.71.08,2.45-.57,2.59-2.18a8.57,8.57,0,0,1,.35-2c.6-1.77-.23-2.25-1.82-2.25-5.33,0-10.66,0-16,0-1.15,0-1.9.34-2.15,1.56q-2.82,13.68-5.66,27.36c-.28,1.35.19,2,1.67,2C203.11,366.44,205.94,366.48,208.78,366.48Zm109.89,0c2.08,0,4.16,0,6.24,0,4.94,0,3.83.57,5-4.12.38-1.57-.07-2.17-1.65-2.15-2.33,0-4.66,0-7,0-4.51,0-4.43,0-3.7-4.39.26-1.59.9-2,2.43-1.95,2.24.12,4.5-.08,6.74.06,1.78.12,2.65-.51,2.81-2.28a15.3,15.3,0,0,1,.44-2.2c.3-1.26-.13-1.91-1.48-1.9-1.92,0-3.83,0-5.75,0-3.32,0-3.15,0-2.78-3.25.24-2.08,1.1-2.57,3-2.45,2.65.17,5.33-.05,8,.08,1.71.09,2.71-.35,2.8-2.2a7.23,7.23,0,0,1,.42-1.95c.61-1.76-.23-2.24-1.82-2.24-5.33,0-10.66,0-16,0-1.18,0-1.87.32-2.12,1.55q-2.81,13.68-5.66,27.35c-.33,1.55.27,2.11,1.83,2.06C313.17,366.42,315.92,366.48,318.67,366.48Zm166.59,0c2.83,0,5.66-.07,8.49,0,1.47.05,2.16-.52,2.28-1.95a7.74,7.74,0,0,1,.34-1.71c.55-1.85.16-2.82-2.05-2.66s-4.32,0-6.49,0c-4.67,0-4.62,0-3.66-4.62.26-1.27.72-1.8,2.09-1.72,2.16.12,4.34-.1,6.49.07s3.39-.38,3.4-2.74a7.94,7.94,0,0,1,.36-1.7c.32-1.4-.22-2-1.68-2-2.49.06-5,0-7.48,0-1.12,0-1.53-.31-1.18-1.45a9.67,9.67,0,0,0,.44-2.19c.11-1.67.91-2.16,2.56-2.07,2.66.16,5.34-.13,8,.1,2.23.19,3.2-.66,3.35-2.76a4.63,4.63,0,0,1,.24-1.22c.69-1.84-.16-2.43-1.88-2.42-5.24,0-10.48,0-15.72,0a2,2,0,0,0-2.36,1.88Q478,351,475.16,364.49c-.3,1.41.14,2,1.62,2C479.61,366.44,482.44,366.48,485.26,366.48Zm-346.46,0c4.3,0,4.27,0,3.48-3.85-1.64-8.05-3.22-16.12-4.89-24.17-.25-1.16,0-3-2-2.85s-4.52-1.15-5.84,1.83c-1,2.35-2.47,4.52-3.72,6.77-3.67,6.61-7.36,13.21-11,19.83-.42.76-1.52,2,.15,2.31a17.8,17.8,0,0,0,6,0c1.41-.23,1.78-1.94,2.19-3.11,1.25-3.5,3.52-4.59,7.18-4.27,4,.36,4.24.06,4.74,4.18C135.37,365.9,136.45,367.08,138.8,366.48Zm201.77.52c5.11,0,8.79-.86,11.81-3.55,5.35-4.78,3.87-12.34-2.82-14.69-1.87-.66-3.87-1.06-5.52-2.26a2.42,2.42,0,0,1,0-4.14,5.39,5.39,0,0,1,2.81-.88,16.88,16.88,0,0,1,7.29,1.41c1.43.53,2.42.32,2.63-1.45a17.7,17.7,0,0,1,.55-2.68c.26-1-.12-1.54-1.07-1.9-4.29-1.61-8.68-2.36-13.21-1.27a9.74,9.74,0,0,0-7.44,9c-.29,4.07,1.63,6.68,6.29,8.46,1.39.54,2.85.89,4.26,1.4.93.34,1.92.72,2,1.95a3.1,3.1,0,0,1-1.61,3.14,9.1,9.1,0,0,1-3.05,1,16.41,16.41,0,0,1-7.81-1.16c-1-.36-2.51-1.33-2.71.59s-2.45,4,.55,5.41A16.83,16.83,0,0,0,340.57,367ZM104.3,354l-.63-.1c-.84-4.72-1.75-9.42-2.49-14.16-.8-5.1-.83-4.11-4.91-4.18-2.79,0-3,.28-2.46,3,1.6,8.41,3.18,16.83,4.81,25.23.2,1-.05,2.74,1.65,2.57,1.87-.19,4.18,1.24,5.53-1.44,1.53-3,3.27-6,4.91-9q5-9,9.88-17.92c.41-.75,1.25-1.61.11-2.37-1.83-1.23-6.92.24-8,2.23ZM466,335.56h-9c-3.72,0-3.67,0-4.45,3.68-.4,1.86-.14,2.9,2.1,2.69,1.49-.14,3,0,4.49,0s2,.1,1.62,1.9c-1.37,5.89-2.52,11.83-3.73,17.76-1.11,5.43-1.43,4.86,4.08,5,1.67,0,2.28-.54,2.59-2.17,1-5.39,2.24-10.74,3.35-16.11,1.3-6.3,1.29-6.3,7.82-6.32a4.69,4.69,0,0,1,.75,0c1.5.24,2.12-.52,2.28-1.9a14.73,14.73,0,0,1,.42-2.2c.5-1.7-.21-2.28-1.85-2.26C473,335.59,469.51,335.56,466,335.56ZM377,366.47c2.58,0,5.17-.12,7.74,0,1.94.13,3-.43,3.11-2.47a4.59,4.59,0,0,1,.31-1.46c.69-1.8,0-2.42-1.8-2.38-3.08.06-6.16,0-9.24,0-1.53,0-2.21-.06-1.75-2,1.41-6.05,2.55-12.17,3.79-18.26.89-4.41.88-4.39-3.68-4.39-1.53,0-2.65.07-3,2-1.73,8.88-3.59,17.75-5.48,26.61-.36,1.7.12,2.32,1.8,2.29C371.46,366.44,374.21,366.47,377,366.47Zm-221.15,0H162c4.74,0,3.78.47,4.83-4,.4-1.71-.11-2.3-1.77-2.28-3,0-6-.18-9,.06-2.34.19-2.49-.65-2.06-2.6,1.29-5.73,2.42-11.5,3.61-17.26,1-4.82-.15-5.9-5-4.85a1.71,1.71,0,0,0-1.45,1.48q-2.8,13.66-5.62,27.32c-.31,1.49.17,2.17,1.77,2.13C150.15,366.43,153,366.47,155.8,366.47Zm-14.23-89.34a62.28,62.28,0,0,0,3.77,8.9,3.18,3.18,0,0,0,3.08,2,37.24,37.24,0,0,1,11.15,2.43c4.17,1.5,7.81,3.93,11.61,6.51C169,285.28,155.61,276,141.57,277.13Zm19.05-7.59c-.63-5.14-1.52-9.39-4.64-12.85-4.64-5.15-10.86-6.78-17.35-7.83-1.11-.17-1.29.44-1.26,1.3.06,1.49.17,3,.21,4.48.17,5.56.16,5.56,5.74,6.41.41.06.81.16,1.22.25A32,32,0,0,1,160.62,269.54Zm47.06-80.33a42.43,42.43,0,0,0-10.51,2.9c-6.89,2.84-13.46,6.2-18.21,12.21a11.57,11.57,0,0,0-2.89,7.5c6.34-5.89,13.67-8.28,21.52-9.42a3.1,3.1,0,0,0,2.18-1.5C202.35,197,205,193.21,207.68,189.21Zm186.6,177.27c1.19-.33,3.11.91,3.62-1.63,1.81-9.05,3.73-18.08,5.58-27.12.13-.62.36-1.31-.27-1.86-1.67-1.48-6.61.06-7.06,2.23q-2.55,12.33-5.09,24.67C390.31,366.47,390.34,366.48,394.28,366.48Zm47.07,0c3.55,0,3.53,0,4.25-3.49q2.38-11.57,4.82-23.13c.91-4.31.91-4.17-3.59-4.36-2.26-.09-3,.75-3.38,2.84-1.57,8.23-3.33,16.41-5,24.62C437.7,366.48,437.7,366.48,441.35,366.48ZM157.06,255.14a19.7,19.7,0,0,0,0-6.74c-.93-5.94-3.89-10.3-10-12-2.58-.74-5.24-.76-7.85-1.21-1.21-.21-1.58.44-1.71,1.54a82.27,82.27,0,0,0-.4,8.45c0,1.08.35,1.4,1.42,1.44C145.7,246.87,152.15,248.94,157.06,255.14ZM172.8,226a34.42,34.42,0,0,1,19.54-9.33,2,2,0,0,0,1.76-1.49c1-2.9,2.1-5.79,3.23-8.65.5-1.27.18-1.63-1.13-1.49a32.42,32.42,0,0,0-8.75,1.94C178.92,210.42,173.52,216.36,172.8,226Zm6.7,58.16c.8-4.74,3.55-7.52,7.08-9.62a20,20,0,0,1,4.3-1.92c1.55-.48,2.17-1.16,1.74-2.87-.64-2.48-1.08-5-1.5-7.55-.19-1.14-.62-1.31-1.67-.95-3.86,1.32-7.64,2.79-10.8,5.47a10.26,10.26,0,0,0-3.62,5.78C174,277.11,176.6,280.36,179.5,284.13Zm-15.25-2.65a25.12,25.12,0,0,0-5.89-10.54c-4.81-5.1-10.62-8.12-17.79-8.19-1.5,0-2.33.33-1.91,2.12.62,2.66,1.11,5.36,1.59,8.05.2,1.15.6,1.67,1.92,1.59A30.48,30.48,0,0,1,164.25,281.48Zm-5.87-54.56a15.48,15.48,0,0,0,1.38-6.4c.26-7.55-5.28-13.37-12.28-13-1,.06-2,.18-2.46,1.29a78.32,78.32,0,0,0-3.58,8.75c-.36,1.28-.27,1.78,1.2,1.84C148.89,219.69,154.28,221.88,158.38,226.92Zm14.87,41.81a23.73,23.73,0,0,1,15.94-10.1c1.05-.18,1.36-.59,1.29-1.61a78.75,78.75,0,0,1-.3-8c.1-2.1-.79-2.36-2.47-2-7,1.55-12.07,5.47-14.71,12.16C171.81,262.23,171.41,265.43,173.25,268.73ZM170.67,241c4-4.88,8.34-8.73,14-9.81,5.13-1,7.13-3.46,7.6-8.39.39-4,.74-4-3.19-3.22C177.09,221.85,170.7,229.1,170.67,241Zm19.91-8.91c-14.17,3.95-22.17,11.18-19.64,22.25,6.33-7.2,8.74-8.61,17.78-10.27.88-.16,1.3-.36,1.34-1.34C190.18,239.25,190.39,235.77,190.58,232.09ZM162,212.38a21,21,0,0,0,2.39-5.91c1.11-4.85,1.6-9.7-1.34-14.21-.6-.91-1.22-1.73-2.39-1a37.49,37.49,0,0,0-12.27,11.86c-.52.82-.35,1.24.61,1.28C154.67,204.63,158.82,207.47,162,212.38Zm-4.46,28.89c1.45-13.21-6.16-18.09-14.8-18.51-1.73-.08-2.63.43-3,2.11a57.16,57.16,0,0,0-1.06,6.88c-.14,1.32.19,1.67,1.61,1.46a15.86,15.86,0,0,1,10.52,2.15C153.32,236.8,155.19,239,157.52,241.27ZM216.1,183.8c-6.21.38-11.86.39-17.46,1.21A20.15,20.15,0,0,0,183,196c.42,0,.6.11.7.05a58,58,0,0,1,22-8.29C209.18,187.2,212.68,186.45,216.1,183.8Zm-47.73,14.73c3.71-5.27,6.86-10.47,12.15-13.82-5.88.28-11.13,2.13-16.48,4.75C167.42,191.6,167.3,195.11,168.37,198.53Z" transform="translate(-93.57 -183.63)"/><path class="cls-2" d="M331.37,217H287.8a109,109,0,0,1,13.61-17.51c5.17-5.31,10.88-9.8,18-12.19a21.6,21.6,0,0,1,6.85-1.2h109c.4,0,.79,0,1.2.07.17,1.08-.58,1.63-1,2.28-4.6,7-9.36,14-13.83,21.09-3.32,5.28-8.18,7.42-14.08,7.51-8.74.13-17.49.09-26.24,0a3.94,3.94,0,0,0-3.79,2.07q-26.7,40.57-53.5,81.09c-6.17,9.35-14.76,14.06-26,13.95-9.25-.09-18.49,0-27.74,0-.72,0-1.72.37-2.1-.27-.51-.84.49-1.47.91-2.12q30.21-45.9,60.47-91.76C330.08,219.09,330.57,218.25,331.37,217Z" transform="translate(-93.57 -183.63)"/><path class="cls-3" d="M148.05,290c5.95,0,11.14,2.39,16.22,5.07a80.16,80.16,0,0,1,12.85,9c.52.42,1,1.62,2,.52.73-.81.38-1.45-.24-2.16-9.43-10.75-13.81-23.81-16.6-37.45-3.47-17-3.33-33.94,1.43-50.68,3-10.53,7.91-20,16.93-26.72,2.87-2.15,5.88-4.11,9.73-4,.33.76-.37,1-.72,1.36-13.35,12.29-19.84,27.95-21.89,45.58-2.61,22.47,1.35,43.77,12.37,63.63.8,1.45,1.74,2.81,2.6,4.19,1.82-1.93,1.95-3.53.5-6-3.25-5.43-1.75-10.77,3.56-14.6a23.32,23.32,0,0,1,3.72-2c2-.93,4-1.89,4.6,1.55,2.2-2.24,2.38-4.43,1.71-7.36-5-21.8-5.13-43.4,3.79-64.42a38.65,38.65,0,0,1,10.69-14.87c8.12-6.78,17.83-7,26.46-.92,4.23,3,4.23,3,.67,6.54-2.73,2.72-2.73,2.72-6,.93-6.23-3.39-13.06-2.1-18.39,3.39s-8,12.21-9.91,19.34c-3.48,13-3.75,30.22-.71,43.82l5.86-9.78c9-15,18.08-29.89,26.87-45,6.48-11.12,16.23-17.56,28.28-21a53.81,53.81,0,0,1,14.56-2c10.48,0,21,0,32.22,0-7.91,3.54-13.81,8.56-19.19,14.26a67.56,67.56,0,0,0-7.63,9.55Q254,256.4,223.61,302.94C218.68,310.53,212,314.26,203,314.1s-18.16-.06-27.24-.05c-5.53,0-10.24-1.71-13.92-6.06a158.34,158.34,0,0,1-13.69-18Z" transform="translate(-93.57 -183.63)"/><path class="cls-4" d="M485.3,281.09l-14.48,20.34c-2.65,3.73-5.34,7.43-7.94,11.2a3,3,0,0,1-2.85,1.48c-17.24-.05-34.48,0-51.72-.06-7.81,0-15.22-1.67-21.68-6.34-8.23-6-10.15-16.28-4.62-24.78q30.89-47.51,61.75-95a3.7,3.7,0,0,1,3.62-1.91c7.33.08,14.66,0,22,.05a15.52,15.52,0,0,1,9.34,3.05,7.33,7.33,0,0,1,1.93,10.48l-47,73.36c-.22.35-.44.71-.65,1.07-2.55,4.4-1.28,6.94,3.8,7,15,.11,30,.07,45,.09Z" transform="translate(-93.57 -183.63)"/><path class="cls-5" d="M428.15,352.53c-2.26,3.93-4.7,7.77-6.7,11.83-1.25,2.55-3.19,2.2-5.22,2-1.05-.08-1.12-1-1.24-1.88-.65-4.6-1.33-9.19-2.32-13.8-.87,4.36-1.84,8.7-2.57,13.09-.33,2-1.06,2.77-3.2,2.72-5.57-.12-4.57,0-3.66-4.61,1.54-7.83,3.29-15.61,4.79-23.44.42-2.18,1.18-3.05,3.54-3,5.46.18,5.51,0,6.32,5.38.67,4.35,1.22,8.72,1.82,13.11.94-.08,1-1,1.31-1.59,2.7-4.77,5.43-9.53,8-14.38a4.09,4.09,0,0,1,4.28-2.51c5.92.15,5.94.05,4.79,5.74-1.53,7.57-3.13,15.13-4.62,22.71-.35,1.81-1,2.88-3,2.53a8.84,8.84,0,0,0-2.24,0c-2.06.19-2.43-.78-2-2.58.9-3.69,1.7-7.41,2.54-11.13Z" transform="translate(-93.57 -183.63)"/><path class="cls-6" d="M270.93,346.62l6.11-8.94c1.22-1.77,6.46-3.05,8.23-1.95,1.3.8.27,1.57-.2,2.25-3.21,4.66-6.31,9.41-9.74,13.91-2.22,2.91-2.19,6.37-3.14,9.6-.1.32-.11.66-.18,1-.75,3.77-3.2,5.18-6.86,4-.92-.3-1-.91-.84-1.76a63.68,63.68,0,0,1,1.34-6.34,11.6,11.6,0,0,0-.88-9.06c-1.67-3.51-3-7.2-4.45-10.9-1.71,3.52-1.71,3.52-5.82,3.52-4.46,0-4.46,0-5.36,4.42-1.17,5.79-2.45,11.56-3.48,17.38-.38,2.12-1.11,2.92-3.37,2.83-4.54-.2-4.53-.05-3.56-4.61,1.27-5.93,2.46-11.87,3.8-17.77.45-2-.13-2.47-2-2.29-1.56.16-3.16,0-4.74,0-1.32,0-1.85-.53-1.58-1.83a14.77,14.77,0,0,0,.39-2c.11-1.95,1-2.64,3-2.61,8.89.12,17.79.1,26.68,0,1.69,0,2.56.47,3.12,2.07C268.42,340.48,269.63,343.31,270.93,346.62Z" transform="translate(-93.57 -183.63)"/><path class="cls-5" d="M506,366.47h-5c-1.4,0-1.93-.55-1.62-2q2.87-13.65,5.64-27.31c.19-.94.64-1.59,1.62-1.57,4.56.09,9.16-.47,13.66.71,5.81,1.52,8.82,5.8,8.42,11.81-.74,11.21-7.77,18-19,18.34-1.25,0-2.5,0-3.74,0Zm15.63-18.56c.11-3.71-1.5-5.56-5.18-5.89-1.15-.1-2.33,0-3.48-.14s-1.87.28-2.13,1.66c-.94,5-2,10.07-3.11,15.08-.36,1.59.39,1.61,1.54,1.61C516.67,360.2,521.36,355.55,521.58,347.91Z" transform="translate(-93.57 -183.63)"/><path class="cls-5" d="M300.47,354.14c1.92,3.54,3.68,6.84,5.51,10.1.92,1.62.48,2.07-1.32,2.29-3.78.44-6.56-.31-7.8-4.42-.57-1.88-1.83-3.53-2.72-5.32-.46-.92-.85-1.75-2.16-1.56s-1,1.38-1.19,2.13c-.54,2.17-1,4.38-1.31,6.6-.28,1.88-1.09,2.6-3.11,2.57-5.44-.1-4.67.1-3.74-4.57,1.6-8.07,3.36-16.11,4.95-24.18.34-1.74,1.07-2.35,2.83-2.25,3.49.2,7-.19,10.47.4,4.57.77,7.4,3.24,7.75,6.85.47,4.85-1.91,9-6.16,10.61Zm-8-5.26a12.45,12.45,0,0,0,7.06-1.14,3.43,3.43,0,0,0,1.89-4c-.33-1.68-1.75-1.77-3.11-1.82a24.71,24.71,0,0,0-3-.07c-1.36.11-1.54.2-1.72,1.27C293.33,345,292.9,346.87,292.5,348.88Z" transform="translate(-93.57 -183.63)"/><path class="cls-7" d="M181.48,367c-7.58,0-11.63-4.56-10.42-12,.94-5.82,2.31-11.57,3.38-17.37a2.13,2.13,0,0,1,2.54-2c5.05.11,5.32-.69,4.14,4.72-1,4.62-1.9,9.28-2.83,13.92-.67,3.29,0,5.31,1.84,6.14,2.31,1,5.65-.05,7.32-2.31s1.94-5.27,2.56-8c.91-4.05,1.78-8.12,2.48-12.22.31-1.8,1.11-2.32,2.84-2.26,4.46.17,5-.84,3.83,4.53s-2,10.62-3.29,15.87C194,363.7,189.51,367,181.48,367Z" transform="translate(-93.57 -183.63)"/><path class="cls-8" d="M208.78,366.48c-2.84,0-5.67,0-8.5,0-1.48,0-1.95-.67-1.67-2q2.82-13.68,5.66-27.36c.25-1.22,1-1.57,2.15-1.56,5.33,0,10.66,0,16,0,1.59,0,2.42.48,1.82,2.25a8.57,8.57,0,0,0-.35,2c-.14,1.61-.88,2.26-2.59,2.18-2.91-.13-5.83.07-8.74-.08-1.59-.08-2.28.48-2.4,2a5.12,5.12,0,0,1-.29,1.46c-.85,2,.07,2.38,1.9,2.28,2.24-.13,4.5,0,6.75,0,1.36,0,1.8.62,1.54,1.87-.2,1-.48,1.94-.65,2.92-.21,1.21-.88,1.62-2.09,1.58-2.5-.07-5,.06-7.49-.05-1.36-.07-1.85.42-2.14,1.7-1,4.65-1.09,4.64,3.58,4.64,2.42,0,4.84,0,7.25,0,1.34,0,1.82.58,1.53,1.86a18.67,18.67,0,0,0-.49,2.19c-.17,1.74-1,2.38-2.78,2.27C214.11,366.35,211.44,366.48,208.78,366.48Z" transform="translate(-93.57 -183.63)"/><path class="cls-8" d="M318.67,366.48c-2.75,0-5.5-.06-8.25,0-1.56.05-2.16-.51-1.83-2.06q2.85-13.67,5.66-27.35c.25-1.23.94-1.56,2.12-1.55,5.33,0,10.66,0,16,0,1.59,0,2.43.48,1.82,2.24a7.23,7.23,0,0,0-.42,1.95c-.09,1.85-1.09,2.29-2.8,2.2-2.66-.13-5.34.09-8-.08-1.93-.12-2.79.37-3,2.45-.37,3.26-.54,3.25,2.78,3.25,1.92,0,3.83,0,5.75,0,1.35,0,1.78.64,1.48,1.9a15.3,15.3,0,0,0-.44,2.2c-.16,1.77-1,2.4-2.81,2.28-2.24-.14-4.5.06-6.74-.06-1.53-.09-2.17.36-2.43,1.95-.73,4.4-.81,4.39,3.7,4.39,2.34,0,4.67,0,7,0,1.58,0,2,.58,1.65,2.15-1.14,4.69,0,4.09-5,4.12C322.83,366.49,320.75,366.48,318.67,366.48Z" transform="translate(-93.57 -183.63)"/><path class="cls-8" d="M485.26,366.48c-2.82,0-5.65,0-8.48,0-1.48,0-1.92-.59-1.62-2Q478,351,480.78,337.42a2,2,0,0,1,2.36-1.88c5.24.06,10.48,0,15.72,0,1.72,0,2.57.58,1.88,2.42a4.63,4.63,0,0,0-.24,1.22c-.15,2.1-1.12,2.95-3.35,2.76-2.64-.23-5.32.06-8-.1-1.65-.09-2.45.4-2.56,2.07a9.67,9.67,0,0,1-.44,2.19c-.35,1.14.06,1.47,1.18,1.45,2.49-.05,5,0,7.48,0,1.46,0,2,.56,1.68,2a7.94,7.94,0,0,0-.36,1.7c0,2.36-1.28,2.9-3.4,2.74s-4.33.05-6.49-.07c-1.37-.08-1.83.45-2.09,1.72-1,4.63-1,4.62,3.66,4.62,2.17,0,4.34.12,6.49,0s2.6.81,2.05,2.66a7.74,7.74,0,0,0-.34,1.71c-.12,1.43-.81,2-2.28,1.95C490.92,366.41,488.09,366.48,485.26,366.48Z" transform="translate(-93.57 -183.63)"/><path class="cls-5" d="M138.8,366.48c-2.35.6-3.43-.58-3.76-3.32-.5-4.12-.7-3.82-4.74-4.18-3.66-.32-5.93.77-7.18,4.27-.41,1.17-.78,2.88-2.19,3.11a17.8,17.8,0,0,1-6,0c-1.67-.31-.57-1.55-.15-2.31,3.64-6.62,7.33-13.22,11-19.83,1.25-2.25,2.68-4.42,3.72-6.77,1.32-3,3.8-1.66,5.84-1.83s1.76,1.69,2,2.85c1.67,8.05,3.25,16.12,4.89,24.17C143.07,366.48,143.1,366.48,138.8,366.48Zm-9.94-13.69c1.35,0,2.26,0,3.17,0,.67,0,1.25-.18,1-1-.41-1.51-.24-3.2-1.22-4.84C130.83,349,129.93,350.69,128.86,352.79Z" transform="translate(-93.57 -183.63)"/><path class="cls-7" d="M340.57,367a16.83,16.83,0,0,1-7.09-1.63c-3-1.4-.74-3.63-.55-5.41s1.69-.95,2.71-.59a16.41,16.41,0,0,0,7.81,1.16,9.1,9.1,0,0,0,3.05-1,3.1,3.1,0,0,0,1.61-3.14c-.05-1.23-1-1.61-2-1.95-1.41-.51-2.87-.86-4.26-1.4-4.66-1.78-6.58-4.39-6.29-8.46a9.74,9.74,0,0,1,7.44-9c4.53-1.09,8.92-.34,13.21,1.27.95.36,1.33.89,1.07,1.9a17.7,17.7,0,0,0-.55,2.68c-.21,1.77-1.2,2-2.63,1.45a16.88,16.88,0,0,0-7.29-1.41,5.39,5.39,0,0,0-2.81.88,2.42,2.42,0,0,0,0,4.14c1.65,1.2,3.65,1.6,5.52,2.26,6.69,2.35,8.17,9.91,2.82,14.69C349.36,366.14,345.68,367,340.57,367Z" transform="translate(-93.57 -183.63)"/><path class="cls-7" d="M104.3,354,112.73,338c1-2,6.14-3.46,8-2.23,1.14.76.3,1.62-.11,2.37q-4.92,9-9.88,17.92c-1.64,3-3.38,5.92-4.91,9-1.35,2.68-3.66,1.25-5.53,1.44-1.7.17-1.45-1.53-1.65-2.57-1.63-8.4-3.21-16.82-4.81-25.23-.53-2.76-.33-3.08,2.46-3,4.08.07,4.11-.92,4.91,4.18.74,4.74,1.65,9.44,2.49,14.16Z" transform="translate(-93.57 -183.63)"/><path class="cls-6" d="M466,335.56c3.5,0,7,0,10.49,0,1.64,0,2.35.56,1.85,2.26a14.73,14.73,0,0,0-.42,2.2c-.16,1.38-.78,2.14-2.28,1.9a4.69,4.69,0,0,0-.75,0c-6.53,0-6.52,0-7.82,6.32-1.11,5.37-2.33,10.72-3.35,16.11-.31,1.63-.92,2.2-2.59,2.17-5.51-.1-5.19.47-4.08-5,1.21-5.93,2.36-11.87,3.73-17.76.42-1.8-.16-2-1.62-1.9s-3-.1-4.49,0c-2.24.21-2.5-.83-2.1-2.69.78-3.67.73-3.68,4.45-3.68Z" transform="translate(-93.57 -183.63)"/><path class="cls-9" d="M377,366.47c-2.74,0-5.49,0-8.24,0-1.68,0-2.16-.59-1.8-2.29,1.89-8.86,3.75-17.73,5.48-26.61.39-2,1.51-2,3-2,4.56,0,4.57,0,3.68,4.39-1.24,6.09-2.38,12.21-3.79,18.26-.46,2,.22,2.07,1.75,2,3.08-.06,6.16,0,9.24,0,1.8,0,2.49.58,1.8,2.38a4.59,4.59,0,0,0-.31,1.46c-.09,2-1.17,2.6-3.11,2.47C382.12,366.35,379.53,366.47,377,366.47Z" transform="translate(-93.57 -183.63)"/><path class="cls-9" d="M155.8,366.47c-2.83,0-5.65,0-8.48,0-1.6,0-2.08-.64-1.77-2.13q2.82-13.67,5.62-27.32a1.71,1.71,0,0,1,1.45-1.48c4.9-1.05,6,0,5,4.85-1.19,5.76-2.32,11.53-3.61,17.26-.43,1.95-.28,2.79,2.06,2.6,3-.24,6,0,9-.06,1.66,0,2.17.57,1.77,2.28-1.05,4.45-.09,4-4.83,4Z" transform="translate(-93.57 -183.63)"/><path class="cls-10" d="M141.57,277.13c14-1.14,27.4,8.15,29.61,19.84-3.8-2.58-7.44-5-11.61-6.51A37.24,37.24,0,0,0,148.42,288a3.18,3.18,0,0,1-3.08-2A62.28,62.28,0,0,1,141.57,277.13Z" transform="translate(-93.57 -183.63)"/><path class="cls-10" d="M160.62,269.54a32,32,0,0,0-16.08-8.24c-.41-.09-.81-.19-1.22-.25-5.58-.85-5.57-.85-5.74-6.41,0-1.49-.15-3-.21-4.48,0-.86.15-1.47,1.26-1.3,6.49,1,12.71,2.68,17.35,7.83C159.1,260.15,160,264.4,160.62,269.54Z" transform="translate(-93.57 -183.63)"/><path class="cls-11" d="M207.68,189.21c-2.71,4-5.33,7.83-7.91,11.69a3.1,3.1,0,0,1-2.18,1.5c-7.85,1.14-15.18,3.53-21.52,9.42a11.57,11.57,0,0,1,2.89-7.5c4.75-6,11.32-9.37,18.21-12.21A42.43,42.43,0,0,1,207.68,189.21Z" transform="translate(-93.57 -183.63)"/><path class="cls-8" d="M394.28,366.48c-3.94,0-4,0-3.22-3.71q2.52-12.33,5.09-24.67c.45-2.17,5.39-3.71,7.06-2.23.63.55.4,1.24.27,1.86-1.85,9-3.77,18.07-5.58,27.12C397.39,367.39,395.47,366.15,394.28,366.48Z" transform="translate(-93.57 -183.63)"/><path class="cls-7" d="M441.35,366.48c-3.65,0-3.65,0-2.92-3.52,1.69-8.21,3.45-16.39,5-24.62.4-2.09,1.12-2.93,3.38-2.84,4.5.19,4.5.05,3.59,4.36Q448,351.42,445.6,363C444.88,366.47,444.9,366.48,441.35,366.48Z" transform="translate(-93.57 -183.63)"/><path class="cls-10" d="M157.06,255.14c-4.91-6.2-11.36-8.27-18.58-8.56-1.07,0-1.43-.36-1.42-1.44a82.27,82.27,0,0,1,.4-8.45c.13-1.1.5-1.75,1.71-1.54,2.61.45,5.27.47,7.85,1.21,6.11,1.74,9.07,6.1,10,12A19.7,19.7,0,0,1,157.06,255.14Z" transform="translate(-93.57 -183.63)"/><path class="cls-11" d="M172.8,226c.72-9.61,6.12-15.55,14.65-19A32.42,32.42,0,0,1,196.2,205c1.31-.14,1.63.22,1.13,1.49-1.13,2.86-2.19,5.75-3.23,8.65a2,2,0,0,1-1.76,1.49A34.42,34.42,0,0,0,172.8,226Z" transform="translate(-93.57 -183.63)"/><path class="cls-10" d="M179.5,284.13c-2.9-3.77-5.46-7-4.47-11.66a10.26,10.26,0,0,1,3.62-5.78c3.16-2.68,6.94-4.15,10.8-5.47,1.05-.36,1.48-.19,1.67.95.42,2.53.86,5.07,1.5,7.55.43,1.71-.19,2.39-1.74,2.87a20,20,0,0,0-4.3,1.92C183.05,276.61,180.3,279.39,179.5,284.13Z" transform="translate(-93.57 -183.63)"/><path class="cls-10" d="M164.25,281.48a30.48,30.48,0,0,0-22.08-7c-1.32.08-1.72-.44-1.92-1.59-.48-2.69-1-5.39-1.59-8.05-.42-1.79.41-2.13,1.91-2.12,7.17.07,13,3.09,17.79,8.19A25.12,25.12,0,0,1,164.25,281.48Z" transform="translate(-93.57 -183.63)"/><path class="cls-10" d="M158.38,226.92c-4.1-5-9.49-7.23-15.74-7.49-1.47-.06-1.56-.56-1.2-1.84a78.32,78.32,0,0,1,3.58-8.75c.46-1.11,1.41-1.23,2.46-1.29,7-.4,12.54,5.42,12.28,13A15.48,15.48,0,0,1,158.38,226.92Z" transform="translate(-93.57 -183.63)"/><path class="cls-10" d="M173.25,268.73c-1.84-3.3-1.44-6.5-.25-9.51,2.64-6.69,7.73-10.61,14.71-12.16,1.68-.37,2.57-.11,2.47,2a78.75,78.75,0,0,0,.3,8c.07,1-.24,1.43-1.29,1.61A23.73,23.73,0,0,0,173.25,268.73Z" transform="translate(-93.57 -183.63)"/><path class="cls-10" d="M170.67,241c0-11.9,6.42-19.15,18.42-21.42,3.93-.74,3.58-.78,3.19,3.22-.47,4.93-2.47,7.42-7.6,8.39C179,232.27,174.64,236.12,170.67,241Z" transform="translate(-93.57 -183.63)"/><path class="cls-10" d="M190.58,232.09c-.19,3.68-.4,7.16-.52,10.64,0,1-.46,1.18-1.34,1.34-9,1.66-11.45,3.07-17.78,10.27C168.41,243.27,176.41,236,190.58,232.09Z" transform="translate(-93.57 -183.63)"/><path class="cls-10" d="M162,212.38c-3.16-4.91-7.31-7.75-13-8-1,0-1.13-.46-.61-1.28a37.49,37.49,0,0,1,12.27-11.86c1.17-.71,1.79.11,2.39,1,2.94,4.51,2.45,9.36,1.34,14.21A21,21,0,0,1,162,212.38Z" transform="translate(-93.57 -183.63)"/><path class="cls-10" d="M157.52,241.27c-2.33-2.27-4.2-4.47-6.75-5.91a15.86,15.86,0,0,0-10.52-2.15c-1.42.21-1.75-.14-1.61-1.46a57.16,57.16,0,0,1,1.06-6.88c.39-1.68,1.29-2.19,3-2.11C151.36,223.18,159,228.06,157.52,241.27Z" transform="translate(-93.57 -183.63)"/><path class="cls-12" d="M216.1,183.8c-3.42,2.65-6.92,3.4-10.41,4a58,58,0,0,0-22,8.29c-.1.06-.28,0-.7-.05a20.15,20.15,0,0,1,15.61-11C204.24,184.19,209.89,184.18,216.1,183.8Z" transform="translate(-93.57 -183.63)"/><path class="cls-12" d="M168.37,198.53c-1.07-3.42-1-6.93-4.33-9.07,5.35-2.62,10.6-4.47,16.48-4.75C175.23,188.06,172.08,193.26,168.37,198.53Z" transform="translate(-93.57 -183.63)"/><path class="cls-3" d="M148.11,290a.74.74,0,0,1-.21-.07s0-.1,0-.15l.15.26Z" transform="translate(-93.57 -183.63)"/><path class="cls-13" d="M521.58,347.91c-.22,7.64-4.91,12.29-12.36,12.32-1.15,0-1.9,0-1.54-1.61,1.12-5,2.17-10,3.11-15.08.26-1.38.83-1.79,2.13-1.66s2.33,0,3.48.14C520.08,342.35,521.69,344.2,521.58,347.91Z" transform="translate(-93.57 -183.63)"/><path class="cls-14" d="M292.5,348.88c.4-2,.83-3.86,1.14-5.72" transform="translate(-93.57 -183.63)"/><path class="cls-14" d="M298.34,342c1.36.05,2.78.14,3.11,1.82" transform="translate(-93.57 -183.63)"/><path class="cls-15" d="M128.86,352.79c1.07-2.1,2-3.83,3-5.81,1,1.64.81,3.33,1.22,4.84.21.79-.37,1-1,1C131.12,352.78,130.21,352.79,128.86,352.79Z" transform="translate(-93.57 -183.63)"/></svg>