<svg id="wyns" xmlns="http://www.w3.org/2000/svg" viewBox="0 0 577.93 134.48"><defs><style>.cls-1{fill:#314096;}.cls-2{fill:#d3d8dc;}.cls-3{fill:#e5198b;}.cls-4{fill:#f28136;}.cls-5{fill:#262324;}.cls-6{fill:#15191c;}</style></defs><title>Wynns</title><path class="cls-1" d="M288.72,337.6H100.83a129.44,129.44,0,0,1-42.62-7.36c-12-4.16-23.15-9.93-32.5-18.69-11.18-10.48-16.89-23.23-15.17-38.74,1.33-12.07,6.78-22.31,14.85-31.21,10.29-11.35,23-19.2,36.91-25.27a160.26,160.26,0,0,1,38.47-11.22,145.35,145.35,0,0,1,23.55-1.9q183.52,0,367.07,0c13,0,25.82,1.09,38.43,4.47,11.87,3.18,23.11,7.7,33.31,14.56,9.14,6.15,16.8,13.73,21.33,24,4.43,10,4.76,20.35,1.67,30.8-4.53,15.28-14.67,26.28-27.31,35.24-12.14,8.62-25.59,14.5-39.83,18.74a162.2,162.2,0,0,1-47,6.67C410.88,337.51,349.8,337.6,288.72,337.6Zm20.19-129.22q-85.14,0-170.28,0a148.36,148.36,0,0,0-40.11,5.25C82.73,218,67.89,224.31,54.89,234.45,43.74,243.15,35.1,253.64,32,267.88a40.19,40.19,0,0,0,.91,21.91c3.47,10.4,10.56,18,19.3,24.25,9.77,7,20.72,11.36,32.28,14.39A120.53,120.53,0,0,0,115,332.57q174.73,0,349.46,0a114.71,114.71,0,0,0,14.11-1A149.84,149.84,0,0,0,507.67,325c14.91-5,28.8-11.75,40.6-22.31,10.47-9.38,17.7-20.56,19.05-34.92a38.84,38.84,0,0,0-5.57-24.56c-6.57-10.75-16.29-17.86-27.35-23.23a117.92,117.92,0,0,0-52.18-11.65Z" transform="translate(-10.23 -203.19)"/><path class="cls-2" d="M145.52,344.22" transform="translate(-10.23 -203.19)"/><path class="cls-2" d="M13.2,246.88" transform="translate(-10.23 -203.19)"/><path class="cls-3" d="M308.91,208.38H482.22A117.92,117.92,0,0,1,534.4,220c11.06,5.37,20.78,12.48,27.35,23.23a38.84,38.84,0,0,1,5.57,24.56c-1.35,14.36-8.58,25.54-19.05,34.92-11.8,10.56-25.69,17.36-40.6,22.31a149.84,149.84,0,0,1-29.11,6.53,114.71,114.71,0,0,1-14.11,1q-174.72,0-349.46,0a120.53,120.53,0,0,1-30.55-4.14C72.88,325.4,61.93,321,52.16,314c-8.74-6.22-15.83-13.85-19.3-24.25A40.19,40.19,0,0,1,32,267.88c3.15-14.24,11.79-24.73,22.94-33.43,13-10.14,27.84-16.5,43.63-20.86a148.36,148.36,0,0,1,40.11-5.25Q223.77,208.48,308.91,208.38Zm-.57,5.28q-80.77,0-161.55,0a112.48,112.48,0,0,0-13.27,1A130.44,130.44,0,0,0,108,220.39c-13.14,4.36-25.44,10.23-36.07,19.25-9.84,8.34-16.84,18.29-18.85,31.43a35.44,35.44,0,0,0,3.2,21.32c4.8,9.89,12.92,16.58,22.27,21.88a99.74,99.74,0,0,0,30.61,10.82A109.16,109.16,0,0,0,130,327.27q159,.15,318,.09a159.94,159.94,0,0,0,18.31-1.23,126.79,126.79,0,0,0,27.79-6.52c10.73-3.81,20.95-8.72,30.05-15.7,9.6-7.37,17.31-16.16,20.75-28.06,2.67-9.23,2.42-18.35-1.78-27.16s-11.23-15.19-19.4-20.3a90.15,90.15,0,0,0-19.36-8.92,109,109,0,0,0-34.67-5.77Q389,213.58,308.34,213.66Z" transform="translate(-10.23 -203.19)"/><path class="cls-4" d="M308.34,213.66q80.67,0,161.34,0a109,109,0,0,1,34.67,5.77,90.15,90.15,0,0,1,19.36,8.92c8.17,5.11,15.16,11.41,19.4,20.3s4.45,17.93,1.78,27.16c-3.44,11.9-11.15,20.69-20.75,28.06-9.1,7-19.32,11.89-30.05,15.7a126.79,126.79,0,0,1-27.79,6.52A159.94,159.94,0,0,1,448,327.36q-159,0-318-.09a109.16,109.16,0,0,1-20.81-2.18,99.74,99.74,0,0,1-30.61-10.82c-9.35-5.3-17.47-12-22.27-21.88a35.44,35.44,0,0,1-3.2-21.32c2-13.14,9-23.09,18.85-31.43,10.63-9,22.93-14.89,36.07-19.25a130.44,130.44,0,0,1,25.53-5.76,112.48,112.48,0,0,1,13.27-1Q227.57,213.73,308.34,213.66Zm-1.25,6q-71.05,0-142.11,0a124.33,124.33,0,0,0-35.26,4.85,104.9,104.9,0,0,0-30.33,13.86c-9,6.11-16.38,13.63-20.45,23.9-3.28,8.29-3.86,16.72-.6,25.23,3.41,8.89,9.78,15.23,17.61,20.19a88.46,88.46,0,0,0,48,13.62c95.82.19,191.64.06,287.45.12a131.48,131.48,0,0,0,36.92-4.72c10.81-3.13,21.07-7.41,30.38-13.75,11-7.47,19.72-16.76,22.72-30.21a32.81,32.81,0,0,0-.89-18.33c-3-8.43-8.66-14.71-15.86-19.63-14.92-10.19-31.69-14.9-49.55-15C405.74,219.46,356.42,219.62,307.09,219.63Z" transform="translate(-10.23 -203.19)"/><path class="cls-5" d="M132.37,234.26c2.69,0,5.4.08,8.09,0,1.78-.08,2.3.51,1.89,2.23-1.26,5.3-2.46,10.62-3.68,15.94q-2.7,11.8-5.39,23.63a9.55,9.55,0,0,0,.08,5.77c1.59,4.06,6.39,5.07,10.34,2.22,3.29-2.37,4.61-5.8,5.44-9.58,1.8-8.15,3.68-16.29,5.52-24.43,1-4.47,2.06-8.93,3-13.41.33-1.64.94-2.43,2.78-2.39,5.47.12,10.94.09,16.4,0,1.66,0,2.2.49,1.82,2.13-1.55,6.62-3,13.25-4.57,19.88s-3.08,13.39-4.61,20.08c-.07.33-.09.67-.13,1-.44,3.75.65,6.52,3,7.76s6.07.38,8.59-1.89a14.41,14.41,0,0,0,4.27-7.86q4.16-18.21,8.32-36.43c1.07-4.65,1.12-4.64,5.89-4.64,4.59,0,9.18,0,13.77,0,1.58,0,2,.48,1.67,2-1.58,6.83-3.09,13.67-4.64,20.5s-2.92,13.7-4.71,20.46c-2.94,11.11-7.81,21.12-17.77,27.73-6.51,4.33-13.65,6.06-21.36,4.05-5.2-1.36-8.8-4.83-11.21-9.51-.81-1.58-1.35-1.44-2.41-.32-4.53,4.78-9.77,8.41-16.3,10-10.7,2.54-19.56-2.25-23.41-12.7a31.71,31.71,0,0,1-1.28-16.35c1.52-9.24,3.95-18.29,6-27.41,1.24-5.46,2.51-10.9,3.66-16.37.33-1.55,1-2.14,2.61-2.07C126.83,234.33,129.6,234.25,132.37,234.26Z" transform="translate(-10.23 -203.19)"/><path class="cls-5" d="M247.24,280.55c-2.57.94-4.76,2.13-7.17,2.75-6.67,1.7-13,1.05-18.68-3-4.76-3.4-6.66-8.11-6.24-13.86.48-6.54,2-12.9,3.45-19.27.84-3.67,1.7-7.34,2.49-11,.3-1.44,1-1.91,2.51-1.89,5.53.09,11.07.08,16.6,0,1.61,0,2.15.31,1.71,2.08-1.48,6-2.77,12.07-4.18,18.1-.92,3.89.53,7.32,3.79,8.58,2.75,1.07,5-.2,7.1-1.76a12.53,12.53,0,0,0,4.6-7.61c1.24-5.59,2.56-11.15,3.72-16.76.39-1.88,1.09-2.72,3.2-2.66,5.12.17,10.25.06,15.38.06,2.82,0,2.91,0,2.29,2.85-1.16,5.26-2.42,10.5-3.62,15.74-1.86,8.07-3.69,16.14-5.55,24.21-1.74,7.59-3,15.33-7.57,22-4.86,7.06-10.95,12.4-19.42,14.53-4.38,1.1-8.87.73-13.3.37a52.63,52.63,0,0,1-17.89-4.64c-1.6-.75-2.19-1.42-1.7-3.34,1.47-5.73,2.69-11.53,4-17.32.35-1.61.73-1.89,2.34-.94,6.55,3.9,13.64,5.74,21.28,4.43C241.63,291.23,246.3,286.28,247.24,280.55Z" transform="translate(-10.23 -203.19)"/><path class="cls-5" d="M376.87,306.33c-2.9,0-5.8,0-8.7,0-1.37,0-1.75-.41-1.42-1.82Q371.45,284.26,376,264c.44-2,1.07-4,.65-6.17-.85-4.37-4.62-5.54-8.21-4a10.62,10.62,0,0,0-6.22,7.76c-2.4,10.43-4.69,20.89-7,31.33-.86,3.81-1.79,7.6-2.62,11.41-.35,1.57-1.09,2.14-2.78,2.1q-8.1-.19-16.19,0c-2,0-2.31-.6-1.9-2.36,1.6-6.75,3.12-13.51,4.66-20.27q2.75-12,5.46-24c1.79-7.88,3.61-15.75,5.37-23.63.33-1.48,1.12-1.87,2.58-1.85,5.46.07,10.93.09,16.39,0,1.84,0,2.21.57,1.83,2.28-.23,1-1.16,2.49-.38,3,1,.66,1.89-.91,2.81-1.5,5.8-3.68,12-5.74,18.95-5,6.61.71,10.64,5.22,10.9,11.87.16,3.83-.78,7.49-1.61,11.17q-3.19,14.28-6.47,28.56c-1.5,6.56-3.05,13.11-4.5,19.68-.35,1.58-1,2.22-2.73,2.1C382.28,306.2,379.57,306.33,376.87,306.33Z" transform="translate(-10.23 -203.19)"/><path class="cls-5" d="M314.26,306.33c-2.83,0-5.67-.09-8.5,0-1.71.07-1.93-.63-1.6-2.05q3.15-13.49,6.23-27,1.82-7.87,3.57-15.76a8.52,8.52,0,0,0-.12-4.8c-1.2-3.27-4.72-4.58-8-3-4.31,2-5.8,5.87-6.76,10.16-2.75,12.22-5.56,24.42-8.34,36.63a27.55,27.55,0,0,0-.8,3.75c-.15,1.63-.9,2.1-2.49,2.07-5.6-.09-11.2-.07-16.8,0-1.49,0-2-.24-1.64-1.94,2.51-10.75,4.88-21.53,7.35-32.29,2.37-10.3,4.79-20.59,7.18-30.89.41-1.77.82-3.55,1.1-5.34a1.67,1.67,0,0,1,1.88-1.64c5.94,0,11.88,0,17.82,0,1.48,0,1.43.84,1.2,1.89s-1.33,2.69-.4,3.35,1.93-1,2.9-1.61c5.95-3.76,12.32-5.7,19.39-4.83a11.63,11.63,0,0,1,10.26,11.21c.25,4.74-1,9.21-2,13.74q-3.27,14.49-6.54,29c-1.37,6-2.79,12.06-4.14,18.11-.26,1.16-1,1.26-1.95,1.25Z" transform="translate(-10.23 -203.19)"/><path class="cls-5" d="M488.05,234.74c1.31-.19,1,.71.84,1.36-.9,4.07-1.84,8.14-2.78,12.21a41,41,0,0,0-1,4.32c-.19,1.69-1.06,2-2.58,2-7-.06-14,0-21.05,0H460a2.62,2.62,0,0,0-2.91,2c-.44,1.69,1,2.06,2.07,2.47,3.83,1.5,7.69,2.89,11.55,4.29,5.11,1.85,7.91,5.68,9,10.79,2.8,12.87-6.53,27.37-18.53,31.1a18.15,18.15,0,0,1-5.4.74H424.07c-2.54,0-2.53-.14-1.9-2.72,1.28-5.16,2.51-10.34,3.55-15.55.34-1.71,1.14-2,2.61-1.94,7.89.05,15.79,0,23.68,0a5.23,5.23,0,0,0,2.57-.38,4.24,4.24,0,0,0,2.42-3.69c.08-1.68-1.14-2.32-2.38-2.9-4.49-2.14-9-4.18-13.49-6.37-6.29-3.09-8.16-8.47-7.79-15.09.52-9.51,8.26-19.51,17.4-22.27a14.58,14.58,0,0,1,4.2-.53h31.57a6.75,6.75,0,0,1,1.18.19l.27.32Z" transform="translate(-10.23 -203.19)"/><path class="cls-5" d="M416,234.64a16.33,16.33,0,0,1,8,1.32c3.5,1.75,5.12,5.52,4.91,9.87-.32,6.84-3.72,12.24-7.57,17.5-2.31,3.15-4.92,6.06-7.52,9a6.7,6.7,0,0,1-5.93,1.45c-1.1-.46-.41-1.07-.07-1.59a115,115,0,0,0,6.57-11.33c1.06-2.09,1-2.22-1.33-2.22s-4.32-.07-6.48,0c-1.52.07-2.06-.31-1.67-1.95,1.35-5.62,2.53-11.29,3.88-16.92C410,234.62,410,234.64,416,234.64Z" transform="translate(-10.23 -203.19)"/><path class="cls-6" d="M488.05,234.74l-.09.34-.27-.32A.36.36,0,0,1,488.05,234.74Z" transform="translate(-10.23 -203.19)"/></svg>